/* XPM */
static char *ball[] = {
/* columns rows colors chars-per-pixel */
"50 50 177 2 ",
"   c #817E6B",
".  c #7F8475",
"X  c #84816E",
"o  c #868471",
"O  c #898672",
"+  c #8D8A76",
"@  c #8A8D7D",
"#  c #918E7A",
"$  c #95927D",
"%  c #DF8D47",
"&  c #DF9856",
"*  c #C89C6B",
"=  c #DE9F64",
"-  c #DF8F78",
";  c #E08B65",
":  c #DFCF66",
">  c #DFCF68",
",  c #DFD067",
"<  c #DFD06B",
"1  c #D7CB77",
"2  c #DDCF71",
"3  c #D6CB7E",
"4  c #D9CD7C",
"5  c #DED174",
"6  c #DED37B",
"7  c #E0D47B",
"8  c #E17C8F",
"9  c #7E9189",
"0  c #7E9995",
"q  c #7D9590",
"w  c #78A2A7",
"e  c #76A5AC",
"r  c #6BA8B7",
"t  c #66A9BA",
"y  c #67A7B6",
"u  c #72AAB5",
"i  c #5ABBDC",
"p  c #61B8D3",
"a  c #7FC9DB",
"s  c #4DC4EF",
"d  c #54C5ED",
"f  c #5DC3E6",
"g  c #4CC4F0",
"h  c #54C6F0",
"j  c #5CC9F0",
"k  c #67C6E4",
"l  c #6CC6E2",
"z  c #66C9EA",
"x  c #74CCE8",
"c  c #62CBF0",
"v  c #69CDF1",
"b  c #70CFF1",
"n  c #6DD0F3",
"m  c #7CD3F2",
"M  c #839187",
"N  c #9A9781",
"B  c #9B9882",
"V  c #919283",
"C  c #A29F87",
"Z  c #ABA88F",
"A  c #A7A38B",
"S  c #B7B28C",
"D  c #AEAA92",
"F  c #B5B297",
"G  c #BAB69B",
"H  c #BDB99E",
"J  c #83A4A2",
"K  c #A4ADA3",
"L  c #ADB4A9",
"P  c #BFBBA0",
"I  c #DEB287",
"U  c #C0BB9E",
"Y  c #DC98A6",
"T  c #E087A0",
"R  c #E08BA3",
"E  c #E092A6",
"W  c #C2BEA2",
"Q  c #CABBA5",
"!  c #D8B6AC",
"~  c #DBBCB2",
"^  c #DFB0BE",
"/  c #9FC1BB",
"(  c #B4C8B9",
")  c #CEC382",
"_  c #D4CA84",
"`  c #DED584",
"'  c #DDD48A",
"]  c #DFD98E",
"[  c #C8C297",
"{  c #CAC49C",
"}  c #CAC49C",
"|  c #D6CE92",
" . c #DECC96",
".. c #DEDA95",
"X. c #DDD49A",
"o. c #DEDB9A",
"O. c #E1DC9F",
"+. c #C6C2A5",
"@. c #C9C4A7",
"#. c #C3C4AA",
"$. c #CAC6A9",
"%. c #CEC9AC",
"&. c #D2CDA4",
"*. c #D1CDAE",
"=. c #DDC6A9",
"-. c #DEDDA3",
";. c #D5D0AD",
":. c #DCD6AA",
">. c #DDDDAA",
",. c #C3C7B0",
"<. c #CECCB2",
"1. c #D3CEB1",
"2. c #D2C1BD",
"3. c #CCD0B9",
"4. c #D6D1B3",
"5. c #D9D5B5",
"6. c #DDD9B7",
"7. c #D4D5BD",
"8. c #DBD6B8",
"9. c #DED9BA",
"0. c #E1DDBD",
"q. c #DEE1AE",
"w. c #DEE3BC",
"e. c #DEE2B4",
"r. c #90C2CE",
"t. c #86C7D4",
"y. c #A0C8C6",
"u. c #BDC8C0",
"i. c #AFD1CA",
"p. c #ACCCD2",
"a. c #84D3ED",
"s. c #83D5F1",
"d. c #8FD9F2",
"f. c #9CDDF3",
"g. c #93DAF2",
"h. c #A2DCED",
"j. c #A3DEF2",
"k. c #BEE4EB",
"l. c #ABE1F2",
"z. c #B3E4F3",
"x. c #BCE7F4",
"c. c #C4D3C2",
"v. c #CAD5C4",
"b. c #D1D6C4",
"n. c #D8DAC7",
"m. c #D5DBCD",
"M. c #D9DECE",
"N. c #D6DAC6",
"B. c #DDC8D2",
"V. c #D4DED4",
"C. c #D6DFD8",
"Z. c #CBD9D7",
"A. c #E3DFC1",
"S. c #DEE5C3",
"D. c #D5E0CF",
"F. c #DDE8CE",
"G. c #DDE6C8",
"H. c #D7E0D6",
"J. c #DBE4D5",
"K. c #DDE9D4",
"L. c #DDEBDB",
"P. c #DAE6DF",
"I. c #E5E2C2",
"U. c #E8E3C3",
"Y. c #DDDAE0",
"T. c #D8E7E6",
"R. c #DDEDE5",
"E. c #D5EBEF",
"W. c #DDEEEC",
"Q. c #D3E7E1",
"!. c #DDF0EE",
"~. c #C2E9F3",
"^. c #CBECF4",
"/. c #D4EFF5",
"(. c #DBEFF1",
"). c #D4E7F0",
"_. c #DDF1F4",
/* pixels */
"5.8.5.8.9.5.*.@.$.*.5.4.*.5.*.%.*.5.%.$.%.5.$.$.W *.*.*.9.5.*.$.@.5.5.7.5.5.9.$.%.5.0.0.0.0.0.5.8.1.",
"1.*.5.5.5.*.*.@.%.4.5.1.%.*.*.4.4.4.*.*.%.1.1.<.*.*.*.1.5.*.+.$.1.1.1.5.8.1.$.$.8.0.0.9.5.5.1.1.8.1.",
"%.%.5.9.4.4.*.*.9.A.5.5.4.5.0.9.5.4.5.1.5.5.4.*.5.1.4.5.5.<.1.5.1.5.5.0.5.1.4.5.4.4.5.9.4.9.1.1.1.1.",
"$.5.9.5.*.1.4.4.8.4.%.1.5.9.9.4.1.4.1.%.*.*.&.%.%.%.5.9.%.@.1.5.5.5.1.$.*.5.1.1.*.%.*.*.*.4.*.@.$.%.",
"4.*.1.%.*.5.*.$.1.%.$.1.9.6.4.5.*.%.*.1.1.*.%.%.*.9.*.%.W %.5.1.1.4.@.W 1.0.5.*.*.@.@.1.*.1.*.@.*.1.",
"4.%.%.*.;.1.%.%.%.4.$.*.9.4.*.*.%.%.*.%.5.5.1.4.9.9.%.@.$.1.$.@.*.*.+.$.0.A.%.@.%.%.*.*.*.1.%.%.*.1.",
"4.$.$.*.1.$.$.%.<.%.+.%.5.5.4.$.@.@.@.$.1.%.$.4.4.1.*.$.*.*.*.1.1.%.@.5.U.0.*.*.*.@.1.1.5.5.$.@.1.1.",
"@.+.*.1.5.1.%.@.+.+.+.$.*.*.*.%.$.+.H +.+.W $.*.@.+.W $.1.9.9.9.*.*.1.0.8.4.*.$.*.1.8.9.1.1.%.%.1.$.",
"4.5.6.6.4.;.;.@.%.@.P +.4.*.%.$.W G W @.%.*.*.%.+.$.1.5.*.9.9.5.1.1.1.5.*.%.$.1.4.4.1.5.8.8.8.5.5.$.",
"*.*.*.%.5.*.$.@.$.%.%.5.5.5.*.+.W @.*.<.<.m.J.H.V.V.m.b.<.7.5.*.<.1.1.1.1.5.5.1.%.$.1.4.8.5.1.$.$.*.",
"} *.*.;.5.%.W W @.1.*.5.6.9.*.@.<.7.N.D.K.L.L.R.W._.(.(.W.T.M.<.W ,.1.1.%.5.1.1.1.1.*.$.1.1.<.1.5.*.",
"1.5.5.;.%.+.+.P +.*.%.4.5.;.@.@.;.>.o.` 6 6 7 6 O.>.F.R._._._.T.~ Q %.@.$.%.%.1.1.*.$.#.%.1.$.%.1.%.",
"5.*.%.%.@.@.@.+.5.9.6.6.4.%.U _ 5 < : : : : : : : , 5 ] S.R._._.B.Y ~ 4.1.$.1.$.@.%.%.@.%.%.%.%.1.8.",
"%.+.+.@.@.@.$.;.0.5.;.%.$.{ 4 > , , : : : : : : : : : : 5 ] S._.Y.E R ~ *.%.4.1.1.5.5.1.*.%.$.1.%.$.",
"+.W W U U $.*.4.9.5.*.+.} 1 > : : : : : : : : : : : , , : , 5 X.I - 8 T ! 1.*.1.9.5.%.1.1.*.5.5.*.1.",
"$.@.%.%.*.5.;.5.8.*.+.U 3 > > > : : : : , : : : : : < 6 ` o.o. .& % ; E ^ 1.$.1.1.$.1.1.%.5.0.1.*.$.",
"4.4.5.5.4.4.5.4.*.#.G ) > : : : : : : : , , , , 6 O.G.L.R._._.W.=.= * p.).V.1.1.*.*.%.@.%.8.5.$.$.$.",
"0.5.5.5.5.1.*.@.W P [ > > : : : : : : : , , 5 -.K.!._._._._._._._.H.t.d f.(.M.1.1.@.+.$.%.%.@.W *.1.",
"6.4.4.*.*.+.U U W @.' > : : : : : > : : < ` G.!._._._._._._._._._.^.v g j z.P.<.%.$.1.*.$.1.1.$.1.8.",
";.*.%.U G G U +.W &.5 : : : > : : : > < ..L._._._._._._._._._._._.^.v g s m E.n.4.4.9.4.1.5.5.*.1.4.",
"+.H H H +.@.+.+.1.X.> > : : : : : : < -.W._._._._._._._._._._._._.~.j g g h z.J.4.6.5.*.%.1.1.$.Q W ",
"} W +.$.$.$.%.;.5.' > > : > : : : : o.W._._._._._._._._._._._._._.z.h g g g m Q.1.$.+.W $.5.*.@.$.@.",
"%.$.%.1.*.%.*.*.*.4 : : : : : : : ` L._._._._._._._._._._._._._._.f.g g g g j k.5.%.%.*.5.5.4.5.4.*.",
"$.$.1.%.@.W @.5.0.6 : : : : : : 7 S._._._._._._._._._._._._._._.(.m g g g g s h.7.%.1.%.4.4.5.*.%.+.",
"$.$.$.@.%.*.5.9.:.2 > : : : : : o.W._._._._._._._._._._._._._._.~.c g g g g s a.b.5.5.1.*.$.$.@.%.%.",
"%.4.4.6.6.4.5.1.&.2 : > : : > 5 F._._._._._._._._._.!._._._._._.f.s s g g g s b v.4.5.1.%.%.1.$.$.@.",
"%.*.5.9.*.$.*.%.&.5 : > > : : ..W._._._._._._._._._._._._._._./.m s s g g g g z v.8.5.%.%.%.$.@.$.+.",
"4.5.8.5.%.1.5.1.6.` : > : : > e._._._._._._._._._._._._._._._.z.h g g s g s g z c.1.5.5.%.%.%.%.%.*.",
"5.0.8.$.+.5.5.5.9.' > > , , 5 K._._._._._._._._._._._._._._./.a.g g g g g g g a #.%.%.%.$.%.$.@.%.*.",
"0.4.$.W %.9.5.%.4.| > > , , ' R._._._._._._._._._._._._._._.l.d g g g g g g g t.4.1.1.1.$.*.1.*.8.8.",
"5.@.W $.8.%.W +.4.&.< : , , o.!._._._._._._._._._._._._._.^.b g g g g g s g d i.9.9.5.%.*.4.4.*.4.5.",
"@.W #.1.$.W #.$.5.5.' , , : >._._._._._._._._._._._._._._.d.g g g g g g s g x b.8.1.%.1.%.*.%.+.%.*.",
"P W 1.1.1.$.%.*.4.9.:.7 : : q._._._._._._._._._._._._._.j.j g g g h g g g h y.;.%.W U W $.Q W W $.W ",
"1.8.9.8.*.1.4.1.8.9.;.| : , w._._._._._._._._.(._._._.z.c g g g g g g g g a ( @.W U U $.%.%.1.%.%.$.",
"9.5.*.$.*.5.4.8.0.0.5.;.` > w._._._._._._._._._._._.x.v g g g g g g g g k ( %.$.U W *.1.$.@.1.1.1.1.",
"A.8.1.%.5.9.5.5.6.8.*.%.{ 6 w._._._._._._._._._.(.z.v g g g g g g g g f / %.1.1.*.5.1.$.#.$.1.1.*.5.",
"<.$.$.$.5.4.4.4.*.*.W +.W S 3.(.(._._._._._._./.j.c g g g g g g g g i J P 1.%.$.1.5.%.W @.1.1.%.1.5.",
"%.%.*.9.0.8.4.*.%.1.$.%.W # V u.(._._._._._.~.s.h g g g g g g g g p M + W 7.1.+.$.@.W $.9.8.8.5.0.4.",
"1.$.*.1.;.*.+.+.$.*.%.$.P +   # L Z.)./.x.g.c h g g g g g g s i r M + + F %.%.+.%.4.4.0.0.5.5.1.4.%.",
"#.@.$.$.@.W U W $.1.1.1.+.$ o + O @ K r.k h g h g g g h d p u 9 o # # N P $.$.%.0.A.0.8.1.1.7.1.$.$.",
"+.%.*.%.$.$.+.W 4.5.4.*.$.F $ o     o o q w r t t t u e 0 @ O o + $ $ D +.#.$.5.A.0.5.*.@.1.5.$.$.@.",
"$.5.5.1.%.1.8.5.5.5.4.$.@.@.G $         o o     o O O O O O O + $ B D H H Q 4.0.A.5.$.W W %.$.W W @.",
"9.5.5.4.5.8.5.1.*.5.1.$.%.*.%.@.Z + o o o     O O @ O O + @ # N D G W W W 5.A.0.0.$.W W W W #.@.$.4.",
"0.*.1.5.1.*.$.$.1.*.%.$.1.$.$.$.@.@.G Z C B # # # $ $ $ C D H W U H H @.*.0.5.*.$.Q W #.$.1.5.5.5.9.",
"*.$.%.+.@.+.+.&.*.*.*.*.%.%.<.1.5.5.8.5.*.@.W W +.+.+.$.+.+.+.W W W 1.5.8.1.*.$.<.%.1.5.8.9.0.5.8.8.",
"@.+.@.@.$.+.$.@.*.4.*.$.1.1.5.5.9.9.1.%.5.4.*.%.%.*.+.+.+.U W W W 5.I.9.1.<.@.#.$.1.5.5.4.4.4.$.W #.",
"%.%.5.1.$.$.%.4.5.*.@.@.*.%.1.1.*.+.@.%.5.5.*.*.*.@.+.+.U G Q %.9.A.8.%.%.$.W W @.<.@.@.*.5.$.U W @.",
"5.5.5.5.4.*.4.4.4.%.*.$.$.%.1.*.%.%.*.4.4.4.5.9.;.%.@.+.%.*.5.0.9.5.<.$.$.W @.1.1.*.1.1.5.$.W *.5.5.",
"1.%.1.1.*.1.%.1.9.*.@.$.%.$.$.$.$.1.$.1.*.*.@.W +.@.+.*.8.8.0.*.%.*.$.W +.$.*.1.1.$.1.%.<.@.1.*.4.1.",
"$.%.*.%.*.1.1.1.@.W 1.5.1.*.1.*.5.4.*.*.$.+.U +.@.+.+.*.4.4.*.;.$.W W $.5.8.5.8.1.*.5.5.5.1.8.1.5.1."
};
