/* XPM */
static char *fox_left[] = {
/* columns rows colors chars-per-pixel */
"50 50 188 2 ",
"   c #010100",
".  c #0A0501",
"X  c #0E0801",
"o  c #1A0F02",
"O  c #110901",
"+  c #341D05",
"@  c #3B2105",
"#  c #262525",
"$  c #6D3D0A",
"%  c #703F0A",
"&  c #504939",
"*  c #6A563A",
"=  c #4E4C40",
"-  c #504E42",
";  c #515151",
":  c #68645B",
">  c #6B6B6B",
",  c #B86914",
"<  c #A9763A",
"1  c #AA793D",
"2  c #AA7535",
"3  c #B9782E",
"4  c #C46E12",
"5  c #CD7313",
"6  c #CA7418",
"7  c #CE7A1F",
"8  c #D27512",
"9  c #D77814",
"0  c #DC7B14",
"q  c #E27E14",
"w  c #C87921",
"e  c #D17C21",
"r  c #8E7A59",
"t  c #9E7F53",
"y  c #A87D46",
"u  c #877E67",
"i  c #827F6C",
"p  c #DF8019",
"a  c #EB8416",
"s  c #E78216",
"d  c #F18716",
"f  c #F68916",
"g  c #FE8E16",
"h  c #FF8F18",
"j  c #F48C1C",
"k  c #FF9017",
"l  c #FF911A",
"z  c #DE8729",
"x  c #D9882E",
"c  c #CC8131",
"v  c #E88B26",
"b  c #F38E20",
"n  c #FC9424",
"m  c #FC9629",
"M  c #F7982F",
"N  c #FA982C",
"B  c #F6952B",
"V  c #EF9837",
"C  c #FB9B31",
"Z  c #F39C3A",
"A  c #FF9F38",
"S  c #F59932",
"D  c #FFA13D",
"F  c #9D8258",
"G  c #A9804B",
"H  c #BF9053",
"J  c #89826A",
"K  c #87836F",
"L  c #918467",
"P  c #868572",
"I  c #8E8B76",
"U  c #8F8D79",
"Y  c #888674",
"T  c #928E79",
"R  c #928C74",
"E  c #94927D",
"W  c #BC9F7C",
"Q  c #CF9349",
"!  c #D59446",
"~  c #CB9759",
"^  c #EBA24B",
"/  c #FFAA4F",
"(  c #F7A446",
")  c #EFA752",
"_  c #E8AA5B",
"`  c #FFAE58",
"'  c #FAAA56",
"]  c #FFB15F",
"[  c #DCA762",
"{  c #DFAE6C",
"}  c #D1AD78",
"|  c #DBB479",
" . c #EBB36B",
".. c #E9B26A",
"X. c #FFB86C",
"o. c #E8B672",
"O. c #FFBE7A",
"+. c #FFBC76",
"@. c #FEC07E",
"#. c #898989",
"$. c #9D9A83",
"%. c #9F9988",
"&. c #9A9782",
"*. c #9F9C98",
"=. c #919191",
"-. c #A19C87",
";. c #A79E8C",
":. c #A6A38B",
">. c #AAA78F",
",. c #B3AC95",
"<. c #B6B297",
"1. c #B6B399",
"2. c #BAB69B",
"3. c #BEBA9E",
"4. c #B8B197",
"5. c #BFBBA0",
"6. c #B6B6B6",
"7. c #CFB789",
"8. c #CEB485",
"9. c #D3B583",
"0. c #D9B780",
"q. c #DCBB85",
"w. c #D7BD8D",
"e. c #C1BC9F",
"r. c #C8BB96",
"t. c #D2BF95",
"y. c #E3BC83",
"u. c #C2BEA2",
"i. c #C4BFB6",
"p. c #D4C49D",
"a. c #DBC499",
"s. c #DCC597",
"d. c #E7C287",
"f. c #FFC88D",
"g. c #FFC68A",
"h. c #E3CC9E",
"j. c #FFCA92",
"k. c #C6C1A5",
"l. c #C9C5A6",
"z. c #CDC8A7",
"x. c #C7C3A8",
"c. c #CAC6A9",
"v. c #CECAAC",
"b. c #D5C8A3",
"n. c #D1CDAE",
"m. c #DCCBA3",
"M. c #D5D0AF",
"N. c #D8D1AF",
"B. c #CFCCB0",
"V. c #CAC3B4",
"C. c #D3CEB1",
"Z. c #D6C4B0",
"A. c #D6D1B3",
"S. c #D9D5B5",
"D. c #DDD8B7",
"F. c #D7D4B8",
"G. c #DBD6B8",
"H. c #DED9BA",
"J. c #F2CEA7",
"K. c #FFD1A0",
"L. c #FFD7AC",
"P. c #FFD9AE",
"I. c #E1DCBC",
"U. c #FFDCB7",
"Y. c #FFDEBA",
"T. c #C0C0C0",
"R. c #CCCBCB",
"E. c #CFCCC6",
"W. c #DED6C0",
"Q. c #D7D7D6",
"!. c #DFDBD5",
"~. c #E3DFC1",
"^. c #E2DFDC",
"/. c #E6E2C3",
"(. c #E9E5C5",
"). c #FFE3C5",
"_. c #FFE6CB",
"`. c #ECE3D6",
"'. c #F1E9D6",
"]. c #E4E4E4",
"[. c #F5EFE2",
"{. c #F6F0E7",
"}. c #FFF3E6",
"|. c #FCF5EB",
" X c #F3F3F3",
".X c #FEF8F3",
"XX c #FFFFFE",
"oX c #FAF6F0",
/* pixels */
"A.G.S.D.I.S.n.k.c.M.A.A.A.S.c.v.A.S.v.x.v.S.x.x.k.v.M.A.F.A.v.c.c.S.S.A.S.G.H.c.c.F.~.I.I.I.I.A.S.C.",
"C.n.A.S.S.n.n.l.c.A.D.B.v.v.M.A.A.A.v.v.v.C.A.B.v.M.c.A.S.A.k.c.C.C.B.G.S.A.c.z.G.H.~.G.G.S.S.A.S.n.",
"v.v.S.I.A.S.M.n.W./.A.S.A.S.H.H.S.M.D.A.A.S.A.M.D.A.A.S.D.v.A.S.C.F.F.G.G.n.S.A.A.A.D.G.A.F.C.S.C.A.",
"c.S.D.G.v.n.M.A.D.C.B.C.D.D.H.A.A.A.A.v.M.n.v.z.v.c.S.D.c.l.A.A.A.D.C.v.n.A.C.C.n.v.n.C.v.A.n.k.c.v.",
"A.C.C.v.v.S.n.l.C.v.c.A.I.G.S.S.c.v.M.M.A.n.c.v.A.H.v.c.k.v.S.A.C.A.k.u.A.~.S.C.n.l.c.C.n.n.n.l.v.v.",
"A.c.v.v.A.A.v.v.v.S.c.v.I.A.v.n.v.v.v.v.S.A.A.A.H.H.v.c.l.A.x.k.n.n.k.c.I.~.v.x.v.z.n.n.n.n.v.v.C.C.",
"C.v.v.n.C.l.v.v.v.v.k.n.S.A.A.v.l.l.l.x.A.v.c.S.S.A.v.c.v.A.v.A.A.v.k.S.(.I.C.z.C.c.C.M.S.S.z.k.n.A.",
"k.u.v.A.A.C.v.k.k.k.k.c.n.n.v.c.c.l.3.k.k.3.z.c.k.k.5.c.A.G.D.D.n.n.A.I.D.N.z.v.v.A.G.F.A.A.c.n.C.v.",
"S.D.I.D.N.N.M.l.c.l.5.l.C.C.v.c.5.1.u.x.v.C.v.v.k.z.M.S.M.D.H.G.C.C.n.C.n.v.z.C.S.A.C.G.G.G.I.G.A.v.",
"n.n.n.z.S.n.z.l.c.v.v.A.S.S.v.l.u.c.n.v.c.b.s.v.x.x.k.c.k.A.S.v.v.B.n.S.A.A.A.S.v.x.C.C.F.A.C.x.c.v.",
"k.z.n.S.A.n.u.u.l.A.v.S.G.I.n.l.B.A.v.k.v.d.N { n.D.n.v.v.n.A.x.x.z.C.C.n.S.n.C.C.C.v.z.C.S.B.C.S.n.",
"A.D.S.n.v.k.k.5.k.v.v.A.S.A.l.x.v.C.k.l.F.o.h l ) p.x.l.k.k.k.c.k.k.z.u.x.v.v.C.n.C.v.x.z.v.c.v.B.v.",
"S.n.n.l.l.l.x.k.S.G.D.G.A.v.5.u.l.k.x.A.M._ g k g Z w.v.z.n.v.c.x.S.D.S.C.z.C.c.x.v.c.c.n.z.v.v.A.S.",
"v.k.k.k.l.l.l.M.~.S.M.v.l.l.u.k.A.C.A.A.n.^ k g h g N q.A.M.M.l.C.I.A.C.n.n.A.C.C.D.G.C.n.n.z.B.v.c.",
"k.e.k.e.e.z.n.A.G.A.A.l.k.3.c.D.H.D.D.A.b.S g h h h g N q.B.A.v.C.G.S.S.C.C.n.C.G.A.c.C.n.n.A.D.n.C.",
"l.l.v.v.n.S.n.S.D.A.e.2.1.5.C.I.H.S.C.r...n h h h h l h B [ p.A.C.G.F.C.n.v.l.C.A.v.C.C.v.G.I.n.n.c.",
"A.S.S.S.A.A.S.A.c.l.3.1.u.c.D.D.A.l.[ M l h h h h h h h g d v  .m.S.A.n.n.c.C.C.n.n.z.c.v.D.A.x.x.x.",
"H.S.S.A.D.A.v.z.l.5.k.l.D./.D.W.q.V g g g h h h h h h h h h g g Z q.C.S.n.C.F.C.C.x.u.z.v.v.x.k.n.C.",
"D.A.A.A.v.k.3.3.5.l.A.x.D.A.C.q.m g l g h h h h h h h h g l l g g n { v.c.S.n.v.v.c.C.C.c.Z.C.v.C.G.",
"v.A.v.3.<.3.3.k.u.v.B.B.v.B.o.m g g l g h h h h h h h h h g g l l h b } v.z.z.C.S.A.G.S.I.'.A.C.C.S.",
"l.2.2.3.l.z.l.k.v.S.v.B.F.h.N f f l h h h h h h h h h h h h h h h h g v 7.D.S.A.C.H.G.C.[..XI.x.u.u.",
"k.k.k.z.c.c.c.A.F.S.A./.I.) f % % f g l h h g l h h h h h h h h h h l f ! S.A.C.n.z.u.W.XXXX'.z.z.x.",
"v.c.v.n.v.v.n.v.A.I.D.S.| n 9 o o 9 l g h l g g h h h h h h l g h h h g q } S.C.C.v.n.{.XXXX|.G.D.n.",
"c.l.M.v.k.k.l.A./.D.l.k.^ g 5 . . 4 l k h h g l h h h h h h h h h h h h a Q n.l.v.v.y.O.Y._.L.a.c.u.",
"l.v.c.x.v.v.F.I.A.l.l.a.N k 5 . . 4 l l h h h g h h h h h g g l h h h l f 7 t.A.C.D.( g l n l _ C.v.",
"v.A.A.D.D.S.A.M.n.n.S.d.l l 5 X O 5 k g h h h l l h h h h l l g h h h h g 8 | n.C.d.n h h h h ^ c.k.",
"v.v.D.D.M.l.n.v.n.A.G...k l s + @ a l g h h l g g g l h h h g h h h h h g 8 ~ n.y.C g h h h g ^ z.u.",
"A.A.D.D.c.A.F.T = & * z k h g , , g h h h h g g g g g h h h h h h h h h f 8 x ( l g h h h h h _ z.C.",
"S.H.D.v.k.S.A.=       , k g g f g g g g g l m A D D l g h g h h h h h h f 8 0 g h h h h h g n 9.c.C.",
"/.A.c.5.c.H.S.:     # Z.L.g.X.X.` ` ] X.j.L._.}..X}.f.l g l g l h h h l f 5 0 g h h h h g l ..n.I.G.",
"S.k.u.c.S.v.k.<.: ; 6.XXXXXXXX.XXX.XXXXXXXXXXXXXXXXX}.D g h h h h h h h s 5 q g h h h h n o.n.C.A.S.",
"c.5.x.n.c.k.k.v.`.oXXXXXXXXXXX XE.XXXXXXXXXXXXXXXXXX.X/ g h h h h h h g 9 5 v m m B Z _ w.n.n.u.n.v.",
"3.5.v.C.A.c.v.v.D.'.|.XXXXXX.X=.#.XXXXXXXXXXXXXXXXXX}.( g l g h h h h a 5 e 9.p.t.r.r.5.c.x.3.k.c.u.",
"S.D.W.G.v.S.A.v.D.D.A.H.V.=.> > ].XXXXXXXXXXXXXXXXXX).n g h k h h h g 9 5 Q u.c.k.2.2.v.v.B.C.c.C.c.",
"D.S.v.c.B.A.A.S.H.I.G.A.1.*.T. XXXXXXXXXXXXXXXXXXXXX@.g h h h h l g 0 5 e 8.v.c.2.5.C.A.v.x.B.C.C.C.",
"/.D.A.v.D.D.S.S.H.H.A.c.k.`.XXXXXXXXXXXXXXXXXXXXXXY.m g h h h h g 0 5 5 H v.A.n.n.G.C.c.k.c.A.C.n.F.",
"v.x.x.z.S.A.A.A.v.v.u.k.u.,.!..XXXXXXXXXXXXXXXXX).D g g k l l d 9 5 5 2 R v.n.c.A.A.B.u.k.A.C.c.C.A.",
"B.v.A.D.G.S.S.v.n.n.l.v.u.U %.R.]. X.XXXXXXX.XK.C g g g f d 0 5 5 6 1 J R k.C.k.c.l.5.v.H.H.H.F.I.S.",
"A.c.v.A.S.v.l.k.l.n.n.z.z.E > :.i.R.Q.^.`.J.) j f d a q 9 8 5 5 3 F R Y E k.v.k.v.A.S.H.G.F.F.C.C.v.",
"k.x.v.x.l.e.k.3.l.A.M.n.n.e.:.R T ;.W ~ c 6 8 8 8 8 5 5 6 w 3 F u E E -.e.v.l.v.G./.I.G.A.C.C.A.v.z.",
"k.v.n.n.v.l.u.k.A.S.A.n.z.v.n.<.E K u r F y 1 < < < y y F L K P E >.3.x.x.u.z.A./.G.S.n.k.v.F.v.v.k.",
"c.S.A.n.v.A.G.F.A.S.A.l.k.v.n.z.k.1.:.$.&.T P P P U I T &.&.:.3.C.S.n.u.5.k.F.I./.D.c.u.u.n.v.u.u.x.",
"I.A.S.S.S.S.F.C.n.A.A.c.n.n.n.A.v.u.v.v.v.k.5.u.k.v.u.c.C.A.G.I.S.c.u.u.5.S./.I.I.c.5.3.u.k.k.x.z.C.",
"I.n.n.A.A.n.l.c.A.n.v.x.C.c.c.l.c.n.A.A.A.S.v.A.G.S.n.S.F.F.G.n.u.2.3.k.C.I.S.v.v.k.k.k.k.n.S.F.A.I.",
"A.z.v.k.k.k.k.n.A.v.n.n.v.c.B.A.F.S.S.S.A.n.n.n.S.S.A.A.l.k.u.5.5.u.C.F.H.C.v.c.B.v.C.S.D.D.I.D.D.G.",
"l.u.l.l.z.k.c.k.v.S.n.l.n.A.A.A.I.G.C.v.A.A.v.v.v.v.u.k.k.e.u.u.u.A.(.G.C.C.x.x.c.A.S.G.A.A.S.l.u.k.",
"B.v.S.C.z.l.l.A.D.n.l.l.C.v.A.A.n.k.k.v.D.S.n.M.n.k.k.k.3.2.k.n.I.(.F.z.v.c.u.u.c.v.c.k.C.A.l.u.u.x.",
"F.A.A.A.A.M.S.A.A.v.v.v.c.B.C.v.v.v.n.A.A.A.S.G.M.n.l.k.c.A.S.I.G.C.C.c.c.u.x.C.A.v.C.C.F.c.k.v.G.S.",
"A.v.A.n.n.C.v.n.G.n.k.l.n.l.c.l.c.C.z.A.n.n.l.u.k.l.k.n.G.G.F.n.v.C.c.5.k.z.C.C.C.z.n.x.C.u.A.n.C.C.",
"z.v.v.v.n.C.A.n.k.k.A.S.C.v.A.C.A.A.n.C.c.u.e.k.k.k.k.n.A.S.n.A.z.u.u.x.F.F.D.G.n.n.S.F.F.A.G.C.G.C."
};
