/* XPM */
static char *fox_right_mad[] = {
/* columns rows colors chars-per-pixel */
"50 50 214 2 ",
"   c #020100",
".  c #0B0601",
"X  c #150C02",
"o  c #281604",
"O  c #33170F",
"+  c #252423",
"@  c #49250E",
"#  c #662E1E",
"$  c #633709",
"%  c #403E35",
"&  c #793624",
"*  c #7B450B",
"=  c #4D483A",
"-  c #675336",
";  c #494847",
":  c #585858",
">  c #636052",
",  c #737373",
"<  c #B32418",
"1  c #863C28",
"2  c #B83C36",
"3  c #C33623",
"4  c #975815",
"5  c #A55C0F",
"6  c #B46511",
"7  c #8F402A",
"8  c #9A452D",
"9  c #AE4E33",
"0  c #A24830",
"q  c #B9463B",
"w  c #B35135",
"e  c #BE7626",
"r  c #AA783C",
"t  c #B47833",
"y  c #CD710F",
"u  c #C46E12",
"i  c #CC7213",
"p  c #CE7618",
"a  c #D17513",
"s  c #D97A16",
"d  c #E27F15",
"f  c #D04830",
"g  c #C7593B",
"h  c #D55D3E",
"j  c #D2553E",
"k  c #C54839",
"l  c #E35E3D",
"z  c #C37621",
"x  c #E5603D",
"c  c #BB5756",
"v  c #B84B49",
"b  c #9E7F51",
"n  c #A77C46",
"m  c #B17F41",
"M  c #847E6A",
"N  c #DA6140",
"B  c #CB6053",
"V  c #E46443",
"C  c #EB6945",
"Z  c #EA6A46",
"A  c #EB714F",
"S  c #EC7756",
"D  c #C7716E",
"F  c #EC8519",
"G  c #F48916",
"H  c #FF8E16",
"J  c #FF8F18",
"K  c #F38716",
"L  c #FE911B",
"P  c #D0812C",
"I  c #FC9425",
"U  c #FA9629",
"Y  c #F9992E",
"T  c #F6942A",
"R  c #FD9C34",
"E  c #FF9F39",
"W  c #F49935",
"Q  c #ED8E26",
"!  c #FBA13F",
"~  c #99835E",
"^  c #A18357",
"/  c #8A826A",
"(  c #858471",
")  c #898673",
"_  c #8D8A76",
"`  c #8B897B",
"'  c #918E78",
"]  c #94917C",
"[  c #9F987E",
"{  c #918468",
"}  c #BC9F7C",
"|  c #D99A4F",
" . c #CB985B",
".. c #C9924E",
"X. c #ED9D45",
"o. c #F39F40",
"O. c #E19B51",
"+. c #DFA65D",
"@. c #F8A547",
"#. c #EDAB59",
"$. c #E6A456",
"%. c #FFAE57",
"&. c #FFB15F",
"*. c #DF8D7F",
"=. c #D39B62",
"-. c #EE8568",
";. c #EA8E77",
":. c #DAB47A",
">. c #DBA967",
",. c #E7AB64",
"<. c #E8B56F",
"1. c #E5B979",
"2. c #FFBB74",
"3. c #F1B26F",
"4. c #898989",
"5. c #9A9780",
"6. c #9C9983",
"7. c #9A9A9B",
"8. c #A89F8E",
"9. c #A5A18B",
"0. c #A9A28E",
"q. c #ACA895",
"w. c #B3A993",
"e. c #B6B298",
"r. c #BAB69B",
"t. c #BEBA9E",
"y. c #B3B095",
"u. c #BEBBA0",
"i. c #CC8180",
"p. c #E79280",
"a. c #D6B889",
"s. c #D9A19F",
"d. c #C2BD9F",
"f. c #CFBC94",
"g. c #D9B999",
"h. c #CFB78B",
"j. c #F2A38D",
"k. c #ECBD82",
"l. c #DDAAA8",
"z. c #C2BEA2",
"x. c #D2BCAA",
"c. c #F6BCAC",
"v. c #E4BCBC",
"b. c #F0BEB4",
"n. c #DEC08E",
"m. c #D9C499",
"M. c #E6C189",
"N. c #FFC383",
"B. c #E2CA9B",
"V. c #FFD09E",
"C. c #FFCB94",
"Z. c #C6C1A5",
"A. c #C9C5A6",
"S. c #C5C2AA",
"D. c #CAC6A9",
"F. c #CECAAC",
"G. c #CDC8A7",
"H. c #D1CDAE",
"J. c #D9C8A8",
"K. c #D6D0AE",
"L. c #CBC6B4",
"P. c #CDCAB3",
"I. c #C9C6BC",
"U. c #CDCBBC",
"Y. c #C5C2B7",
"T. c #D3CEB1",
"R. c #D8C9B8",
"E. c #D6D1B3",
"W. c #D9D5B5",
"Q. c #DDD9B7",
"!. c #D6D2B8",
"~. c #DAD6B9",
"^. c #DED9BA",
"/. c #E2D0A5",
"(. c #FFD6AB",
"). c #E1DCBC",
"_. c #E3D9B4",
"`. c #FFDFBC",
"'. c #FFDBB5",
"]. c #EBC1BC",
"[. c #CECCC4",
"{. c #CDCDCD",
"}. c #D3D2C4",
"|. c #D1D1CE",
" X c #CECFD0",
".X c #D4D4D4",
"XX c #DBDBDC",
"oX c #D8D8D7",
"OX c #E4DEC3",
"+X c #E7DEC9",
"@X c #FADCD4",
"#X c #F0DADA",
"$X c #EBD0CC",
"%X c #E5E1C3",
"&X c #E8E3C8",
"*X c #FFE6CC",
"=X c #FFE1C1",
"-X c #F3E0DF",
";X c #DFDFE1",
":X c #E0DFE1",
">X c #E2E2E4",
",X c #EBEBEC",
"<X c #E7E7E9",
"1X c #F6E9E8",
"2X c #F9EBE6",
"3X c #FFF2E4",
"4X c #FCF4ED",
"5X c #EEEFF2",
"6X c #F3F2F4",
"7X c #FCF5F4",
"8X c #FEF9F3",
"9X c #F7F8FA",
"0X c #FEFEFE",
"qX c #F6F7F8",
/* pixels */
"E.~.W.Q._.W.F.Z.D.H.W.E.E.~.F.F.H.~.F.D.D.W.D.D.Z.F.H.E.~.~.H.A.D.T.~.W.E.!.~.A.F.~.OX).^.).%XE.W.E.",
"T.H.E.W.~.E.F.A.F.K.Q.H.F.F.H.E.E.E.F.H.F.E.T.P.F.H.G.E.W.H.Z.G.T.U.I.[.|..X|.{.{.!.^.~.~.E.E.E.W.H.",
"H.H.E.^.E.W.K.H.}.%XW.E.K.W.^.^.E.E.~.H.E.W.E.H.^.H.E.~.W.P.H.~.[.XX,XqX9X0X0X9X6X<XoX|.!.~.E.E.T.E.",
"A.E.^.^.F.H.E.W.^.T.F.T.~.Q.^.E.E.E.K.H.K.H.F.G.F.F.W.^.F.Z.U.XX6X0X0X0X2X@X@X7X0X0X0X,X{.!.F.Z.A.D.",
"W.E.E.F.D.W.H.A.H.F.F.E.^.^.E.W.F.F.H.E.H.H.G.F.T.^.F.F.Z.Y.;X6X-Xv.@Xj.S A A -.c.7X0X0XqX.XL.A.F.F.",
"E.D.D.F.E.E.F.F.F.W.A.F.).W.F.F.F.H.F.F.E.~.E.E.^.^.D.A.S.XX9X$Xc v k l C Z Z C C j.7X0X0XqX.XD.P.E.",
"T.D.D.H.T.A.F.F.P.F.Z.T.W.W.E.F.Z.G.A.A.E.F.D.W.W.E.F.D.|.9X4XD c 3 3 w g C Z 9 h Z c.0X0X0X5XI.H.E.",
"Z.Z.F.E.E.T.F.Z.Z.Z.Z.A.F.H.F.F.D.Z.t.Z.Z.t.G.F.Z.Z.z.L.>X0X9X1XD < f w # 8 1 & N C -.4X0X0X0X.XP.F.",
"W.Q.Q.Q.W.K.H.Z.F.A.t.A.T.T.F.A.u.e.u.A.F.E.F.F.Z.D.H.}.5X0X0X0X*.x h @ # 8 7 O 1 C C $X0X0X0X>XU.F.",
"F.H.H.F.W.H.G.A.G.F.F.W.W.W.F.A.Z.A.T.F.A.T.T.F.A.A.Z.[.9X0X0X7X;.C V 1 0 Z V & w C C b.0X0X0X,XL.F.",
"Z.G.H.W.W.F.Z.z.A.E.F.W.^.^.H.A.P.E.F.Z.F.^.F.Z.P.Q.k.F.9X0X0X0Xp.V Z V 9 & 1 g C C V $X0X0X0X<XU.H.",
"E.Q.W.H.A.Z.Z.t.u.F.F.E.W.E.A.A.F.T.Z.Z.~.F.Z.T.J.#.I g.9X0X0X0Xl.j Z N 1 g w 7 C V B #X0X0X0X;XL.F.",
"W.H.F.A.G.A.A.Z.W.^.^.^.E.F.u.u.A.Z.A.E.T.H.H.B.X.H H <.6X0X0X0X1XD k h N Z V h j k l.0X0X0X9X|.W.^.",
"F.Z.A.Z.A.A.A.H.%XW.H.F.A.A.z.A.E.T.E.E.H.T.a.R J H H X.:X0X0X0X0X1XD v 2 2 q 2 c l.7X0X0X0X;XU.F.A.",
"Z.d.Z.d.d.D.E.E.^.E.E.Z.Z.t.A.W.^.~.^.T.P.a.Y J J J J T R.0X0X0X0X0X7X#Xv.l.l.$X1X0X0X0X0X>X}.W.F.E.",
"A.A.D.F.F.W.H.~.W.E.z.r.e.u.E.).^.W.P.f.<.R J J J J J J J.0X0X0X0X0X0X0X0X0X0X0X0X0X0X5XoX}.).H.F.F.",
"T.W.W.W.E.E.W.E.F.A.t.e.z.F.W.Q.E.m.+.T J J J J J J J I J.0X9X,X>X>X>X,X6X6X6X5X,X;X XU.F.~.E.S.A.A.",
").W.W.W.W.E.F.G.Z.u.Z.Z.^.).^.).a.W H H J J J J J J J T R.>Xg.,.$.a.U.U.I.[.[.U.U.S.S.D.F.D.A.S.F.E.",
"Q.E.T.T.H.A.t.t.u.A.E.D.~.E.H.1.I J J J J J J J J J H W x.=.Q J H T :.P.G.W.H.D.F.A.E.F.D.E.H.F.T.^.",
"H.T.F.z.+XT.t.Z.u.F.T.P.F.F.:.L J J J J J J J J J J H W X.G J J H H T :.F.G.G.E.W.E.^.E.E.W.E.H.E.E.",
"A.t.t.D.4X2XG.Z.H.~.F.T.~.B.Y H J J J J J J J J J J J J J J J J H G G Q h.^.W.E.E.^.E.H.F.H.H.F.z.z.",
"z.z.Z.+X0X0X%XE.W.E.T.%XQ.@.L L J J J J J J J J J J J J J J J J G * $ K | ~.H.E.F.A.Z.Z.F.E.H.D.A.A.",
"H.D.K.4X0X0X4XK.H.).^.W.:.I J J J J J J J J J J J J J J J J J J F o X i F h.W.T.H.F.F.H.W.E.E.E.W.F.",
"D.D.m.(.*X`.N.M.&XQ.A.Z.W H J J J J J J J J J J J J J J J J J J u X   6 K | H.Z.H.F.E.D.K.W.^.F.A.Z.",
"A.F.,.L I L H @.K.G.D.n.I L J J J J J J J J J J J J J J J J J J u . . 5 H P m.E.H.^.W.H.H.D.A.A.P.F.",
"H.T.#.H H H L L :.H.W.k.L J J J J J J J J J J J J J J J J J H L s X . 6 H s a.F.F.W.W.H.D.D.E.A.G.A.",
"F.T.#.H H L H H T 1.Q.#.H J J J J J J J J J J J J J J J J J J J G @ o d J s  .J.W.Q.W.P.F.F.F.A.D.A.",
"T.!.<.H H H H L H L ! Y J J J J J J J J J J J J J J H J J J J J J u 6 J H s e - = = ' ^.F.F.F.D.D.H.",
"^.^.B.U H H L H J J H H J J J J J J J J J J H L E ! ! U L H H H H H H J H s 4 .     + H.D.F.F.A.A.H.",
"%XE.A.>.L L L H J J J J J J J J J J J J J J L N.3X8X3X*X(.C.2.&.%.%.%.&.k.a.8.+     > E.D.H.H.H.^.~.",
"W.Z.z.G.1.T H H J J J J J J J J J J J J J H E 3X0X0X0X0X0X0X0X0X7X0X0X0X,X X X7.; ; r.H.F.W.K.H.E.W.",
"A.u.A.H.A.h.,.W R I I I J J J J J J J J H H @.4X0X0X0X0X0X0X0X0X0X{.,X0X:X{.{. X[.L.H.K.D.E.F.Z.F.H.",
"u.u.F.E.E.F.F.G.J./.J.M.Y H H J L H H H L J ! 3X0X0X0X0X0X0X0X0X0X4.4.,X.X X{.[.L.z.d.z.D.A.t.z.S.Z.",
"E.^.^.~.F.W.E.F.Q.^.E.F.$.H J J H H L H J J L `.0X0X0X0X0X0X0X0X0X,X, : , q.x.D.A.r.e.F.D.T.T.F.F.A.",
"^.E.P.A.F.E.E.W.).).Q.E.n.U H J H L H L J J H 2.0X0X0X0X0X0X0X0X0X0XXX7.` q.F.A.e.u.T.T.A.D.P.T.E.E.",
"%X^.E.F.^.^.E.W.).Q.H.F.Z. .H J H L H H J J J I '.0X0X0X0X0X0X0X9X>X{..XI.T.W.T.T.~.T.F.z.D.W.T.F.^.",
"F.A.A.A.W.E.E.E.F.F.z.Z.d.[ m H G L H L J J J H E `.0X0X0X0X0X6XXX|. X[.9.S.F.A.W.!.T.z.A.E.T.F.T.W.",
"P.F.T.^.^.W.W.F.F.H.G.F.t._ / m F K H H J J J J H R V.8X0X6X>X X{.{.[.0.] S.T.Z.D.Z.u.D.^.^.^.!.^.W.",
"E.A.F.W.W.F.A.Z.D.F.F.F.A.[ M ) ~ p a F K G G G G K F O.g.I.[.{.{.x.0.` 5.A.F.S.F.T.W.^.~.~.E.T.E.D.",
"Z.A.D.A.Z.z.Z.t.D.E.H.H.F.t.6._ / M ^ t e p a y a a y y i P  .} 0.6.5.6.z.A.A.F.).OX).).T.T.T.E.D.F.",
"z.F.H.F.D.A.Z.Z.E.Q.E.F.D.F.F.y.] ( ( M { ~ ^ r r r r r ^ ~ ~ / ] q.u.A.S.Z.A.W.).).~.H.S.F.~.A.A.Z.",
"G.Q.!.H.F.E.~.~.E.!.E.G.Z.G.H.F.Z.e.9.6.5.' ( ( ( ' ' ' ' 5.9.u.E.~.H.z.t.S.E.).OXW.A.z.z.H.F.z.Z.Z.",
").E.Q.E.!.Q.~.F.H.E.E.G.H.H.H.E.F.u.F.H.F.Z.u.u.Z.F.Z.A.K.K.^.^.E.A.z.z.t.W.%X).).A.z.z.d.Z.Z.S.F.E.",
").H.H.!.E.F.D.D.E.H.F.A.E.D.D.A.D.H.T.E.E.W.H.E.~.W.H.W.~.Q.^.H.t.r.t.A.T.).W.H.F.Z.z.Z.A.H.W.~.E.^.",
"E.G.F.Z.A.A.Z.F.E.F.H.F.D.D.P.E.W.W.W.E.E.H.H.H.E.W.E.E.A.Z.Z.t.z.z.P.W.~.E.D.A.P.F.T.E.~.Q.Q.^.W.^.",
"G.t.A.G.D.z.A.Z.F.Q.F.A.H.E.E.!.^.^.T.F.E.E.F.F.F.F.u.Z.z.z.u.z.z.W.%X^.E.T.A.S.A.E.~.~.E.E.W.A.z.Z.",
"F.D.!.E.G.A.G.E.Q.F.G.G.H.F.E.E.H.Z.Z.F.~.W.H.H.F.Z.Z.A.t.r.Z.F.^.&X^.D.A.F.Z.z.A.F.A.A.F.~.A.z.Z.A.",
"Q.!.E.E.E.E.W.E.E.F.F.F.D.F.H.H.F.F.H.W.E.E.W.).K.F.G.Z.A.E.W.%XQ.E.T.A.A.Z.Z.P.E.T.T.T.~.A.Z.F.!.E.",
"E.D.E.H.H.H.F.H.Q.F.A.A.F.A.Z.D.D.E.D.E.H.H.A.Z.A.Z.Z.H.^.~.~.H.F.H.F.t.Z.D.P.E.H.F.H.D.F.A.E.F.E.F.",
"G.F.F.F.T.P.E.H.Z.A.E.Q.E.F.E.T.E.E.F.H.D.z.d.Z.Z.z.Z.F.H.Q.H.E.D.z.z.A.E.^.W.~.H.H.E.W.~.E.^.H.^.E."
};
