/* XPM */
static char *fox_down_mad[] = {
/* columns rows colors chars-per-pixel */
"50 50 212 2 ",
"   c #000000",
".  c #0C0701",
"X  c #160D02",
"o  c #241403",
"O  c #361C08",
"+  c #32302E",
"@  c #553008",
"#  c #5D3409",
"$  c #482015",
"%  c #693B0A",
"&  c #662E1E",
"*  c #793624",
"=  c #76420B",
"-  c #6C6C6C",
";  c #7A7A7A",
":  c #B32418",
">  c #863C28",
",  c #B83C36",
"<  c #C33623",
"1  c #9F590F",
"2  c #A55C0F",
"3  c #A65E12",
"4  c #B86711",
"5  c #BD6A11",
"6  c #8F402A",
"7  c #9A452D",
"8  c #AE4E33",
"9  c #A24830",
"0  c #B9463B",
"q  c #B35135",
"w  c #BC782C",
"e  c #B77C38",
"r  c #AD793A",
"t  c #CC710F",
"y  c #CE7413",
"u  c #D47713",
"i  c #DE7C14",
"p  c #D27A1B",
"a  c #E27F15",
"s  c #D04830",
"d  c #C7593B",
"f  c #D55D3E",
"g  c #D2553E",
"h  c #C54839",
"j  c #E35E3D",
"k  c #C57926",
"l  c #C47E31",
"z  c #E5603D",
"x  c #BB5756",
"c  c #B84B49",
"v  c #97784D",
"b  c #927B57",
"n  c #A67B44",
"m  c #8D7E61",
"M  c #DA6140",
"N  c #CB6053",
"B  c #E46443",
"V  c #EB6945",
"C  c #EA6A46",
"Z  c #EB714F",
"A  c #EC7756",
"S  c #C7716E",
"D  c #E58015",
"F  c #ED8515",
"G  c #F58916",
"H  c #FF8E16",
"J  c #F48918",
"K  c #FF8F18",
"L  c #F08614",
"P  c #FE911A",
"I  c #CB8334",
"U  c #CA8337",
"Y  c #D78C38",
"T  c #E78C29",
"R  c #FB9323",
"E  c #F9972A",
"W  c #FD9C33",
"Q  c #F39B39",
"!  c #F49935",
"~  c #EE9A3B",
"^  c #9A825B",
"/  c #A48456",
"(  c #83806E",
")  c #8D836A",
"_  c #918568",
"`  c #898773",
"'  c #8D8975",
"]  c #898774",
"[  c #95927D",
"{  c #B59A6E",
"}  c #CD9457",
"|  c #D18F45",
" . c #EA9D4D",
".. c #F19E45",
"X. c #FFA444",
"o. c #F3A54A",
"O. c #F9A446",
"+. c #E6A458",
"@. c #E9A959",
"#. c #F2AB57",
"$. c #FFB15D",
"%. c #E9A34F",
"&. c #CE9C68",
"*. c #DF8D7F",
"=. c #EE8568",
"-. c #EA8E77",
";. c #CFA367",
":. c #DAA566",
">. c #D7B177",
",. c #D5AD73",
"<. c #E5A665",
"1. c #E5AE65",
"2. c #E9B36E",
"3. c #FCB465",
"4. c #E2AC74",
"5. c #EAB874",
"6. c #FEBE7B",
"7. c #FFBB72",
"8. c #FFC07E",
"9. c #9B9883",
"0. c #9A9A9A",
"q. c #A09D86",
"w. c #A4A18A",
"e. c #A9A58C",
"r. c #B1AE94",
"t. c #B5B196",
"y. c #BAB69B",
"u. c #BEBA9E",
"i. c #B8B296",
"p. c #ABA890",
"a. c #BEBBA0",
"s. c #AEAEAE",
"d. c #CC8180",
"f. c #E79280",
"g. c #D8B986",
"h. c #C1BC9F",
"j. c #CBBE98",
"k. c #CFAC90",
"l. c #F2A38D",
"z. c #E1BB83",
"x. c #DDAAA8",
"c. c #C2BEA2",
"v. c #D6BEA6",
"b. c #F6BCAC",
"n. c #E4BCBC",
"m. c #F0BEB4",
"M. c #CEC19C",
"N. c #D8C499",
"B. c #E4C18A",
"V. c #E7C083",
"C. c #FFC280",
"Z. c #FFC689",
"A. c #FFC98E",
"S. c #E8C995",
"D. c #C6C1A5",
"F. c #C9C5A6",
"G. c #C6C2A9",
"H. c #CAC6A9",
"J. c #CECAAC",
"K. c #CDC8A7",
"L. c #D2C6A3",
"P. c #D1CDAE",
"I. c #DBC8A7",
"U. c #D9D1AE",
"Y. c #CDCAB3",
"T. c #CCCABC",
"R. c #C7C5B8",
"E. c #D2CEB1",
"W. c #D7C9B8",
"Q. c #D6D1B3",
"!. c #D9D5B5",
"~. c #DDD8B7",
"^. c #D6D2B8",
"/. c #DBD6B9",
"(. c #DED9BA",
"). c #E1DCBC",
"_. c #EBD9BD",
"`. c #ECCCAE",
"'. c #CDCCC5",
"]. c #CAC9C7",
"[. c #D3D2C4",
"{. c #D2D1CE",
"}. c #DBD3CA",
"|. c #D6D6D5",
" X c #D9D9D8",
".X c #D6CCC1",
"XX c #E3DFC1",
"oX c #EADDC8",
"OX c #F5DBD7",
"+X c #EBD0CB",
"@X c #E5E1C2",
"#X c #EAE4C7",
"$X c #FFE7CC",
"%X c #FFE8CF",
"&X c #EAE1D8",
"*X c #FFEEDC",
"=X c #F4E4DB",
"-X c #F8F0DF",
";X c #DFDFE1",
":X c #E2E2E3",
">X c #EBEBED",
",X c #E8E7E7",
"<X c #F8E9E7",
"1X c #FDF4EC",
"2X c #FDF1E3",
"3X c #EFEFF1",
"4X c #F3F3F5",
"5X c #FCF5F4",
"6X c #FFFBF6",
"7X c #F7F7F8",
"8X c #F7F8F9",
"9X c #FEFEFE",
/* pixels */
"Q./.!.~.).!.P.M.H.E.!.Q.Q.Q.J.J.E.!.J.H.J.Q.J.G.D.J.E.Q.!.Q.P.K.H.!.!.!.!.^./.G.J./.).).(.).XX!.Q.E.",
"E.P.Q.!.!.P.J.G.H.E./.E.J.P.E.Q.E.Q.J.E.J.E.E.E.P.E.J.E.!.Q.D.K.J.W.R.'.{.|.{.{.'.[.(././.^.Q.Q.!.P.",
"J.J.!.).Q.Q.Q.J.).XX!.Q.Q.Q.).(.Q.Q./.E.Q.Q.Q.Q./.P.Q.~.~.J.P.^.'. X>X4X8X9X9X8X4X,X X{.^./.E.Q.E.Q.",
"H.!.~./.J.E.Q.!.(.E.J.E./.~.(.U.Q.Q.Q.J.Q.P.K.K.J.J.Q.(.J.D.'. X4X9X9X9X<XOXOX1X9X9X6X>X{.^.J.D.H.J.",
"!.E.E.J.J.~.E.G.E.J.H.Q.).(.Q.!.J.J.P.E.Q.P.H.J.Q.(.J.J.c.R.;X4XOXn.OXl.A Z Z =.b.5X9X9X7X|.Y.D.P.J.",
"Q.H.J.P.Q.E.J.J.J.Q.K.J.(.Q.J.P.K.P.J.J.Q.Q.Q.Q.(.(.H.F.G. X9X+Xx c h j C C C C C l.5X9X9X7X{.Y.P.E.",
"P.J.J.P.P.F.J.J.E.J.D.P./.Q.Q.K.F.F.G.K.Q.J.K.Q.!.Q.J.H.{.8X3XS x , < 0 d C C q M C b.9X9X9X3XR.Y.Q.",
"D.c.K.E.!.E.J.D.G.c.D.F.P.E.J.J.K.D.u.D.D.h.K.J.D.D.u.R.:X9X9X<XS : s q & 9 > * M C =.<X9X9X9X|.Y.J.",
"!.~.~.~.Q.U.Q.D.J.F.h.D.E.P.P.K.u.y.h.G.J.E.J.J.D.H.P.[.3X9X9X9Xf.j f $ & 9 > O > V V +X9X9X9X,XE.J.",
"P.P.P.J.Q.P.K.F.K.J.J.^.!./.J.D.c.F.P.J.G.Q.Q.J.G.F.D.'.8X9X9X5X-.C B * 9 C M * q V V m.9X9X9X>XR.J.",
"D.H.E.!.Q.P.c.c.F.E.P.Q.~.~.P.F.Y.Q.J.D.J./.H.D.P.~.E.'.8X9X9X9Xf.B C C 8 * > d V V M +X9X9X9X,X'.E.",
"Q.~.U.P.J.D.D.h.M.P.K.N.U.E.F.G.J.P.D.F.!.E.D.J.!.J.D.].8X9X9X9Xx.g C f > d q 7 V V N OX9X9X9X;XY.H.",
"~.J.K.F.K.H.G.D.^.(.U.O.E o.:.>.M.D.G.Q.E.U.P.!.E.G.J.R.3X9X9X9X<XS h f M B B f g h x.8X9X9X8X{.E./.",
"J.D.G.G.F.G.F.P.XXQ.Q.@.H H P P E %.g.U.P.P.E.Q.c.E.E.Y.:X9X9X9X9X=XS c 0 0 0 , x x.5X9X9X9X;XT.J.H.",
"D.M.a.a.M.H.Q.Q.(.Q.Q.,.P H H H H H P O.z.N.z.4.@.1.2.g.{.9X9X9X9X9X7XOXn.x.x.+X<X9X9X9X9X:X[./.P.E.",
"F.F.J.J.J.Q.P.!./.E.c.j.E H H P P P H H P R P K H H H R I.9X9X9X9X9X9X9X9X8X9X9X9X9X9X3X X[.).P.P.H.",
"Q.!.!.!.Q.Q.Q.Q.J.D.u.i.~ H H P H P H P H H P H P H K R W.9X7X,X&X:X,X>X4X4X4X4X,X;X{.].Y.!.Q.H.H.H.",
").Q.!.!./.Q.J.K.D.c.D.F.@.H P H P H P H P H H P H P K E W.:Xv.<. . .+.<.4.v.'.T.T.G.D.H.P.H.G.c.J.E.",
"~.Q.Q.E.J.D.h.u.c.G.Q.G.B.P H P H P H P H P H P P H H ! v.<.R H H H H H P B.E.H.H.K.E.!.J.E.P.J.E./.",
"P.E.J.u.t.h.u.G.M.J.P.Q.K.~ H P P H P H P H P H H P H ! ..K H H P H P H Q M.H.Q.!.E.).1X#X!.Q.P.Q.Q.",
"F.y.h.h.F.K.D.c.J.Q.J.E.~.3.H H H P P H L 5 L P K K K F 5 F K K P H P H +.~.!.E.E.).2X9X1X!.P.H.D.c.",
"h.D.D.D.K.H.K.Q.^.Q.E.XX`.Q H H P H H P 1 . 2 P K K P 2 . 1 K K H P H H Y I.Q.Q.L.).5X9X9X#XP.F.H.F.",
"H.K.P.E.E.J.E.J.P.).).!.1.K H P H K K K #   % P K K K %   % K K P H H H D ;./.Q.P._.9X9X9X*XQ.!.!.P.",
"H.K.P.J.D.h.G.Q.#X(.G.M.Q H K H P H K K @   # P K K K #   @ K K H P H H L Y K.G.L.o.$.6.7.O.S.Y.H.c.",
"K.J.H.K.H.P./.).!.F.G.B.R P H P H P H P @   # H K K P #   @ P H K K K H G p g.^.N.R H H H H >.F.J.J.",
"J.E.Q.~.~.Q.E.E.J.J.!.5.H P P H P H P H %   = P P P P =   % P P K H K P H u ,.J.1.H H P H H 5.H.F.H.",
"J.E.!.(.P.G.E.J.E.!.(.@.H H P H H K H P t O 5 a i i a 5 O 5 H P H H K P H u | %.P H P H H P g.F.K.D.",
"E.Q.~./.J.Q.!.E.).)./.#.H P H H H H H H G i 4 o X X o 4 i G H H H H H P H y a P H P H H H o.M.J.H.E.",
"/.(./.J.D.Q.Q.!.(.Q.Q.#.H P X.C.Z.8.3.X.W E 3         3 R W X.$.8.Z.C.X.J u i H P P H H E g.J.G.F.P.",
"@XQ.K.u.J.(.!.J.Q.J.E.#.H X.2X9X9X9X6X1X*X$XL.+     + v.$X*X1X6X9X9X9X*X..y D P H H H Q g.P.E.Y.)./.",
"Q.D.c.H./.J.D.c.Q.P.!.2.H 6.9X9X9X9X9X9X9X9X9X].; ; ].9X9X9X9X9X9X9X9X9X4.t F H P W 1.N.J.Q.E.P.Q.!.",
"H.h.G.E.K.h.G.J.!.!./.S.P 8.9X9X9X9X9X9X9X&X0.7X8X7X8X0.:X9X9X9X9X9X9X8X:.y %.5.B.N.J.Q.P.P.J.D.J.P.",
"u.u.J.Q.E.J.J.J.Q.(.).U.! $.6X9X9X9X9X9X9X>X- ; s.s.; - >X9X9X9X9X9X9X,X| I L.E.J.D.u.c.H.D.h.D.H.c.",
"Q.(.)./.P.!.E.E./.(.P.J.1.E %X9X9X9X9X9X9X9X,Xs.9.; s.>X9X9X9X9X9X9X4Xv.k ;.F.F.D.y.y.J.J.P.E.H.J.H.",
").Q.J.H.J.Q.Q./.).).~.Q.N.Q 7.6X9X9X9X9X9X9X9X9X9X9X8X8X9X9X9X9X9X8X|.} U M.J.H.y.a.E.E.H.H.J.E.Q.Q.",
"@X/.Q.J./.).Q.Q.).~.E.J.D.{ T A.6X9X9X9X9X9X9X9X9X9X9X9X9X9X9X9X4X|.&.y { J.!.P.Y./.Q.H.G.H.!.E.J.!.",
"J.H.K.F.Q.Q.!.Q.J.J.D.D.u.[ / T 7.2X9X9X9X9X9X9X9X9X9X9X9X9X8X,XT.} k v ` G.P.H.Q.!.E.c.c.Q.E.J.P.!.",
"Y.J.E./.(./.Q.J.J.E.F.J.a.' ( ^ I ..`.2X9X9X9X6X9X9X6X7X4X,X'.,.| w _ m [ H.P.D.H.D.a.H.(.(.(.^.).!.",
"E.H.J.Q.Q.P.D.D.F.P.J.K.G.e.( ] _ / l Y 4.`.oX&X&X&X}.W.k.&.I w v ) ' ' w.H.J.G.J.E.!.)././.Q.E.Q.H.",
"G.F.H.H.F.h.M.a.F.Q.E.E.J.D.r.9.) ; ) v r e l I U U l l e e / ) m [ 9.a.H.H.H.H./.@X/.).Q.E.E.Q.H.K.",
"D.J.P.J.H.G.D.D.Q.~.Q.P.F.J.Q.F.e.[ ] ( ] ' ) b b b ^ ) ` ] ' ' e.c.Q.P.D.G.H.Q.@X).!.J.D.J./.H.J.D.",
"F.!.!.P.J.Q./.!.Q.Q.Q.F.D.K.E.J.F.c.y.t.t.e.9.[ [ 9.9.w.e.t.a.Q.XX).P.c.y.D.Q.).@X!.H.c.c.P.J.c.c.D.",
").Q.~.!.Q.~.~.P.P.Q.Q.F.E.E.P.Q.J.D.J.J.J.H.H.J.Q.~.P.Q.(.(.(.).Q.H.c.c.c.!.@X).).H.c.c.c.D.D.G.P.Q.",
"(.E.J.Q.Q.E.F.F.Q.E.J.G.E.F.F.F.H.J.Q.Q.!.!.J.Q.~.Q.P.Q.!.~./.Y.c.y.y.F.E.).!.P.H.D.D.D.F.P.!./.!./.",
"Q.F.K.D.F.G.D.E.Q.F.E.E.J.H.P.Q.!.Q.~.!.E.E.P.Q.!.!.Q.Q.D.D.D.a.a.c.E./.(.E.J.F.Y.J.E.Q.!.~./.)././.",
"F.D.F.F.F.D.F.D.J.~.J.H.P.E.Q.!.(.(.Q.H.Q.Q.J.F.J.J.c.D.c.M.c.c.c.!.@X/.Q.E.G.F.H.Q./.!.Q.Q.!.F.c.c.",
"J.H.~.E.F.F.K.Q.~.J.F.F.E.J.Q.E.E.D.D.J.~.Q.J.E.P.D.D.D.u.y.G.J.(.#X/.H.H.H.c.c.F.J.H.F.J.!.F.c.c.H.",
"/.Q.Q.^.Q.E.~.Q.Q.J.J.J.F.J.E.P.J.F.E.~.Q.Q.~.~.Q.J.F.D.F.E.~.).).E.E.H.H.D.G.E.Q.J.E.E./.H.D.J./.Q.",
"Q.H.!.E.J.Q.J.J.~.J.G.F.J.F.G.F.F.Q.F.Q.E.P.F.M.D.D.D.P.(.~.~.J.F.E.H.a.D.J.P.Q.E.J.P.H.Y.F.Q.P.E.P.",
"K.J.J.J.E.J.Q.Q.D.D.E.~.Q.J.Q.E.Q.Q.P.E.F.D.u.D.G.c.G.J.E.!.E.Q.H.c.c.F.Q./.!.!.P.P.!.Q.!.Q./.E./.Q."
};
