/* XPM */
static char *fox_left_mad[] = {
/* columns rows colors chars-per-pixel */
"50 50 212 2 ",
"   c #010100",
".  c #0A0501",
"X  c #0E0801",
"o  c #170D02",
"O  c #341A0A",
"+  c #3B2105",
"@  c #262525",
"#  c #482015",
"$  c #703F0A",
"%  c #662E1E",
"&  c #6D3D0A",
"*  c #793624",
"=  c #504939",
"-  c #6A563A",
";  c #4E4C40",
":  c #504E42",
">  c #515151",
",  c #68645B",
"<  c #6B6B6B",
"1  c #B32418",
"2  c #863C28",
"3  c #B83C36",
"4  c #C33623",
"5  c #B86914",
"6  c #8F402A",
"7  c #9A452D",
"8  c #AE4E33",
"9  c #A24830",
"0  c #B9463B",
"q  c #B35135",
"w  c #AA793D",
"e  c #A97638",
"r  c #B9782E",
"t  c #C46E12",
"y  c #CD7313",
"u  c #CB761A",
"i  c #D27512",
"p  c #D77814",
"a  c #DC7B14",
"s  c #E27E14",
"d  c #D04830",
"f  c #C7593B",
"g  c #D55D3E",
"h  c #D2553E",
"j  c #C54839",
"k  c #E35E3D",
"l  c #C87921",
"z  c #D17C21",
"x  c #E5603D",
"c  c #BB5756",
"v  c #B84B49",
"b  c #9E7F53",
"n  c #8E7A59",
"m  c #A87D46",
"M  c #857F69",
"N  c #DA6140",
"B  c #CB6053",
"V  c #E46443",
"C  c #EB6945",
"Z  c #EA6A46",
"A  c #EB714F",
"S  c #EC7756",
"D  c #C7716E",
"F  c #DF8019",
"G  c #EB8416",
"H  c #E78216",
"J  c #F18717",
"K  c #F68916",
"L  c #FE8E16",
"P  c #FF8F18",
"I  c #F48C1C",
"U  c #FF9017",
"Y  c #FE911B",
"T  c #DC882B",
"R  c #CC8131",
"E  c #E78A24",
"W  c #F38E20",
"Q  c #FC9424",
"!  c #FD9729",
"~  c #F9982D",
"^  c #F6942B",
"/  c #FB9B31",
"(  c #FF9F38",
")  c #F49936",
"_  c #EF9837",
"`  c #FFA13D",
"'  c #9D8258",
"]  c #BF9053",
"[  c #A9804B",
"{  c #89826A",
"}  c #87836F",
"|  c #868572",
" . c #8E8B76",
".. c #8C8A77",
"X. c #928E79",
"o. c #928C74",
"O. c #94927D",
"+. c #918467",
"@. c #BC9F7C",
"#. c #D59446",
"$. c #CB9759",
"%. c #CF9349",
"&. c #EB9E4D",
"*. c #EBA24B",
"=. c #F9A548",
"-. c #EAA959",
";. c #FBAB57",
":. c #FFB15F",
">. c #DF8D7F",
",. c #EE8568",
"<. c #EA8E77",
"1. c #DEAB67",
"2. c #D1AD78",
"3. c #DBB479",
"4. c #EBB36B",
"5. c #E5B36E",
"6. c #FFBD78",
"7. c #ECAE6A",
"8. c #FEC07E",
"9. c #898989",
"0. c #9D9A83",
"q. c #9D9885",
"w. c #989794",
"e. c #A39D89",
"r. c #A7A48D",
"t. c #B6B399",
"y. c #BAB69B",
"u. c #BEBA9E",
"i. c #B7B297",
"p. c #B3AC95",
"a. c #BFBBA0",
"s. c #B6B6B6",
"d. c #CC8180",
"f. c #E79280",
"g. c #CEB687",
"h. c #D7B887",
"j. c #C1BC9F",
"k. c #C8BB96",
"l. c #D2BF95",
"z. c #D9A19F",
"x. c #F2A38D",
"c. c #E4BC82",
"v. c #DDAAA8",
"b. c #C2BEA2",
"n. c #D7BDA5",
"m. c #C4BFB6",
"M. c #F6BCAC",
"N. c #E4BCBC",
"B. c #F0BEB4",
"V. c #D9C59A",
"C. c #E7C287",
"Z. c #FFC78C",
"A. c #F1CB98",
"S. c #C6C1A5",
"D. c #C9C5A6",
"F. c #C5C2AA",
"G. c #CAC6A9",
"H. c #CECAAC",
"J. c #CDC8A7",
"K. c #D1CDAE",
"L. c #D9C7A5",
"P. c #D7D1AF",
"I. c #CECBB2",
"U. c #C8C7BB",
"Y. c #CDCBBC",
"T. c #C7C4B5",
"R. c #D3CEB1",
"E. c #D9CAB8",
"W. c #D6D1B3",
"Q. c #D9D5B5",
"!. c #DDD8B7",
"~. c #D6D2B8",
"^. c #DBD6B9",
"/. c #DED9BA",
"(. c #FFD7AC",
"). c #FFD5A7",
"_. c #E1DCBC",
"`. c #FFDDB9",
"'. c #EEC8B2",
"]. c #CECCC5",
"[. c #CCCCCA",
"{. c #C0C0C0",
"}. c #D3D2C4",
"|. c #D1D1CE",
" X c #DED6C0",
".X c #D6D6D5",
"XX c #DBDAD9",
"oX c #E3DFC1",
"OX c #E2DFDC",
"+X c #F5DBD7",
"@X c #EDCBC8",
"#X c #E5E1C3",
"$X c #E9E5C5",
"%X c #FFE4C8",
"&X c #ECE3D6",
"*X c #F1E9D6",
"=X c #F3E0DF",
"-X c #DFDFE1",
";X c #E2E2E4",
":X c #EAEAEC",
">X c #E7E7E9",
",X c #F8EAE6",
"<X c #FFF3E6",
"1X c #FDF4EC",
"2X c #F6F0E7",
"3X c #EFEFF1",
"4X c #F2F2F4",
"5X c #FCF5F3",
"6X c #FEF8F3",
"7X c #F7F7F8",
"8X c #F7F8F9",
"9X c #FFFEFE",
/* pixels */
"W.^.Q.!._.Q.K.S.G.R.Q.W.R.Q.H.H.K.Q.K.G.H.W.H.G.b.H.R.P.^.Q.K.D.J.W.^.W.^.~.^.G.G.^._._._._.oXQ.W.W.",
"R.K.W.Q.Q.K.K.D.H.R.^.R.H.H.K.W.W.W.H.K.H.R.I.R.H.W.H.R.Q.R.S.J.K.Y.U.].|..X|.].[.}./.^.^.W.W.R.W.R.",
"H.H.Q._.W.W.P.H./.#XQ.Q.W.Q././.Q.K.Q.W.W.W.W.P.^.R.W.Q.^.I.K.^.[.XX>X7X8X9X9X9X4X>XXX}.~./.R.W.R.W.",
"G.Q.!.^.H.W.K.Q.!.R.H.K.Q././.W.W.W.W.H.P.K.H.J.H.H.Q./.H.b.].XX4X9X9X6X,X+X+X1X9X9X9X:X[.~.H.D.J.H.",
"W.R.R.H.H.Q.K.G.H.H.G.W./.!.W.Q.H.H.K.P.W.K.D.H.K./.H.H.b.T.-X4X+XN.+Xx.S A A ,.M.5X9X9X7X.XT.G.I.H.",
"W.H.G.K.W.P.H.H.H.Q.G.I._.Q.H.K.K.H.H.H.Q.W.W.W././.H.D.F.-X8X@Xc v j k Z Z Z C Z x.5X9X9X7X|.G.R.R.",
"W.G.G.K.R.D.G.H.R.H.S.H.Q.Q.W.H.S.D.S.G.W.H.D.Q.Q.W.H.G.|.7X4XD c 3 4 q f Z Z 8 g Z M.9X9X9X3XU.K.R.",
"S.b.H.W.W.W.H.S.S.S.S.G.K.K.H.G.H.S.u.S.S.j.G.H.S.S.u.T.;X9X9X,XD 1 d q % 9 2 * N Z ,.1X9X9X9X.XI.H.",
"Q.!._.!.Q.P.P.S.H.D.u.S.R.R.H.G.a.t.a.G.H.W.I.H.S.G.H.}.3X9X9X9X<.x g # % 7 6 O 2 C A @X9X9X9X>XY.H.",
"K.K.H.J.Q.K.D.D.D.K.H.Q.Q.!.H.F.b.G.R.H.S.V.V.I.G.G.S.].7X9X9X5X<.C V 2 9 Z V * q C C B.9X9X9X:XU.K.",
"S.H.P.W.Q.H.b.S.D.W.H.Q.!./.K.D.I.W.H.S.H.C.~ 1.J.^.K.[.8X9X9X9X>.V Z V 8 * 2 f C C N @X9X9X9X>XY.K.",
"P.!.Q.K.D.S.S.u.S.H.H.W.Q.W.D.S.H.I.S.G./.5.P Y -.V.G.].8X9X9X9Xv.h Z g 2 f q 6 C V B +X9X9X9X-XT.J.",
"Q.K.H.D.D.G.G.S.Q.!.!./.W.H.a.b.D.S.S.P.W.-.L P P _ h.U.3X9X9X9X,XD j g k V V h h j v.9X9X9X7X|.W.^.",
"H.S.D.S.D.D.D.K. XQ.K.H.D.S.S.S.W.W.W.Q.L.*.L U P P / h.;X9X9X9X9X=XD c 0 3 0 v c v.5X9X9X9X-XY.H.G.",
"S.S.S.j.S.D.W.W./.Q.W.S.S.u.G.Q./.Q.!.R.L.) P P P P P ) }.9X9X9X9X9X7X+XN.v.v.@X,X9X9X9X9X;X}.Q.K.R.",
"S.D.D.H.J.Q.K.Q.!.K.S.y.y.a.R._./.Q.K.S.5.Q P P P P P P L.9X9X9X9X9X9X9X9X9X9X9X9X9X9X3X.X}.oXR.K.J.",
"W.Q.Q.Q.W.W.Q.W.H.S.u.t.b.H.Q.!.P.V.1._ P P P P P P P Q E.9X7X>X;X;X>X:X4X4X4X4X:X-X.XU.T._.P.H.G.G.",
"/.Q.Q.Q.Q.P.H.S.S.a.S.S.!.#X^._.h.) U U P P P P P P P ^ E.-Xn.7.&.h.U.].U.].].Y.Y.b.F.G.H.G.b.b.H.R.",
"!.W.W.K.H.S.u.S.b.S.W.G.^.W.W.c.^ L L U P P P P P P P ) n.1.W L L Q 3.H.D.Q.K.G.H.G.R.H.H.P.R.J.R.^.",
"K.W.K.u.i.u.u.S.S.H.R.I.H.H.3.! U U L L P P P P P P P ) &.P L L U L I 2.H.H.D.W.W.W./.W._.*XW.K.W.W.",
"S.y.y.u.D.D.S.S.H.Q.H.I.Q.V.~ K K U P P P P P P P P P P L L P P P P P E g.Q.Q.W.W./.Q.W.2X6X_.G.S.b.",
"S.S.D.D.D.G.H.W.Q.W.K.#X_.-.L $ $ K U P P P P P P P P P L P P P P P P K #.Q.R.W.K.G.b. X9X9X*XJ.D.D.",
"H.J.H.K.K.H.K.H.W._._.Q.3.Q a o o p U U P P P P P P P P P P P P P P P P H 2.Q.R.K.H.K.2X9X9X1X^.Q.K.",
"G.D.K.K.S.S.S.W.$X!.D.S.*.U y . . t U U P P P P P P P P P P P P P P P U G %.K.F.H.H.c.8.`.%X(.V.G.b.",
"D.H.G.G.H.K.Q._.Q.S.D.V.~ U y . . t U P P P P P P P P P P P P P P P P P K z l.W.W.^.=.L Y Q P -.R.H.",
"H.W.W.!.Q.Q.W.K.K.K.Q.C.U U y X X y U P P P P P P P P P P P P P P P P U K i 3.H.R.c.Q P P P P *.D.D.",
"H.K.Q./.K.S.K.H.K.W.Q.7.U U H O + G P P P P P P P P P P P P P P P P P P P i $.K.c./ P P P P L *.G.S.",
"W.W.!.Q.H.W.Q.O.= = - T U U P 5 5 U U P P P L L L L P P P P P P P P P P P i T =.Q L P P P P P -.J.R.",
"Q./.Q.H.S.W.W.:       5 Y U L L L L L L U Y ! ` =.( P L P P P P P P P P K i a L L P P P Y U Q g.G.K.",
"#XW.G.u.H./.Q.,     @ E.(.Z.:.:.;.:.;.6.Z.(.%X1X1X<XZ.P P P P P P P P U K y a L L U P P U Y 4.R./.^.",
"Q.S.a.H.Q.H.S.i., > s.9X9X9X9X9X6X6X9X9X9X9X9X9X9X9X<X=.L P P P P P U U H y H L L K L L ! 4.K.K.W.Q.",
"G.a.S.W.D.S.S.H.&X7X9X9X9X9X9X3X[.9X9X9X9X9X9X9X9X9X5X=.L P P P P P U K a y E ! Q ^ =.-.h.K.K.b.K.K.",
"u.a.H.W.W.G.G.H.^.*X1X9X9X9X8X9.9.9X9X9X9X9X9X9X9X9X1X=.L P P P P P P G y u g.V.l.k.j.b.G.b.b.b.G.b.",
"Q.^./.!.H.Q.W.K.Q.!.Q.^.T.9.< < >X9X9X9X9X9X9X9X9X9X%XQ P P P P P P K a y %.b.J.S.u.y.H.J.R.R.H.H.G.",
"^.W.I.G.I.W.W.Q._._.!.W.u.w.{.7X9X9X9X9X9X9X9X9X9X9X6.L P P P Y P P a y z g.H.G.y.a.R.R.G.G.I.R.R.W.",
"$X!.W.H.!.!.Q.Q._./.K.H.D.&X9X9X9X9X9X9X9X9X9X9X9X`.! L P P P U K s y y ] H.W.K.R.^.R.G.b.J.W.R.K.^.",
"H.G.G.D.Q.W.W.P.H.H.S.b.b.p.OX4X9X9X9X9X9X9X9X9X%X` L L L U U J a y y e o.J.K.G.W.W.K.b.F.R.R.H.R.~.",
"H.H.I.!./.Q.Q.H.H.R.G.J.b.o.e.].;X4X8X9X9X9X1X).~ L U L K J a y y u w M o.D.R.S.G.S.j.H._././.~._.W.",
"W.G.H.W.Q.H.S.S.G.K.K.J.D.0.M e.T.[..XXX&X'.;.I K J G s a y y y r ' o. .O.S.H.F.H.R.W.oX^.^.W.R.R.H.",
"S.G.G.G.S.S.S.u.G.R.K.K.H.j.q...o.r.@.$.R i y i i i y y u l r b M X.O.e.j.J.G.J._.#X^._.W.R.R.W.J.H.",
"S.H.R.H.G.S.S.S.W.^.R.K.J.H.K.p.O.} { n ' m w e e e m [ ' +.| | O.r.u.G.G.b.J.W.oX_.~.K.S.K.~.H.J.S.",
"G.Q.W.K.H.W.^.Q.W.W.W.D.S.H.K.K.S.t.r.0.0. .| | |  . .X.O.q.r.a.R.W.K.b.a.G.W._.oXW.G.b.b.K.J.b.S.b.",
"_.W.Q.Q.Q.Q.!.I.K.W.W.G.K.K.K.W.G.S.H.H.G.b.a.S.S.H.S.S.I.Q.!./.~.J.b.b.a.W.#X_._.G.b.b.j.D.b.G.H.W.",
"_.K.K.W.Q.K.D.G.W.K.K.D.K.G.G.D.G.H.W.W.Q.Q.K.K.!.Q.K.W.Q.^.!.H.b.u.y.G.R._.W.K.H.D.b.S.D.R.~.~.W._.",
"W.D.G.S.S.S.S.K.P.H.K.W.H.G.I.W.~.Q.Q.Q.W.K.K.K.Q.~.W.W.S.S.S.u.a.b.R.~./.R.H.G.R.H.R.W.^._.^._.^.^.",
"D.S.D.D.H.S.D.S.H.Q.H.D.K.W.W.Q././.W.H.W.W.H.H.H.H.S.S.S.S.a.S.b.W.#X^.~.R.F.S.G.W.^.~.W.W.W.D.b.S.",
"H.H.Q.W.D.D.D.Q.!.H.D.D.K.H.W.P.K.S.S.H.!.Q.K.K.K.S.S.S.u.y.S.H._.#X/.H.G.G.b.b.G.H.J.D.K.W.D.j.b.G.",
"~.W.W.Q.W.P.Q.W.W.H.H.H.G.I.R.H.H.H.K.W.W.Q.Q./.P.H.S.S.G.W.Q._._.R.R.G.G.b.G.R.R.H.R.R.^.J.b.K.^.W.",
"W.G.Q.K.K.I.H.K.!.K.S.D.K.D.S.D.G.W.G.W.K.K.D.S.S.S.S.K./.!.Q.K.G.R.G.a.b.H.K.R.R.J.K.H.R.b.W.K.R.K.",
"J.H.H.H.H.W.W.K.S.S.W.Q.W.H.W.W.W.W.H.K.G.S.u.S.S.S.S.H.W.Q.K.W.G.b.b.D.W./.^.^.K.K.W.~.^.W.^.R.^.R."
};
