/* XPM */
static char *fox_right[] = {
/* columns rows colors chars-per-pixel */
"50 50 185 2 ",
"   c #020100",
".  c #0B0601",
"X  c #150C02",
"o  c #281604",
"O  c #252423",
"+  c #492907",
"@  c #633709",
"#  c #403E35",
"$  c #7B450B",
"%  c #4D483A",
"&  c #675336",
"*  c #494847",
"=  c #585858",
"-  c #636052",
";  c #737373",
":  c #975815",
">  c #A55C0F",
",  c #B46511",
"<  c #BF7929",
"1  c #BD7322",
"2  c #A9763A",
"3  c #AB7A3D",
"4  c #B47833",
"5  c #CD710F",
"6  c #C46E12",
"7  c #CC7213",
"8  c #CE7618",
"9  c #D17513",
"0  c #D67A17",
"q  c #DA7A14",
"w  c #DE7F1A",
"e  c #E27F15",
"r  c #C37621",
"t  c #9E7F51",
"y  c #A77C46",
"u  c #B17F41",
"i  c #887F66",
"p  c #827E6B",
"a  c #EE8415",
"s  c #E9861D",
"d  c #F28715",
"f  c #F48916",
"g  c #FF8E16",
"h  c #FF8F18",
"j  c #F38918",
"k  c #FE911B",
"l  c #D28026",
"z  c #CC8131",
"x  c #EA8F2B",
"c  c #FC9525",
"v  c #FB9629",
"b  c #F7982E",
"n  c #F9982E",
"m  c #F69428",
"M  c #F49A35",
"N  c #FD9C34",
"B  c #FF9F39",
"V  c #F69E3B",
"C  c #FFA23F",
"Z  c #F7A03E",
"A  c #99835E",
"S  c #A18357",
"D  c #8A826A",
"F  c #918468",
"G  c #858471",
"H  c #898673",
"J  c #8D8A76",
"K  c #8E8D79",
"L  c #84817E",
"P  c #918F79",
"I  c #918D76",
"U  c #94917C",
"Y  c #9F987E",
"T  c #BC9F7C",
"R  c #C18641",
"E  c #D99A4F",
"W  c #CB985B",
"Q  c #D19E5B",
"!  c #EC9E43",
"~  c #F39F40",
"^  c #E19B51",
"/  c #DFA65D",
"(  c #F6A344",
")  c #FBA545",
"_  c #F2A44A",
"`  c #EAA551",
"'  c #EDAB59",
"]  c #E2A75E",
"[  c #FFAE58",
"{  c #FFAD57",
"}  c #FFB15F",
"|  c #DDA864",
" . c #DEB579",
".. c #DAB278",
"X. c #E4AE67",
"o. c #ECAE60",
"O. c #E8B56F",
"+. c #FFB86C",
"@. c #E2B77A",
"#. c #E5B979",
"$. c #EABB78",
"%. c #FFBB74",
"&. c #898989",
"*. c #9A9780",
"=. c #9C9983",
"-. c #9A9A9B",
";. c #A89F8E",
":. c #A5A18B",
">. c #A9A28E",
",. c #ACA895",
"<. c #B4AD94",
"1. c #B2A291",
"2. c #B6B298",
"3. c #BAB69B",
"4. c #BEBA9E",
"5. c #B3B095",
"6. c #BEBBA0",
"7. c #CFB78B",
"8. c #D4B685",
"9. c #D3BB8D",
"0. c #DCBC89",
"q. c #D7B588",
"w. c #C2BD9F",
"e. c #CEBC93",
"r. c #D8B894",
"t. c #F6BE82",
"y. c #C2BEA2",
"u. c #DEC08E",
"i. c #D4C39C",
"p. c #DEC698",
"a. c #E6C189",
"s. c #FFC383",
"d. c #E2CA9B",
"f. c #FFCB94",
"g. c #FFD09E",
"h. c #C6C1A5",
"j. c #C9C5A6",
"k. c #CDC8A7",
"l. c #C7C3A8",
"z. c #CAC6A9",
"x. c #CECAAC",
"c. c #DBCCA5",
"v. c #D1CDAE",
"b. c #D3C7A3",
"n. c #D5D0AF",
"m. c #D9D0AD",
"M. c #CCC5B5",
"N. c #CFCBB0",
"B. c #CBC6BD",
"V. c #C5C0B8",
"C. c #D3CEB1",
"Z. c #D0C6BB",
"A. c #D6D1B3",
"S. c #D9D5B5",
"D. c #DDD8B7",
"F. c #DBD6B8",
"G. c #DED9BA",
"H. c #D7D4B8",
"J. c #E2D0A5",
"K. c #FFD8AE",
"L. c #FED5A9",
"P. c #E1DDBC",
"I. c #E3D9B4",
"U. c #FFDFBC",
"Y. c #FFDBB5",
"T. c #CDC9C4",
"R. c #CDCDCD",
"E. c #CECFD0",
"W. c #D2D2D2",
"Q. c #DCDCDC",
"!. c #E4DEC3",
"~. c #E7DEC9",
"^. c #E6E2C3",
"/. c #E9E5C5",
"(. c #E8E0CE",
"). c #FFE6CC",
"_. c #FFE1C1",
"`. c #EBECEC",
"'. c #E2E2E2",
"]. c #F5EFE4",
"[. c #FFF2E4",
"{. c #FBF5EC",
"}. c #FEF9F3",
"|. c #FFFFFF",
" X c #F3F3F4",
/* pixels */
"A.G.S.D.P.S.v.h.z.A.S.A.A.S.x.k.A.H.x.z.x.A.z.z.h.x.C.A.F.S.x.z.z.S.F.S.H.S.D.z.z.F.!.G.G.P.^.S.S.v.",
"C.v.A.S.S.A.k.j.z.A.S.C.x.z.x.A.A.A.v.x.N.C.C.N.x.C.k.A.S.A.h.j.N.C.x.F.S.A.z.z.D.G.^.D.S.A.A.A.S.x.",
"x.x.S.G.A.S.A.v.G.^.S.S.S.S.G.G.A.A.S.A.A.S.S.A.G.n.A.S.S.N.C.F.C.H.S.G.G.C.S.S.S.S.S.G.S.G.A.S.A.A.",
"z.A.D.D.v.v.A.A.G.N.x.C.S.G.D.S.A.A.A.x.n.v.k.k.x.z.S.G.k.h.A.A.A.F.C.x.x.A.C.N.x.k.x.v.x.A.x.h.z.z.",
"S.C.C.x.z.S.C.z.x.x.x.A.!.D.S.S.k.x.n.n.A.v.z.k.A.G.x.x.h.x.G.A.A.A.h.y.A.!.F.x.v.z.z.A.x.n.n.h.x.x.",
"A.z.z.v.A.n.z.x.x.S.l.x.G.A.k.v.x.v.x.x.A.S.A.A.D.G.z.l.h.A.z.h.A.x.h.j.D.^.k.z.x.z.x.v.x.n.x.x.N.A.",
"C.x.x.C.C.j.x.x.A.x.h.x.S.S.S.k.h.z.h.z.A.k.z.S.S.A.x.x.x.C.x.A.A.k.h.S./.P.A.k.N.h.A.A.S.S.z.h.C.A.",
"h.y.k.A.A.C.x.h.h.h.h.z.N.x.x.z.z.h.6.h.h.4.z.x.h.h.y.k.C.D.D.F.C.x.S.P.D.A.k.x.x.S.G.S.A.A.z.x.A.z.",
"S.D.I.D.m.n.A.h.x.z.4.h.C.C.x.z.6.2.6.z.x.A.x.x.h.z.v.S.A.D.P.G.v.A.x.A.x.x.j.n.A.A.C.F.F.G.G.F.S.k.",
"v.v.x.k.S.v.k.h.k.x.x.S.S.G.x.l.h.j.A.x.h.A.A.x.l.z.h.9.e.A.S.x.N.x.v.S.A.A.S.A.x.h.A.A.H.S.A.z.j.x.",
"h.k.A.S.S.v.y.y.h.A.x.S.D.G.v.j.x.A.x.h.x.G.z.h.x.D.#.b ..A.C.l.l.z.C.v.v.A.v.C.C.A.z.k.x.S.x.N.F.x.",
"A.D.S.x.z.h.h.6.h.x.x.A.S.C.z.h.x.N.h.h.S.x.h.N.c.' c g / h.h.z.h.h.k.h.z.x.x.A.v.N.x.l.x.x.x.x.N.x.",
"F.v.k.z.z.z.z.h.S.D.G.G.A.x.6.y.l.h.h.A.A.n.x.d.( h h g ` v.k.k.l.A.G.A.v.z.N.z.z.z.z.z.k.x.x.x.S.F.",
"k.h.j.h.z.h.h.v.^.S.A.k.h.h.h.h.S.A.A.A.v.x.0.M h h h h ( v.A.j.A.G.A.A.v.v.A.C.A.S.F.C.x.v.x.x.x.h.",
"h.w.h.y.w.k.A.A.G.S.A.h.h.4.z.S.G.H.G.C.N.u.n g h h h h n b.C.C.C.S.S.S.A.A.x.A.D.S.x.N.n.v.A.S.v.A.",
"z.j.z.x.v.S.v.S.F.C.w.3.3.6.C.P.G.S.C.e.O.N g h h h h h k | i.C.A.F.F.C.v.k.z.C.A.k.C.C.z.F.!.C.n.z.",
"C.S.S.S.A.A.S.A.x.l.4.2.y.x.S.D.A.i./ m k g g g g k g g k s r X.c.A.A.v.k.k.N.C.v.C.k.z.x.F.A.l.z.l.",
"P.S.S.S.S.A.x.j.h.6.h.h.D.!.D.G.0.M g g g k g k g g k g g q q g Z 0.A.A.x.A.F.C.A.h.h.z.x.k.z.h.x.A.",
"I.A.C.C.v.j.4.w.y.h.A.z.G.A.v.#.c g g k g g g k k k g g f s f g g v  .N.z.F.C.x.x.z.C.v.z.C.C.k.C.D.",
"v.C.x.y.~.C.4.h.h.x.N.N.x.x. .c g k g g g k g g g g g k g g k g g g m ..x.k.k.C.A.A.D.A.A.F.A.v.A.A.",
"j.3.4.z.{.].k.h.x.F.x.N.G.d.n g g k g g k g k g h h h h g g k g h f f x 9.F.F.A.A.G.S.v.k.C.A.j.h.y.",
"y.y.j.~.|.|.~.A.S.A.A.^.I._ g g g g k g k g g g h h h h g g k g g $ @ a E S.A.A.v.k.h.y.z.S.v.z.z.h.",
"x.l.A.{.|.|.{.v.n.P.D.S. .k g g k k g g g g k k h h h h h h g g e o X 7 s 8.H.C.C.x.x.C.S.A.A.S.S.v.",
"z.l.d.L.).U.s.a./.D.j.h.! g k k g g g k g k g g h h h h h h g k 7 .   , a E C.l.x.x.C.x.A.A.D.x.z.y.",
"l.N.X.h c k g ( m.h.z.p.c k g g g k k g k g g g h k h h h h h k 6 . . > f w r.A.C.G.S.x.C.z.z.h.C.x.",
"v.C.' g g g h k @.v.S.$.k g k g g g g g g g k k g g h h h h h h 0 X . 6 h 8 8.v.C.A.A.C.k.z.A.z.j.z.",
"x.C.' g h h h h v #.D.o.g k g g k g g k g k g g k g g h h h h h d + o e h 0 Q v.A.D.S.C.C.z.x.j.z.h.",
"C.S.O.g h h h h g k Z n g g g k k g g k g g k k g g g g h h h h g 6 , g h 0 1 & % % P F.x.x.x.k.z.v.",
"F.P.d.v h h h h g g g g k g g g g g g k g g g k N C C c k h g g g g g g g 0 : .     O v.z.v.z.h.z.v.",
"!.A.z.| k h h h g k k g g g k k g k g g k g k s.[.}.[.).K.f.%.} { { [ +.t.7.1.O     - S.z.v.v.C.G.D.",
"S.h.y.z.$.m h g g g g g g k g g k g k g g g B [.|.|.|.|.|.|.|.|.}.|.|.|.`.R.E.-.* * 2.v.v.A.A.v.A.S.",
"z.4.l.v.j.7.] ~ N c c c k g k g g g k g g g ) {.|.|.|.|.|.|.|.|.|.R.`.|.Q.R.R.E.T.M.v.n.x.C.k.y.v.v.",
"4.6.x.A.A.x.x.k.c.J.J.a.b h h h k g g g k g C [.|.|.|.|.|.|.|.|.|.&.&.`.W.E.R.T.M.y.y.y.l.y.y.y.z.y.",
"A.G.G.F.x.S.A.v.F.D.C.x.` g h h g g k g g g k U.|.|.|.|.|.|.|.|.|.`.; = ; ,.z.z.y.w.2.x.x.C.C.x.x.z.",
"G.A.N.z.N.A.A.F.P.P.S.A.9.m g h g k g k k k g %.|.|.|.|.|.|.|.|.|.|.Q.-.&.>.x.z.w.6.C.C.z.z.M.C.A.A.",
"^.F.A.x.D.G.A.A.P.D.A.k.y./ f h g k g g g g g c Y.|.|.|.|.|.|.|.|.'.E.E.M.C.S.x.x.I.C.z.j.z.S.v.x.F.",
"x.z.z.j.S.A.A.A.x.x.y.h.y.Y R j f g g g g k k g B U.|.|.|.|.|. XQ.R.E.T.;.l.C.z.C.S.N.y.y.A.C.x.C.A.",
"C.x.C.F.D.S.S.x.x.v.z.x.4.J D u s d g g g g g k g N g.}.|. X'.E.R.R.T.;.U l.C.y.z.h.w.x.P.G.F.S.P.A.",
"C.z.x.A.S.x.h.h.z.v.k.x.h.=.G G S < 9 a a f f f f d s ^ r.M.R.R.R.y.>.H *.z.x.l.x.C.H.P.G.F.A.C.C.x.",
"h.z.z.z.j.y.h.w.z.A.n.C.k.4.=.J H i A 4 r 8 7 7 9 9 5 5 7 z W T ;.=.*.;.6.z.l.x.G.^.F.P.C.C.C.A.x.k.",
"h.x.C.x.z.z.h.h.A.S.A.v.k.k.C.<.P G G p F A y 3 2 2 3 y y t A D U ,.y.z.l.h.z.A.!.P.S.x.l.x.F.z.z.h.",
"z.S.A.v.k.C.F.F.A.S.A.j.h.k.C.k.h.2.:.=.Y P G G H K K P *.=.:.6.C.S.v.y.3.h.S.P.!.S.z.y.y.v.x.y.h.h.",
"P.S.F.S.S.G.G.x.v.A.A.z.v.v.x.A.z.h.x.C.x.y.6.6.h.k.h.l.N.H.D.G.A.z.y.y.6.S.^.P.P.x.6.y.y.y.h.l.z.A.",
"G.v.x.S.A.x.j.z.A.v.x.l.C.x.z.z.z.v.C.A.A.S.C.A.D.S.x.A.G.F.G.x.4.4.3.z.C.P.S.x.k.h.y.l.j.C.S.H.S.D.",
"n.k.k.h.h.h.h.v.A.k.x.A.x.z.N.A.H.S.S.A.A.v.v.n.S.S.A.A.h.h.h.4.6.y.C.S.F.C.x.z.C.z.C.A.S.D.D.D.S.G.",
"z.y.h.z.k.h.z.h.k.F.x.z.v.C.A.S.G.G.C.x.A.A.x.z.k.N.y.h.h.y.y.y.y.S.^.D.H.C.l.l.z.A.F.F.A.S.S.z.y.h.",
"x.x.G.C.j.j.z.A.D.v.h.z.C.x.A.A.C.l.l.k.S.S.v.A.x.j.h.h.4.3.h.x.G./.F.z.z.z.y.y.l.x.z.j.x.S.z.y.y.z.",
"H.S.A.A.A.A.S.S.A.x.v.k.l.x.C.N.x.k.v.S.A.A.S.D.A.x.j.h.z.A.S.P.P.C.C.z.z.y.z.C.A.x.C.C.F.x.y.x.H.A.",
"A.z.S.C.x.C.x.v.D.x.j.z.k.z.l.z.z.C.z.A.v.v.j.w.h.h.h.v.D.G.F.C.z.C.z.6.h.z.C.C.C.k.C.z.N.j.A.v.C.C.",
"k.k.N.x.C.N.A.v.h.h.A.S.A.x.A.C.A.A.x.A.j.h.w.h.h.h.j.x.C.S.v.A.z.y.y.z.A.G.S.F.v.v.A.H.F.A.F.v.G.C."
};
