/* XPM */
static char *fox_up_mad[] = {
/* columns rows colors chars-per-pixel */
"50 50 202 2 ",
"   c #33170F",
".  c #482015",
"X  c #662E1E",
"o  c #793624",
"O  c #B32418",
"+  c #8B3E29",
"@  c #843B27",
"#  c #B83C36",
"$  c #C33623",
"%  c #8F402A",
"&  c #9E472E",
"*  c #93422B",
"=  c #AE4E33",
"-  c #A24830",
";  c #B9423A",
":  c #B9493B",
">  c #B35135",
",  c #B57A35",
"<  c #B17530",
"1  c #CD7313",
"2  c #C97419",
"3  c #D37512",
"4  c #DB7B15",
"5  c #D47917",
"6  c #E27F15",
"7  c #D04830",
"8  c #C7593B",
"9  c #D55D3E",
"0  c #D2553E",
"q  c #C54839",
"w  c #E35E3D",
"e  c #CE7D24",
"r  c #C27825",
"t  c #D17E22",
"y  c #E5603D",
"u  c #BB5756",
"i  c #B84B49",
"p  c #9E7F53",
"a  c #AB7C41",
"s  c #847F6A",
"d  c #DC6241",
"f  c #D76140",
"g  c #CB6053",
"h  c #E46443",
"j  c #EA6744",
"k  c #EB6945",
"l  c #EA6B48",
"z  c #EB714F",
"x  c #EC7756",
"c  c #C8706D",
"v  c #C6716F",
"b  c #E58015",
"n  c #E98418",
"m  c #F18615",
"M  c #F58916",
"N  c #FE8E16",
"B  c #F48B1B",
"V  c #FF8F18",
"C  c #FE901B",
"Z  c #F28D21",
"A  c #FB9222",
"S  c #FA9629",
"D  c #FB982B",
"F  c #F6942B",
"G  c #F69932",
"H  c #F89B33",
"J  c #F39B3A",
"K  c #F59733",
"L  c #E88D2A",
"P  c #9C825A",
"I  c #AD8048",
"U  c #B48142",
"Y  c #A58558",
"T  c #BF945B",
"R  c #B88D55",
"E  c #89826B",
"W  c #908468",
"Q  c #858371",
"!  c #8A8773",
"~  c #8D8A76",
"^  c #928F79",
"/  c #9A8F72",
"(  c #94927D",
")  c #969077",
"_  c #A0987E",
"`  c #CC934C",
"'  c #CF9A57",
"]  c #D09F5F",
"[  c #CC9048",
"{  c #EA9D44",
"}  c #EC9D4B",
"|  c #DFA55C",
" . c #D3A05D",
".. c #F6A64B",
"X. c #EAA656",
"o. c #F3AA53",
"O. c #F2AC59",
"+. c #DF8D7F",
"@. c #EE8568",
"#. c #EA8E77",
"$. c #DFAF7E",
"%. c #D8B37A",
"&. c #DBA865",
"*. c #E5A665",
"=. c #E2AE69",
"-. c #ECB166",
";. c #E6B36D",
":. c #EDBB78",
">. c #E5B470",
",. c #FFBA71",
"<. c #E3AC73",
"1. c #9A9780",
"2. c #9C9982",
"3. c #939381",
"4. c #A5A28B",
"5. c #ACA890",
"6. c #B5B196",
"7. c #B6B299",
"8. c #BAB79C",
"9. c #BEBA9E",
"0. c #BEBBA0",
"q. c #CC8180",
"w. c #E79280",
"e. c #D8BD8C",
"r. c #D9BB87",
"t. c #D9A19F",
"y. c #C3BD9E",
"u. c #CFBC93",
"i. c #D2BF96",
"p. c #CEB78A",
"a. c #F2A38D",
"s. c #DEA9A6",
"d. c #DDABA9",
"f. c #C2BEA2",
"g. c #D7BDA5",
"h. c #F6BCAC",
"j. c #E4BCBC",
"k. c #F0BEB4",
"l. c #DBC394",
"z. c #D5C39B",
"x. c #DCC99E",
"c. c #D7C296",
"v. c #EBC183",
"b. c #C6C1A5",
"n. c #C9C5A6",
"m. c #CDC8A7",
"M. c #C5C2AA",
"N. c #CAC6A9",
"B. c #CEC9AC",
"V. c #D3C6A2",
"C. c #D1CDAE",
"Z. c #D6C8AA",
"A. c #D5D0AF",
"S. c #DDD0A9",
"D. c #CDCAB3",
"F. c #C8C7BB",
"G. c #CCCABC",
"H. c #C6C4B6",
"J. c #DDC7B1",
"K. c #D2CEB1",
"L. c #D7CEBA",
"P. c #D6D1B3",
"I. c #D9D5B5",
"U. c #DDD8B7",
"Y. c #D6D2B8",
"T. c #DAD6B9",
"R. c #DED9BA",
"E. c #E2CFA5",
"W. c #FDD4A7",
"Q. c #EBC1BC",
"!. c #E1DCBC",
"~. c #F9DDBB",
"^. c #CDCCC5",
"/. c #CDCCC8",
"(. c #D3D2C4",
"). c #D1D1CE",
"_. c #D6D6D4",
"`. c #DADADA",
"'. c #E2DEC1",
"]. c #E9DEC7",
"[. c #FADCD4",
"{. c #F1DBDB",
"}. c #F0D8D7",
"|. c #EDCBC8",
" X c #E5E1C2",
".X c #E8E4C6",
"XX c #F4E7D8",
"oX c #DFDFE1",
"OX c #E2E2E3",
"+X c #EAEAEC",
"@X c #E7E7E9",
"#X c #F6E9E8",
"$X c #FAEAE7",
"%X c #F7F0E5",
"&X c #FEF2EF",
"*X c #EFEFF1",
"=X c #F2F2F4",
"-X c #FCF5F4",
";X c #F7F7F8",
":X c #F7F8F9",
">X c #FEFEFE",
",X c #FDFAF5",
/* pixels */
"P.T.I.U.!.I.C.b.M.A.P.A.P.I.B.B.A.I.B.M.B.I.M.m.b.B.K.P.I.I.B.M.N.P.T.P.I.Y.T.M.m.U.!.!.R.!. XP.I.C.",
"K.C.P.I.I.P.B.n.N.P.T.P.B.B.A.P.P.P.B.C.B.K.P.B.B.P.m.P.I.P.b.m.K.D.F.^.)._._././.(.(.U.T.P.I.P.I.C.",
"C.B.I.U.P.P.P.C.R. XI.P.P.I.R.R.P.P.U.A.P.I.P.P.T.P.P.I.U.D.K.T.^.`.+X;X:X>X>X:X=X@X`.(.P.T.P.P.P.I.",
"N.P.U.U.C.P.C.P.T.P.B.P.U.T.R.P.P.P.P.B.A.C.B.n.B.m.I.T.m.b.G.`.;X>X>X,X$X[.[.&X>X>X>X+X).L.B.b.M.m.",
"P.K.C.B.B.U.C.N.A.m.B.P.R.R.I.T.B.B.A.P.A.C.m.B.K.T.C.N.b.H.oX*X}.j.[.a.x z z @.h.-X>X>X;X_.H.n.D.m.",
"P.N.B.C.P.C.N.B.B.I.M.B.R.P.B.B.B.B.B.B.P.I.P.P.!.!.N.N.M.oX:X|.u i q w l k l j l a.-X>X>X;X_.N.B.P.",
"K.B.B.C.K.n.B.B.D.B.b.A.T.I.I.m.b.n.b.m.P.m.m.T.P.P.B.N.).:X=Xv u # $ > 8 l h = 9 l W.>X>X>X*XF.D.P.",
"b.f.B.P.P.K.B.b.b.b.b.M.B.A.B.m.B.b.9.b.b.9.M.B.b.b.f.H.OX>X>X#Xc O 7 > X & % o 9 k x &X>X>X>X_.D.B.",
"U.U.U.U.A.A.A.n.B.n.9.b.P.B.B.m.f.7.y.M.K.K.B.B.b.N.K.(.*X>X>X>X+.y 9 . X & %   + k z |.>X>X>X@XP.m.",
"C.C.C.B.I.C.m.n.n.C.B.P.I.T.B.M.f.N.K.B.M.K.K.B.b.N.f.^.:X>X>X-X#.j h @ - j d o = k j k.>X>X>X@XF.B.",
"b.m.C.I.P.C.f.f.n.K.K.P.U.R.A.n.C.K.C.b.C.U.B.b.C.T.K./.:X>X>X>Xw.h j l = @ @ 8 k k h |.>X>X>X@XG.D.",
"P.I.I.C.B.b.b.f.f.C.B.P.I.P.n.b.B.K.f.b.I.C.f.C.I.C.b.^.:X>X>X>Xd.0 j 9 @ 8 > * k h g {.>X>X>XoXD.B.",
"I.C.B.n.m.N.N.f.I.U.I.U.P.B.9.0.M.b.n.K.C.A.C.T.K.M.C.G.=X>X>X>X#Xc q f d j h 9 0 q s.:X>X>X:X).Y.T.",
"B.b.b.b.n.b.b.P.'.I.P.B.M.b.b.b.P.P.P.P.C.C.K.K.b.K.K.N.OX>X>X>X>X#Xv i ; ; ; ; u s.,X>X>X>XOXG.B.b.",
"b.y.b.y.f.n.A.P.R.I.K.b.M.0.M.U.U.T.U.P.K.P.S.z.e.e.z.n._.>X>X>X>X>X:X}.j.s.d.|.#X>X>X>X:X@X(.I.C.P.",
"n.n.B.B.C.I.C.I.T.P.u.| &.%.V.!.R.I.K.u.>.o.H D A A S J J.>X>X>X>X>X>X>X>X>X>X>X>X>X:X=X`.(.!.C.C.m.",
"K.I.I.I.P.P.P.P.B.b.8.{ N C H ..>.r.X.K C N N N V N N A J.:X:X+XOXOX@X+X*X=X=X*X+XoX_.^.D.I.P.n.M.N.",
"!.P.I.I.I.A.C.n.b.f.b.=.V N N N C C C N V V V V V V N S L.OXg.*.} } X.*.<.$.B.G.G.f.f.M.B.B.M.b.C.K.",
"U.P.P.A.B.n.9.f.f.n.P.r.C V V V C N N C C N N N V V V J g.*.A N N N N N N C e.B.B.N.K.K.N.K.K.B.K.T.",
"A.K.B.f.6.8.0.b.f.B.A.m.H V V V N N C N N N C C V V N G } C N N V V V V N G V.C.P.P.R.P.P.I.P.C.K.I.",
"n.8.9.0.N.N.b.b.B.I.B.C.o.N V V N C N C N N N N N N N C N N N C C N V V N o.U.P.P.R.I.C.B.C.P.n.f.f.",
"f.f.b.m.N.N.m.A.I.Y.P.'.:.V V V N N N C N C C N C C N N N C N N N N V V C :.K.P.C.N.f.f.B.I.B.N.N.m.",
"B.N.B.C.C.B.C.C.A.!.R.I.%.V V V C N N N N N C N N N N C C N C N N C N N B %.T.K.C.B.B.K.I.P.P.I.U.C.",
"N.N.A.B.b.f.n.P..XU.n.b.{ N V V N C C N C N N C N C C N N N C N C N N N M ` B.b.C.B.C.B.A.P.U.C.M.f.",
"N.B.B.N.B.B.I.!.I.b.N.l.D N V V V V V V V V V V C N V V V V V V N N C C M b z.P.P.U.T.B.C.N.N.b.C.C.",
"B.K.P.U.I.I.P.C.C.B.Y.v.C N V V V V V V V V V V C N V N V V V V C N N N B 2 %.B.B.P.P.C.B.B.P.n.m.b.",
"B.C.I.R.K.n.A.B.C.I.R.=.N V V V V V V V V V V V N N N C V V V V C N N C N 3 ] P.T.T.I.K.B.B.B.n.m.f.",
"P.P.U.I.N.P.P.A.!.R.U.O.N V V V V V V V V V V V N C C N V V V V N C N N N 3 ` D.K.P.I.I.B.B.B.B.N.C.",
"I.R.I.m.b.Y.P.I.R.P.K.o.V V V V V V V V V V V V V V V V V V V V V V C N M 3 ` n.N.N.C.B.n.C.N.b.M.C.",
" XP.B.0.B.R.I.B.A.B.P.O.N V V V V V V V V V V V V V V V V V V V V V N C M 1 ` n.P.K.C.C.N.C.C.C.!.!.",
"P.b.f.B.T.B.b.f.P.C.U.-.N V V V V V V V V V V V V V V V V V V V V V N N m 1  .U.I.'.P.C.C.P.P.C.P.P.",
"N.f.M.K.N.f.b.B.U.P.R.v.V V V V V V V V V V V V V V V V V V V V V V N N 4 1 r.(.U.C.B.K.B.C.B.b.C.Z.",
"8.0.C.K.A.N.B.B.P.R.R.x.G N N N C N N C N N V V V V V V V V V V V V V M 1 L y.K.B.b.9.f.N.b.f.b.N.f.",
"Y.R.!.T.C.I.P.C.U.R.A.B.X.N V V N N C N N C V V V V V V N C V V V V N 4 1 ` 9.b.b.8.8.m.B.B.K.N.C.N.",
"R.P.B.N.C.P.P.I.!.!.I.K.l.S N V N C C N V V V V V V V V C N N N C M b 1 b 8.B.N.8.0.K.Y.N.N.B.K.C.K.",
".XT.K.C.I.R.Y.I.R.!.A.B.9. .C V N C N N V V V V V V V V N N C N N b 1 1 T B.Y.C.B.R.K.N.b.N.I.K.C.T.",
"B.n.N.N.I.P.I.A.B.B.b.b.b.( [ M C N C C N N C N V V C N N C N M 4 1 2 < ^ N.C.N.I.I.D.f.b.Y.C.N.C.I.",
"B.B.P.I.U.I.I.B.B.A.n.B.8.~ E U n M N N C C N N V V N C N M b 3 1 2 , E ^ N.K.b.N.b.9.B.R.R.T.T.!.I.",
"K.B.B.P.I.B.b.b.N.C.m.B.n.( E ! Y r 4 b m M N C V V N b 4 3 1 1 < P ~ ~ 3.M.B.b.B.P.I.R.R.I.Y.P.K.B.",
"M.N.N.N.b.f.b.9.N.A.A.A.m.b.( ~ E E P , r 5 M C V V m 1 2 r , P W ) ( 4.f.B.N.N.R. XR.R.P.B.P.P.N.C.",
"b.B.C.B.m.b.b.b.P.I.P.B.m.B.B.6.^ Q Q E E Y B C N N B I P W ! Q ( 5.0.m.b.M.m.P.!.R.T.B.M.B.I.B.N.b.",
"n.I.Y.C.B.P.T.T.P.Y.P.N.b.B.C.B.b.6.4.2.( / L N C C C R 3.2.4.0.P.U.D.9.8.b.T.!. XI.N.f.b.B.B.f.b.f.",
"!.P.U.I.I.T.U.B.C.P.P.m.C.C.B.P.B.b.B.B.C.b.J N N N N S =.V.U.U.Y.N.f.b.0.I. X!.!.m.0.0.f.b.b.M.N.P.",
"R.A.B.Y.P.C.N.N.A.A.B.b.P.m.N.N.N.B.P.P.P.U.;.C N C N N N ..~.P.9.8.9.b.P.R.T.B.B.b.b.b.b.C.I.I.I.T.",
"A.n.B.b.b.b.b.C.A.B.C.A.m.N.D.P.T.I.T.Y.P.A.c.D N C N N N ,.>X%XP.f.K.T.R.P.m.m.B.N.K.I.U.U.R.U.!.U.",
"m.f.N.n.B.b.n.b.B.I.B.n.K.K.P.I.R.T.K.B.P.A.B.=.C N N C C W.>X>X,X.X'.T.Y.B.b.b.m.Y.I.U.P.P.I.m.f.f.",
"B.m.I.P.N.b.m.P.R.B.N.n.C.B.P.A.K.b.b.B.U.I.C.Z.O.C N N N ~.>X>X,XXXU.N.N.N.b.b.M.B.M.b.B.Y.N.0.f.M.",
"T.P.Y.P.P.A.U.P.P.B.B.B.N.D.K.B.m.m.A.P.P.Y.I.U.A.;.J D A W.%XXX!.K.K.N.N.b.b.D.I.B.P.P.T.m.b.B.I.P.",
"P.m.I.P.B.D.B.A.U.B.b.N.B.b.b.N.m.P.m.P.B.A.b.b.b.b.b.z.E.S.U.C.m.K.N.f.f.N.K.K.K.N.C.N.K.M.P.C.K.K.",
"n.B.B.B.B.K.P.A.b.b.P.U.P.B.P.P.P.P.B.B.m.b.0.b.b.b.b.B.P.T.B.I.N.f.f.n.I.T.U.U.C.C.I.K.T.P.T.C.!.K."
};
