/* XPM */
static char *fox_down[] = {
/* columns rows colors chars-per-pixel */
"50 50 183 2 ",
"   c #000000",
".  c #0C0701",
"X  c #160D02",
"o  c #241403",
"O  c #371F05",
"+  c #32302E",
"@  c #553008",
"#  c #5D3409",
"$  c #67390A",
"%  c #6F3E0A",
"&  c #613609",
"*  c #76420B",
"=  c #6C6C6C",
"-  c #767676",
";  c #7C7C7C",
":  c #9F590F",
">  c #A55D0F",
",  c #A65E12",
"<  c #B86711",
"1  c #BD6A12",
"2  c #BC782C",
"3  c #B77C38",
"4  c #AD793A",
"5  c #CC710F",
"6  c #CE7413",
"7  c #D47713",
"8  c #DE7C14",
"9  c #D27A1B",
"0  c #E27F15",
"q  c #C37622",
"w  c #C77B29",
"e  c #C47E31",
"r  c #97784D",
"t  c #917A55",
"y  c #927D58",
"u  c #A67B44",
"i  c #8D7E61",
"p  c #E58015",
"a  c #ED8515",
"s  c #F48916",
"d  c #FF8E16",
"f  c #FF8F18",
"g  c #F48816",
"h  c #FE911A",
"j  c #CB8334",
"k  c #CA8337",
"l  c #D48C3C",
"z  c #DD8C30",
"x  c #E78C29",
"c  c #FC9423",
"v  c #F8962B",
"b  c #FA972A",
"n  c #EE9A3B",
"m  c #F39A36",
"M  c #FC9C33",
"N  c #F39D3B",
"B  c #9A825B",
"V  c #A48456",
"C  c #8B8167",
"Z  c #83806E",
"A  c #8E856C",
"S  c #918568",
"D  c #848270",
"F  c #898773",
"G  c #8D8975",
"H  c #8E8C78",
"J  c #95927D",
"K  c #B59A6E",
"L  c #CD8D48",
"P  c #D49142",
"I  c #CD9457",
"U  c #E89D4E",
"Y  c #F09D41",
"T  c #E9A34F",
"R  c #F2A143",
"E  c #FFA444",
"W  c #F3A44A",
"Q  c #FEA84B",
"!  c #EBAC5D",
"~  c #E8A655",
"^  c #F2AB57",
"/  c #FFB15D",
"(  c #CE9C68",
")  c #CFA367",
"_  c #DAA566",
"`  c #D5AD73",
"'  c #DBB47B",
"]  c #DAB379",
"[  c #E4AC63",
"{  c #E8AD63",
"}  c #E3AF6A",
"|  c #E6B06A",
" . c #EDB66F",
".. c #FFB362",
"X. c #F6B467",
"o. c #E2AD75",
"O. c #EAB874",
"+. c #FEBE7B",
"@. c #FFBB72",
"#. c #FFC07E",
"$. c #979581",
"%. c #9E9C86",
"&. c #9A9A9A",
"*. c #A09D86",
"=. c #A4A18A",
"-. c #A9A58C",
";. c #ABA890",
":. c #B1AE94",
">. c #B5B196",
",. c #BAB69B",
"<. c #BEBA9E",
"1. c #B8B296",
"2. c #BEBBA0",
"3. c #B5B5B5",
"4. c #A6A6A6",
"5. c #CEAA84",
"6. c #C4B189",
"7. c #D7BA87",
"8. c #C1BC9F",
"9. c #CBBE98",
"0. c #D4BE91",
"q. c #D1B393",
"w. c #E1BB83",
"e. c #C2BEA2",
"r. c #D5BFA8",
"t. c #CEC19C",
"y. c #DBC394",
"u. c #D4C49D",
"i. c #E4C28A",
"p. c #E7C083",
"a. c #FFC280",
"s. c #FFC689",
"d. c #FFC98E",
"f. c #E8C995",
"g. c #C6C1A5",
"h. c #C9C5A6",
"j. c #CDC8A7",
"k. c #C7C4A8",
"l. c #CAC6A9",
"z. c #CECAAC",
"x. c #D2C6A3",
"c. c #DBCBA4",
"v. c #D1CDAE",
"b. c #DACEAA",
"n. c #D9C0A6",
"m. c #DCD2AE",
"M. c #D5D0AE",
"N. c #CFCBB0",
"B. c #D2CEB1",
"V. c #D5C7B9",
"C. c #D6D1B3",
"Z. c #D9D5B5",
"A. c #DDD8B7",
"S. c #DBD6B8",
"D. c #DED9BA",
"F. c #D7D4B8",
"G. c #F6D0A8",
"H. c #E1DDBC",
"J. c #EBD9BD",
"K. c #E7CFAA",
"L. c #D6CCC1",
"P. c #DBD4CC",
"I. c #CCCBCA",
"U. c #E3DFC1",
"Y. c #EADDC8",
"T. c #E5DED6",
"R. c #E5E1C2",
"E. c #E9E5C5",
"W. c #EEE4CC",
"Q. c #FFE7CC",
"!. c #FFE8CF",
"~. c #EAE1D8",
"^. c #FFEEDC",
"/. c #F6E9D6",
"(. c #F8F0DF",
"). c #E2E3E3",
"_. c #EDEDED",
"`. c #E8E7E6",
"'. c #FDF1E3",
"]. c #FDF5EB",
"[. c #F4F5F6",
"{. c #FFFBF6",
"}. c #FFFFFF",
/* pixels */
"C.S.Z.A.H.Z.v.t.l.C.C.C.v.Z.z.z.C.C.z.l.z.C.l.l.g.z.M.C.S.C.v.l.j.C.F.F.S.Z.S.l.z.F.H.H.H.H.U.Z.C.C.",
"B.v.C.Z.Z.v.z.k.l.C.S.C.z.z.v.C.C.C.v.z.z.B.B.B.z.B.j.C.F.M.g.j.B.B.B.F.Z.C.z.j.F.H.U.S.S.C.C.B.Z.v.",
"z.z.Z.H.C.Z.C.z.D.R.Z.C.C.S.D.D.C.B.S.C.C.F.C.M.S.v.C.F.D.z.B.S.B.F.F.D.S.v.C.C.C.C.Z.H.B.D.B.B.B.C.",
"l.Z.A.S.z.B.C.Z.S.B.z.C.S.S.D.m.C.C.C.z.M.v.z.j.z.z.F.D.z.g.C.C.C.F.B.z.v.C.C.B.v.j.v.v.v.C.v.h.j.z.",
"C.C.C.z.l.Z.B.h.z.z.z.C.D.D.C.S.z.z.B.B.M.B.l.z.v.D.z.z.e.z.F.C.B.C.l.e.C.H.C.v.v.l.l.B.v.v.v.k.B.z.",
"C.l.l.v.C.C.l.z.z.Z.l.z.H.Z.j.v.z.z.z.z.C.C.C.C.D.D.z.h.h.C.l.g.v.v.e.j.H.R.v.h.z.j.B.v.v.v.v.j.z.B.",
"C.l.l.v.v.h.z.z.v.z.g.v.S.C.C.z.h.h.h.h.C.l.l.C.F.C.z.l.z.v.z.C.C.j.h.Z.E.H.v.j.B.k.B.B.C.Z.j.g.B.B.",
"h.e.l.C.Z.B.z.h.g.g.g.l.z.B.z.l.z.g.<.g.g.t.l.z.h.g.e.l.C.D.A.A.v.v.C.H.Z.C.v.v.z.C.H.C.C.B.z.B.B.j.",
"Z.A.D.A.Z.M.B.h.j.h.<.g.B.v.z.l.2.>.8.l.N.B.N.z.g.j.v.F.M.S.H.S.v.C.z.C.z.z.j.v.C.B.B.F.S.D.U.C.C.z.",
"z.v.v.j.Z.v.h.h.j.z.z.Z.Z.S.z.h.g.l.v.z.h.B.B.z.g.l.g.l.h.C.Z.z.z.B.v.Z.C.C.C.Z.z.l.C.B.F.C.B.l.z.v.",
"g.j.B.Z.Z.v.e.e.h.C.N.Z.D.H.z.h.N.C.z.g.z.A.l.g.z.D.C.z.j.B.v.k.g.l.v.v.B.C.v.B.B.C.z.j.v.C.N.B.C.v.",
"C.A.Z.v.l.g.g.2.e.z.j.y.c.B.k.h.z.N.e.h.Z.v.g.N.Z.z.g.h.g.g.g.l.g.g.z.h.h.u.0.v.B.B.z.k.j.v.l.z.B.z.",
"Z.v.j.h.j.l.k.g.Z.S.m.W M R _ ] t.g.h.v.v.M.v.S.B.l.z.z.j.B.z.z.h.c.w.| W v Y h.k.z.l.l.z.z.z.z.B.S.",
"z.g.h.h.h.h.h.v.R.Z.M.! d d h h m T p.M.v.z.B.C.g.B.N.v.C.C.b.] ^ m c d d d ! B.B.Z.F.B.v.v.j.N.v.k.",
"g.8.g.8.<.j.C.C.S.Z.C.] h d d d d d h W 7.y.#.} [ ! } ' y.] Y h d d f f f h ' C.H.C.z.B.B.v.C.Z.v.B.",
"h.h.l.z.v.Z.v.Z.S.C.e.6.v d h d h h d d h v s h d h h h c h d h f f f f d v 0.B.B.j.B.B.j.Z.U.v.v.l.",
"C.C.Z.Z.C.C.Z.Z.j.g.<.1.n d d h d d h d d h d d h d d h d d h d f f f f d N v.B.v.v.j.l.z.F.Z.k.l.k.",
"D.Z.Z.C.Z.C.z.j.g.2.g.h.! d h d h d d h d h h d d h d h h d d h f f f f d X.F.B.C.h.g.l.z.l.l.g.z.B.",
"D.C.C.C.j.h.<.<.e.k.C.l.i.h d h h d d h d d h d h d h d d d h d f f f f c i.N.z.z.h.B.Z.j.B.B.j.B.S.",
"v.C.N.2.>.,.<.g.e.v.v.v.j.N d h d d h d h h d h d h d h h h d h f f f f N t.j.B.C.C.H.].W.Z.C.v.C.C.",
"g.,.<.<.h.h.g.h.z.F.z.B.S.X.d d d h h h g 1 g d h d h g 1 a h d f f f d ~ Z.Z.C.C.H.^.}.].Z.C.l.g.e.",
"t.e.g.l.l.l.j.C.Z.C.B.R.K.m d d h d d h : . > h d h d > . > d h f f f d z c.C.C.z.K.{.}.}.W.z.k.j.h.",
"z.l.z.B.z.z.v.v.B.U.S.Z.} f f f d h d d #   $ d h d d $   & h d f f f f p ) F.B.B.Y.{.}.}./.C.Z.C.v.",
"l.l.v.z.h.e.h.C.E.S.l.9.m d f f h d h d @   # h d h h #   @ d h f f f f a l j.g.x.W / +.@.Q f.N.j.e.",
"h.z.l.j.l.B.Z.H.C.h.l.i.c f f f f f d h @   # d h d d #   @ f f d f f d s 9 7.F.y.c d d d d ] k.B.z.",
"z.C.M.D.D.C.C.B.v.v.C.O.f f f f f f f d *   * h d h h *   * f f h d f h d 7 ` v.[ f f f d d O.k.k.k.",
"z.v.F.D.B.h.v.z.v.C.H.! d f f f f f d h < O 1 p 8 8 p 1 O < h d d d h d f 7 P T c d f f f f 7.j.j.e.",
"C.C.D.Z.z.C.C.B.H.H.Z.^ d f d d d d d d d 8 < o X X o < 8 s d d d d d d s 7 0 h d f f f f Y x.j.j.B.",
"S.D.S.l.g.C.M.S.H.C.B.^ d f Q a.s.#...E M c ,         , b M E / #.s.a.Q s 7 8 f f f f d v 7.z.e.j.B.",
"R.C.l.2.z.D.Z.z.C.j.C.! d Q ^.}.}.}.{.].^.Q.n.+     + r.Q.^.].{.}.}.}.^.Y 6 0 f f d f m 7.B.B.B.H.S.",
"C.h.e.l.F.z.g.g.C.v.Z. .d +.}.}.}.}.}.}.}.}.}.I.- - I.}.}.}.}.}.}.}.}.}.o.5 a d c M { u.v.B.B.B.C.C.",
"l.<.h.v.l.g.g.l.Z.C.S.f.h +.}.}.}.}.}.}.}.).&.[.}.[.[.&.).}.}.}.}.}.}.[._ 7 T  .i.u.j.C.z.B.v.e.v.v.",
"<.<.z.C.C.l.z.z.C.D.D.m.m / {.}.}.}.}.}.}._.= ; 3.3.; = _.}.}.}.}.}.}.`.L j x.C.z.g.<.e.l.g.<.g.l.e.",
"Z.D.D.S.z.Z.C.B.S.D.M.z.[ M !.}.}.}.}.}.}.}._.4.; ; 4._.}.}.}.}.}.}.[.r.q ) h.h.g.,.,.z.z.N.C.l.v.l.",
"S.Z.N.l.z.Z.C.S.D.H.A.C.u.N @.{.}.}.}.}.}.}.}.}.}.}.}.}.}.}.}.}.}.[.P.I k t.z.l.,.2.B.B.z.l.z.B.B.B.",
"R.S.C.z.S.S.Z.Z.H.D.v.j.g.K x s.{.}.}.}.}.}.}.}.}.}.}.}.}.}.}.}.[.P.( 2 K N.Z.v.z.D.C.l.g.l.C.B.v.S.",
"z.k.h.j.Z.C.C.C.z.z.g.g.8.J V x w.].}.}.}.}.}.}.}.}.}.}.}.}.}.`.V.I q r D l.z.l.C.Z.N.e.g.C.B.l.B.F.",
"B.z.C.S.S.Z.Z.z.z.v.l.j.8.H Z B e U G.'.}.}.}.}.}.}.}.{.[.`.V.5.k 2 B D J z.B.g.l.g.8.l.D.D.D.F.H.C.",
"C.l.z.C.Z.z.h.g.l.z.v.j.l.-.Z F G u w P o.K.Y.T.~.T.P.V.q.( k 2 u A G G =.l.l.k.z.C.Z.U.S.F.F.B.B.z.",
"g.k.l.l.h.<.g.<.l.C.v.C.j.h.:.J F i i r 4 3 e j k k e e 2 4 V i D $.%.,.l.l.l.z.S.R.D.S.C.B.B.C.z.j.",
"e.v.B.v.j.l.g.e.C.F.C.v.h.j.C.l.-.J G i F H C y t t y S F F G H =.g.C.v.k.g.h.C.R.S.Z.v.k.z.F.z.z.g.",
"j.Z.C.B.v.C.S.F.Z.Z.C.h.g.j.B.j.j.e.,.>.:.=.$.$.J *.*.*.;.:.2.B.U.H.v.8.,.g.Z.H.R.Z.l.e.e.z.z.e.e.g.",
"H.C.Z.C.C.F.F.B.v.C.C.l.v.v.v.C.z.e.v.B.V.l.z.z.C.H.v.C.H.S.D.H.C.l.e.g.2.Z.R.H.H.j.2.2.8.g.e.l.j.C.",
"H.v.v.C.C.v.h.l.B.v.z.l.B.l.l.l.h.v.B.B.C.F.z.N.Z.C.v.C.Z.S.S.B.<.<.,.h.B.H.Z.v.j.k.k.g.h.B.F.F.C.H.",
"C.j.j.g.k.g.g.v.C.j.v.B.z.l.B.C.F.C.F.C.B.v.v.B.C.C.C.C.l.h.e.2.2.e.B.F.P.M.j.h.B.z.C.C.Z.A.H.Z.F.S.",
"l.8.h.l.j.g.l.g.z.Z.z.l.v.B.C.C.H.H.B.v.C.C.v.z.v.v.e.e.e.e.e.e.e.C.E.S.B.B.h.h.l.C.F.C.C.Z.Z.j.e.k.",
"z.z.Z.B.j.h.j.C.S.v.h.h.B.z.C.B.B.e.e.v.Z.Z.v.v.z.h.h.h.<.1.h.v.D.E.S.z.z.k.e.e.k.z.l.h.B.C.h.e.e.j.",
"F.C.F.C.C.B.Z.C.B.v.v.j.k.N.B.B.j.v.v.Z.C.C.C.H.v.v.j.e.j.C.C.H.S.B.B.l.z.e.k.B.B.v.B.B.F.z.e.z.F.C.",
"C.j.C.B.B.B.z.v.H.v.g.j.v.h.k.j.j.B.j.B.B.v.h.e.e.h.e.v.S.S.S.B.j.C.l.2.g.z.B.B.C.j.v.l.N.g.C.v.B.B.",
"j.v.z.z.v.N.B.v.k.e.B.Z.B.z.B.B.F.B.v.B.k.e.e.h.h.e.h.v.B.S.v.C.l.e.e.l.C.F.Z.Z.v.v.Z.F.F.C.S.B.A.B."
};
