/* XPM */
static char *fox_up[] = {
/* columns rows colors chars-per-pixel */
"50 50 147 2 ",
"   c #BA7629",
".  c #A87537",
"X  c #B57A35",
"o  c #CD7313",
"O  c #C97419",
"+  c #D37512",
"@  c #D47815",
"#  c #DB7B15",
"$  c #D57A19",
"%  c #E27F15",
"&  c #C37622",
"*  c #CE7D24",
"=  c #C17A2B",
"-  c #D17E22",
";  c #9E7F53",
":  c #AB7C41",
">  c #877F67",
",  c #827E6B",
"<  c #E58015",
"1  c #EC8416",
"2  c #E2821B",
"3  c #F18615",
"4  c #F58916",
"5  c #FE8E17",
"6  c #F48B1B",
"7  c #FF8F18",
"8  c #FE901B",
"9  c #E88D2A",
"0  c #F28D21",
"q  c #F69327",
"w  c #FC9321",
"e  c #F6972E",
"r  c #FA9629",
"t  c #FA982C",
"y  c #F69A33",
"u  c #F89B33",
"i  c #F39D3C",
"p  c #9E8157",
"a  c #9B835D",
"s  c #AD8048",
"d  c #B48142",
"f  c #A08358",
"g  c #A98759",
"h  c #B88D55",
"j  c #BF945B",
"k  c #89826B",
"l  c #918467",
"z  c #908469",
"x  c #858371",
"c  c #8A8773",
"v  c #8D8A76",
"b  c #9A8F72",
"n  c #928F79",
"m  c #969077",
"M  c #94927D",
"N  c #A0987E",
"B  c #C48943",
"V  c #CC934C",
"C  c #D4964C",
"Z  c #CF9750",
"A  c #CF9E5D",
"S  c #D09F5F",
"D  c #EA9D44",
"F  c #D3A05D",
"G  c #DFA55C",
"H  c #EFA44B",
"J  c #FBA545",
"K  c #F2A54B",
"L  c #F4A84E",
"P  c #E9A552",
"I  c #EEAB59",
"U  c #F3AA53",
"Y  c #F2AC59",
"T  c #DBA865",
"R  c #DEB375",
"E  c #D4B27D",
"W  c #D9B27A",
"Q  c #E7AD61",
"!  c #E2AE69",
"~  c #ECB166",
"^  c #E6B36E",
"/  c #ECB268",
"(  c #E5B471",
")  c #E9B673",
"_  c #EDBB78",
"`  c #FFBA71",
"'  c #939381",
"]  c #9A9780",
"[  c #9C9982",
"{  c #A5A28B",
"}  c #ACA890",
"|  c #B5B196",
" . c #B6B299",
".. c #BAB79C",
"X. c #BEBA9E",
"o. c #BEBBA0",
"O. c #CEB78A",
"+. c #D5B887",
"@. c #DCBB86",
"#. c #D7BD8C",
"$. c #D8BD8C",
"%. c #CFBC93",
"&. c #C3BD9E",
"*. c #D2BF96",
"=. c #C2BEA2",
"-. c #D7C296",
";. c #DBC394",
":. c #D5C39B",
">. c #DCC99E",
",. c #EBC183",
"<. c #E0C08C",
"1. c #C6C1A5",
"2. c #C9C5A6",
"3. c #CDC8A7",
"4. c #C7C3A8",
"5. c #CAC6A9",
"6. c #CEC9AC",
"7. c #D4C7A2",
"8. c #D7CBA6",
"9. c #DAC9A0",
"0. c #D1CDAE",
"q. c #D8CEA9",
"w. c #D5D0AF",
"e. c #DDD0A9",
"r. c #CFCBB0",
"t. c #D2CEB1",
"y. c #D8CFB7",
"u. c #D6D1B3",
"i. c #D9D5B5",
"p. c #DDD8B7",
"a. c #D7D4B9",
"s. c #DAD6B8",
"d. c #DED9BA",
"f. c #E2CFA5",
"g. c #FAD1A2",
"h. c #FFD6AB",
"j. c #E1DDBC",
"k. c #FFDCB7",
"l. c #F3DFBE",
"z. c #E2DEC1",
"x. c #E9DEC7",
"c. c #E5E1C2",
"v. c #E9E5C5",
"b. c #F5EBD5",
"n. c #F7F0E5",
"m. c #FDFAF5",
"M. c #FFFEFE",
/* pixels */
"u.d.p.p.j.i.0.1.5.0.i.u.0.i.6.6.t.a.6.5.6.u.6.5.=.6.0.w.s.a.6.2.5.u.s.u.s.d.d.5.5.s.z.j.j.j.j.u.i.u.",
"t.0.u.i.i.0.6.2.5.u.s.u.0.6.0.u.u.u.0.0.6.t.t.r.6.u.6.u.i.u.1.3.t.t.r.s.i.u.5.3.s.d.z.p.i.a.i.u.a.0.",
"6.0.u.d.u.i.u.0.d.c.a.u.u.i.d.p.u.u.i.0.u.i.u.w.s.0.i.i.d.6.t.s.t.s.s.p.i.t.i.u.u.i.i.d.u.p.w.u.0.u.",
"5.u.p.p.0.0.u.u.s.u.6.t.i.p.d.i.u.u.u.6.w.0.6.3.6.6.i.p.6.1.u.u.u.i.t.6.6.u.t.t.0.6.6.t.6.u.6.2.5.6.",
"a.t.t.6.3.i.t.5.t.6.5.u.d.p.u.i.0.6.0.u.w.0.5.6.t.d.6.6.=.6.i.u.0.u.2.=.u.j.i.0.0.2.5.t.0.0.0.2.6.6.",
"u.5.3.0.u.t.3.6.6.u.5.6.j.i.3.0.6.0.6.6.u.i.w.u.j.d.5.5.1.u.6.1.0.0.1.2.j.c.6.2.6.5.0.0.6.0.6.6.0.t.",
"t.6.6.0.t.5.6.6.t.6.1.0.i.i.u.6.1.2.1.5.u.6.5.a.i.u.6.5.t.t.6.t.u.6.2.i.v.j.t.6.0.5.t.u.i.i.5.4.t.u.",
"1.=.6.t.u.t.6.1.1.1.1.5.r.0.6.6.3.1.X.1.1.&.5.6.1.=.o.6.0.p.p.p.0.6.u.j.p.u.6.6.6.u.d.i.u.u.5.0.0.6.",
"i.p.j.p.i.w.w.1.0.2.&.1.t.0.6.2.o. .=.4.t.t.6.6.1.6.0.i.u.p.j.i.0.u.0.u.6.6.2.0.u.t.t.i.d.d.d.s.u.6.",
"0.0.0.3.i.0.3.1.3.6.6.u.i.s.0.4.=.5.t.3.4.t.t.6.1.5.1.5.1.u.i.6.r.6.0.i.u.u.i.i.6.5.t.u.a.u.u.5.6.6.",
"=.3.0.u.u.0.=.=.2.t.6.i.p.d.0.2.t.t.6.2.6.d.6.1.6.p.t.0.6.0.t.4.1.5.t.0.0.u.0.t.t.i.6.3.r.u.6.t.a.0.",
"u.p.p.0.5.1.1.=.=.6.6.u.i.u.2.4.6.t.=.2.i.0.=.0.i.0.1.2.1.1.1.5.1.1.6.1.2.6.6.t.t.6.6.4.5.0.5.6.6.6.",
"i.0.6.2.3.5.4.1.s.p.i.p.u.r.X.o.4.4.5.t.0.0.0.d.t.5.6.3.3.0.6.3.4.u.p.u.0.5.t.5.5.6.5.5.6.6.6.6.u.p.",
"0.1.2.1.2.1.5.0.z.i.u.6.4.1.1.4.t.t.t.i.0.0.t.t.1.t.t.0.u.u.0.2.u.d.a.u.0.0.u.0.t.i.s.t.6.0.6.6.6.2.",
"=.&.=.=.&.3.t.u.d.i.t.1.1.o.4.i.d.s.p.t.t.u.e.-.#.*.:.7.0.r.t.t.t.u.i.a.u.t.0.t.d.i.5.t.0.0.i.i.0.t.",
"2.2.6.0.0.u.t.i.d.t.%.G T E 7.j.d.i.t.*.( U u r w w r y H ( 9.u.u.s.p.9.@.^ Q 8.t.6.t.t.6.s.j.0.0.5.",
"u.i.u.p.u.u.a.u.3.1...H 5 8 y L ^ @.G e 7 7 7 7 7 7 5 5 5 7 r / <.( K e 8 7 H t.r.0.5.5.6.s.u.4.5.5.",
"d.u.i.a.a.w.0.2.4.o.=.! 5 5 5 5 8 8 7 7 7 7 7 7 7 7 7 7 7 7 7 7 8 7 7 7 7 7 ) u.u.2.1.5.6.3.5.1.6.t.",
"p.i.w.w.6.2.X.X.=.2.u.+.8 8 7 7 7 7 7 7 7 7 7 7 7 7 7 7 7 7 7 7 7 7 7 7 7 w #.5.6.2.t.0.6.t.t.6.t.d.",
"w.w.6.X.....=.1.=.3.t.7.u 7 7 7 7 7 7 7 7 7 7 7 7 7 7 7 7 7 7 7 7 7 7 7 7 e :.t.u.u.d.i.t.s.u.0.t.u.",
"4.....X.2.2.1.1.t.a.3.w.L 5 7 7 7 7 7 7 7 7 7 7 7 7 7 7 7 7 7 7 7 7 7 7 7 U p.u.u.p.i.0.6.0.0.3.1.=.",
"o.1.2.3.5.3.3.u.a.u.u.z._ 5 7 7 7 7 7 7 7 7 7 7 7 7 7 7 7 7 7 7 7 7 7 7 7 _ t.t.0.3.=.=.6.i.0.5.3.2.",
"3.5.6.0.0.6.0.0.w.j.d.a.R 5 7 7 7 7 7 7 7 7 7 7 7 7 7 7 7 7 7 7 7 7 7 7 4 W a.t.t.6.6.t.u.u.u.i.i.0.",
"5.2.w.6.4.=.1.u.v.p.2.1.H 5 7 7 7 7 7 7 7 7 7 7 7 7 7 7 7 7 7 7 7 7 7 7 4 C 0.2.6.6.t.6.u.u.p.0.5.=.",
"5.6.5.3.5.6.s.j.s.4.2.;.r 5 5 7 7 7 7 7 7 7 7 7 7 7 7 7 7 7 7 7 7 7 7 7 4 - *.u.t.d.i.0.0.6.4.2.t.6.",
"6.u.u.p.p.i.u.w.6.0.a.,.8 5 7 7 7 7 7 7 7 7 7 7 7 7 7 7 7 7 7 7 7 7 7 7 4 @ E 6.0.i.t.0.3.6.t.4.2.4.",
"6.0.a.p.w.4.w.5.0.u.s./ 5 7 7 7 7 7 7 7 7 7 7 7 7 7 7 7 7 7 7 7 7 7 7 7 5 @ S t.a.d.i.t.t.5.3.2.3.=.",
"u.u.p.s.5.u.u.u.j.j.s.I 5 5 7 7 7 7 7 7 7 7 7 7 7 7 7 7 7 7 7 7 7 7 7 7 4 @ C 0.t.t.u.a.6.r.0.6.3.t.",
"s.d.s.5.4.a.u.i.d.u.u.U 5 7 7 7 7 7 7 7 5 8 5 7 8 5 5 5 7 7 7 7 7 7 7 7 4 + V 2.3.6.0.6.4.0.3.=.5.0.",
"c.u.5.X.5.d.a.6.u.3.t.I 5 7 7 7 7 7 7 7 5 8 5 7 5 5 8 5 7 7 7 7 7 7 7 7 4 o V 4.t.t.0.0.3.0.t.t.j.d.",
"i.1.=.6.s.5.1.1.u.w.p./ 5 7 7 7 7 7 7 7 5 5 5 8 5 5 7 7 7 7 7 7 7 7 7 5 % + A a.i.z.t.t.0.t.t.0.t.i.",
"5.o.5.6.3.1.1.5.s.w.d.,.8 7 7 7 7 7 7 7 8 5 5 5 5 8 7 7 7 7 7 7 7 7 7 5 # + @.d.d.0.0.t.0.t.6.=.0.0.",
"X.X.6.u.u.5.6.6.u.d.d.>.t 5 8 5 5 8 5 8 5 5 7 7 7 7 7 7 7 7 7 7 7 7 7 4 o 2 1.6.6.1.X.1.5.4.X.1.5.=.",
"a.p.d.s.0.u.u.w.p.p.w.6.P 5 5 8 5 8 5 5 5 8 7 7 7 7 7 7 7 7 7 7 7 7 5 # o Z 1.4.2... .5.5.0.u.5.6.5.",
"p.u.r.5.0.u.u.i.j.j.p.u.#.r 5 5 5 5 5 8 5 5 7 5 7 7 7 7 5 7 5 5 8 4 < o * O.6.5. .o.u.u.5.5.6.u.t.u.",
"c.s.u.0.s.p.a.a.d.d.w.5.1.F 8 5 8 5 5 5 8 5 5 8 7 7 7 7 8 5 5 5 5 < o o j 6.a.6.6.d.u.5.4.5.u.r.6.s.",
"6.5.4.2.i.u.i.w.6.6.1.1.=.M B 7 7 5 5 5 7 7 7 7 7 7 7 7 7 7 5 4 # o o . M 6.w.5.u.i.r.=.1.u.u.5.t.a.",
"r.6.u.s.d.i.u.6.6.6.2.6.X.v k d 2 4 5 8 5 7 7 7 7 7 7 8 5 4 < + o O . k M 3.6.2.2.4.o.6.d.p.s.a.j.u.",
"u.5.6.u.i.6.2.1.3.6.6.6.4.[ x k f = # < 3 4 7 8 7 7 5 < < + o o   p v c M 3.5.4.6.u.a.d.p.i.a.0.t.6.",
"1.5.5.5.4.&.1.X.5.u.w.0.6.X.[ v c > p X & $ 4 7 7 7 1 o O   X p k M M { 1.5.5.5.p.c.d.p.u.t.w.a.6.3.",
"1.6.0.0.5.5.=.1.u.s.u.0.2.6.0.| n x x , z g 6 7 7 7 0 : a z k > M } o.5.4.4.3.u.c.p.i.6.5.r.s.5.6.1.",
"2.i.u.0.6.u.s.i.u.a.u.2.1.3.0.6.1. .{ [ ] b 9 7 7 7 7 h ' [ { &.u.i.0.=...1.a.j.c.s.5.=.=.6.6.=.=.4.",
"j.i.i.a.i.i.s.t.0.u.u.5.0.w.6.u.6.=.6.t.6.&.D 7 7 7 7 q ! >.j.j.u.5.=.=.o.i.c.j.j.6.o.o.&.1.1.4.3.t.",
"j.0.t.u.u.0.2.5.w.w.6.4.w.5.5.2.5.0.t.u.u.s.^ 7 7 7 7 7 7 J x.i.X.X...2.t.j.i.6.5.1.1.1.4.0.i.a.i.d.",
"w.3.6.1.2.1.1.6.u.6.0.0.6.5.r.u.u.i.s.u.u.0.-.e 7 7 7 7 7 ` m.n.y.=.t.s.d.t.6.5.t.5.u.u.p.p.p.p.p.s.",
"2.=.4.2.3.1.5.1.6.i.0.2.0.t.u.a.z.p.t.6.u.u.6.! 7 7 7 7 5 h.M.M.m.x.z.d.a.t.4.1.5.u.i.s.u.u.i.5.=.1.",
"6.6.i.u.2.2.3.u.p.0.2.2.t.6.u.w.t.=.1.6.p.i.t.q.I 7 7 7 8 k.M.M.m.b.i.3.5.5.=.=.5.6.5.1.t.u.5.=.=.4.",
"s.u.u.u.i.0.i.u.u.6.6.6.5.r.t.6.6.6.0.i.u.t.i.d.q.( i q r g.n.b.j.t.t.5.5.=.5.r.u.6.t.t.s.5.1.6.i.y.",
"u.5.a.0.0.r.6.0.p.0.2.2.0.2.5.2.5.t.3.u.0.0.2.=.1.4.&.:.f.e.i.0.3.t.5.=.=.3.t.t.t.3.t.5.t.=.t.0.t.t.",
"3.6.6.6.0.t.u.0.1.1.t.i.t.6.u.t.u.u.0.t.5.=.&.1.1.1.2.0.u.s.0.u.5.=.=.4.a.d.i.s.0.0.y.i.d.t.d.t.d.t."
};
