/* XPM */
static char *gold_door[] = {
/* columns rows colors chars-per-pixel */
"50 50 180 2 ",
"   c black",
".  c #0C0A02",
"X  c #110E03",
"o  c #191404",
"O  c #241D05",
"+  c #3C300A",
"@  c #4E3628",
"#  c #4A3325",
"$  c #523926",
"%  c #543A2A",
"&  c #5A3E2C",
"*  c #5F411E",
"=  c #624F10",
"-  c #60421C",
";  c #665210",
":  c #6F551F",
">  c #6B5611",
",  c #5F412F",
"<  c #5E4424",
"1  c #5F4130",
"2  c #604527",
"3  c #624922",
"4  c #62442D",
"5  c #6D4C2E",
"6  c #6C4A25",
"7  c #6D5223",
"8  c #6F512B",
"9  c #745725",
"0  c #7E5620",
"q  c #755924",
"w  c #7A5D24",
"e  c #75542D",
"r  c #7C562A",
"t  c #7B5A2D",
"y  c #644532",
"u  c #674831",
"i  c #6A4A31",
"p  c #735230",
"a  c #7A5830",
"s  c #805715",
"d  c #8B5F19",
"f  c #8D5F14",
"g  c #806814",
"h  c #896E16",
"j  c #956515",
"k  c #9B6914",
"l  c #92731F",
"z  c #977A18",
"x  c #9A7A1E",
"c  c #A6711C",
"v  c #A8771C",
"b  c #B37A11",
"n  c #B07718",
"m  c #B27918",
"M  c #BB7F16",
"N  c #825927",
"B  c #876725",
"V  c #8D6022",
"C  c #8F6E27",
"Z  c #83612C",
"A  c #88652C",
"S  c #8D6B2C",
"D  c #916323",
"F  c #9C6A20",
"G  c #906D2D",
"H  c #95722B",
"J  c #9A7528",
"K  c #9D792B",
"L  c #A07D24",
"P  c #A47F2A",
"I  c #AA7D25",
"U  c #9F801A",
"Y  c #BC8014",
"T  c #B6931E",
"R  c #BD991D",
"E  c #A48124",
"W  c #A98524",
"Q  c #A98429",
"!  c #B08C22",
"~  c #B38D28",
"^  c #B49021",
"/  c #BC9524",
"(  c #BD9628",
")  c #BF992A",
"_  c #CE8C0F",
"`  c #D18E0F",
"'  c #C68613",
"]  c #CC8A10",
"[  c #D08D10",
"{  c #C59F1E",
"}  c #C89F1E",
"|  c #C7A01F",
" . c #C8A11F",
".. c #DEA91C",
"X. c #C29B24",
"o. c #C09A28",
"O. c #C7A023",
"+. c #CCA422",
"@. c #C7A42B",
"#. c #D1A524",
"$. c #D4AB23",
"%. c #D9AF23",
"&. c #D4AD2A",
"*. c #DCB223",
"=. c #D9B22C",
"-. c #C5A63A",
";. c #CBAA3A",
":. c #DCB633",
">. c #D8B437",
",. c #E2B724",
"<. c #E6BA24",
"1. c #E8BC24",
"2. c #E5BB2A",
"3. c #E3BB34",
"4. c #E1BC3B",
"5. c #BFA959",
"6. c #C8AB47",
"7. c #D1B140",
"8. c #DABB4A",
"9. c #DFBD45",
"0. c #C7AD53",
"q. c #CFB558",
"w. c #D8BC52",
"e. c #D5BB5B",
"r. c #E1BD41",
"t. c #C6B36A",
"y. c #D6BF67",
"u. c #CCBA74",
"i. c #C6B87B",
"p. c #CCBC7B",
"a. c #D1BE70",
"s. c #DEC25D",
"d. c #E3C043",
"f. c #E2C048",
"g. c #DFC463",
"h. c #D6C06A",
"j. c #DAC36C",
"k. c #D5C275",
"l. c #DEC874",
"z. c #D4C37C",
"x. c #DAC67B",
"c. c #E1C561",
"v. c #CCBD81",
"b. c #C7BD8C",
"n. c #C4BE9A",
"m. c #C2BEA3",
"M. c #CFC185",
"N. c #CEC18D",
"B. c #D7C785",
"V. c #D8C784",
"C. c #D1C48D",
"Z. c #DBC982",
"A. c #C5C09F",
"S. c #C9C29C",
"D. c #CDC395",
"F. c #D7CB92",
"G. c #D2C99E",
"H. c #D8CE9F",
"J. c #DAD09F",
"K. c #DED095",
"L. c #E1CE81",
"P. c #E1D499",
"I. c #C6C1A4",
"U. c #CAC5A6",
"Y. c #CBC6A9",
"T. c #CEC9AC",
"R. c #D1CCAE",
"E. c #D6CDA3",
"W. c #D8D2AD",
"Q. c #CFCBB0",
"!. c #D3CEB1",
"~. c #D6D1B3",
"^. c #D9D4B5",
"/. c #DDD8B5",
"(. c #DBD6B8",
"). c #DED9BA",
"_. c #D6D2B8",
"`. c #E1DDBD",
"'. c #E3DFC0",
"]. c #E6E2C4",
/* pixels */
"^.(.^.).`.^.R.U.Y.!.^.~.R.^.T.T.!.^.T.Y.T.~.T.Y.I.T.R.~.^.^.T.Y.T.^.^.~.^.`.`.m.T.^.`.`.`.`.`.^.^.!.",
"!.R.~.^.^.R.Y.U.Y.~.^.~.T.T.R.~.~.~.T.R.Q.Q.~.T.T.~.T.~.^.~.U.Y.Q.Q.Q.`.^.T.Y.Y.`.(.`.`.(.~.^.!.~.!.",
"T.T.^.).~.^.W.T.).].^.~.^.^.).(.^.~.(.~.~._.~.~.^.R.~.^._.T.Q.(.~._.^.`.(.Q.~.^.^.^.^.`.^.(.^./.!.~.",
"Y.^.).^.T.!.~.^.(.~.T.~.^.).).^.~.~.!.G.F.B.k.k.j.h.l.L.B.N.E.^._.^.!.!.Q.^.~.!.T.T.T.T.T.~.R.m.m.!.",
"^.!.~.T.T.^.!.U.Q.T.Y.~.).).^.W.G.z.g.f.:.2.<.<.<.<.1.1.2.:.f.g.L.E.m.m.~.'.^.!.R.m.m.~.!.!.R.m.R.T.",
"~.T.T.T.^.!.Y.T.T.^.Y.T.).W.B.c.>.<.<.<.1.1.<.<.<.<.1.<.1.1.<.1.1.4.e.v.`.'.Q.m.R.T.T.!.R.!.!.!.!.!.",
"T.T.Y.!.Q.Y.Y.T.Q.T.U.T.K.s.3.1.1.1.1.<.1.<.<.<.<.<.<.<.<.<.<.<.<.<.<.3.c.K.T.Q.R.m.~.!.^.^.T.m.R.!.",
"I.I.Y.~.^.~.T.I.I.I.D.j.4.1.<.1.1.1.<.<.<.1.1.1.1.<.1.<.<.<.<.<.<.<.<.<.<.3.y.E.R.~.`.(.~.!.m.!.!.T.",
"^.^.)./.^.~.R.I.Y.M.8.1.<.<.<.<.<.<.<.*.&.$.O.) / ( X.O.&.*.<.<.<.<.<.<.<.<.,.8.C.!.~.(.(.`.`.^.~.m.",
"R.R.R.T.~.W.Y.U.z.3.1.1.<.<.<.<.*.$./ E S w e 5 < 5 p a Z H ~ $.,.,.<.<.<.<.,.<.3.u.R.~.~.^.!.T.T.R.",
"I.Y.W.~.^.Y.I.a.:.<.<.<.<.<.*. .W A 8 u 4 y y 1 % 1 y y y y u t G o.*.<.<.<.<.<.<.:.p.U.Q.W.Q.T.^.!.",
"~./.^.T.Y.A.a.2.<.<.<.<.<. .W Z 5 y y y y y u 1 % y y y y y y 1 y p S o.,.<.<.<.<.<.=.u.U.Q.Y.T.R.!.",
"^.!.Y.Y.Y.z.3.<.<.<.,.*./ C 5 y y y y y y y y 1 % 1 y y y y y y y y y p P =.1.<.<.<.<.>.v.Q.Q.Q.~.(.",
"Y.I.U.I.C.9.<.<.<.<.*.^ Z i y y y y y y y y y 1 % y y y y y y y y y y y i G #.1.<.<.<.,.7.b.T.T.!.m.",
"I.n.I.n.w.<.<.<.<.%.! t y y y y y y y y y u y 1 % 1 y y y y y y y y y y y y A @.<.<.<.<.,.q.W.(.R.^.",
"Y.U.T.z.2.<.<.<.*.T e y y y y y y y y y y y y 1 % y y y y y y y y y y y y y u N #.<.<.<.<.&.V.!.R.m.",
"!.~.J.d.<.<.<.,./ Z y y y y y y y y y y y y y 1 % y y y y y y y y y y y y y y y G =.2.<.<.,.7.n.Y.Y.",
"`.^.l.1.<.<.,. .A i y y y y y y y y y y y y y 1 % y y y y y y y y y y y y y y y i P ,.<.<.<.%.t.T.!.",
").J.r.<.<.<.%.K i y y y y y y y y y y y y y u 1 % y y y y y u y y y y y y y y y y p o.<.<.<.,.7.G.(.",
"R.x.<.<.<.,./ r y y y y y y y u y y y y y y y 1 % 1 y y y y u y y y y y y y y y y y A %.<.<.<.&.v.^.",
"S.w.1.1.<.$.J u y y y y y y y y y y y y y y y 1 % 1 y y y y y y y y y y y y y y y y i ~ <.<.<.*.0.n.",
"M.:.<.1.,.R r y y y y y y y y y y y y y y y y 1 % y y y y y y y y y y y y y y y y y y A =.<.<.,.;.b.",
"k.2.<.<.%.L i y y y y y y y y y y y y y y y y 1 , 1 y y y y y y y y y y y y y y y y y p o.<.<.<.&.i.",
"s.2.<.<.+.A y y y y y y y y y y y y u y y y y 1 % 1 y y y y y y y y y y y y y y y y y y P ,.<.<.&.5.",
"9.<.<.<.^ e y y y y y y y y y y y y y y y y N N V V N 5 y y y y y y y y y y y y y y y y Z %.<.<.*.0.",
":.<.<.*.E 5 y y y y y y y y y y y y y y e c ] ] _ ] ' n r 4 y y y y y y y y y y y y y y p O.1.<.*.-.",
"2.1.1.%.C 4 y y y u y y y y y y y y y r m ] b f 0 j b _ Y r y y y y y y y y y y y y y y i ( 1.<.*.@.",
"2.1.1.$.B , y y y y y y y y y y y y 5 c ` k * @ # < 6 c ` m 5 y y y y y u y y y y y y y y Q <.1.,.O.",
"<.<.1.+.w y y y y u y y y y y y y y N ' b - $ & % 1 y e Y ] 0 y y y y y y y y y y y y y y K <.1.,.O.",
"<.<.<.+.w 4 y y y y y y y y y y y y D ] j $ y & % 4 y y k ] d 1 y y u y y y y y y y y y y H ,.1.,. .",
"<.<.<.+.q 1 y y y y y y y y y y y y F [ k 4 i 4 & 4 i i F ] d & y y y y y y y y y y y y y S ,.1.,. .",
"<.<.<.+.9 , y y y y y y y y y y y y I .. .( ( ( ( ( o.( +...v , y y y y y y y y y u y y y G ,.1.,. .",
"<.<.<.+.9 1 y y y y y y y y y y y p @.1.<.1.1.1.1.1.1.1.<.<.#.e , y y y y y y y y y y y y S <.<.<.{ ",
"<.<.1. .q 1 y y y y y y y y y y y a &.1.<.<.<.<.<.<.<.<.<.<...9 , y y y y y y y y y y y y G ,.<.,. .",
"<.<.1. .9 1 y y y y y y y y y y y a $.<.<.<.<.<.1.1.<.<.<.<.%.7 , y y y u y y y y y y y y G 2.<.,.{ ",
"<.<.<.$.9 1 y y y y y y y y y y y e &.1.<.<.<.,.$.*.<.<.<.<.%.7 , u y y y y y y y y y y y G *.<.<. .",
"<.<.1.+.q y y y y y y y y y y y y a $.1.<.<.*.h + > $.<.<.<.*.7 & y y y y y y y y y y y y G *.2.<.{ ",
"<.<.1. .q 1 y y y y y y y y y y 1 t &.<.<.<.T o   . z 1.<.<. .7 1 y y y y y y y y y y y y S <.1.,.{ ",
"<.<.1.+.q 1 u u y y i y y y y y y i ) <.<.1.R O   X U 1.<.<./ < 1 y y y y y y y y y y y y G ,.<.,. .",
"<.<.1.+.q 1 y y y y y y y y y y y 4 K <.<.<.*.h X ; *.<.<.*.l $ y y y y y y y y y y y y y S ,.1.<.{ ",
"<.<.1.+.q y y y y y y y u y y y y y p @.1.<.1.+.; T 1.1.<.T < , y y y y y y y y y y y y y G ,.2.,. .",
"<.1.1.+.9 1 y y y y y y y y y y y y y t O.*.1.,.$.*.1.*.^ : $ y y y y y y y y y y y y y y G ,.1.,. .",
"<.<.1.+.q 1 y y y y y y y y y y y y y y p E O.*.*.*.| x 3 % 1 y y y y y y y y y y y y y y G ,.<.<.{ ",
"<.<.2.+.q 1 y y y y y y y y y y u y y y y y 8 w q : * $ , 1 y y y y y y y y y y y y y y y G ,.<.,.{ ",
"<.<.1.+.9 1 y y y y u y y y y y y y y y y y 1 , @ , 1 1 y y y y y u y y y y y y y y y y y S ,.2.,. .",
"<.<.<.+.9 1 y y y y y y y u y y y y y y y y y 1 < 1 y 1 u y y y y y y y y y y y y y y y y S ,.1.<. .",
"<.<.<.+.9 1 y y y y y y y y y y y y y y y y y 1 % y y y y y y y y y y y y y y y y y y y y G <.<.,. .",
"1.<.<.+.e y u y y y y y y y y y y y y y y y y 1 % 1 y y y y y y y y y y y y y y y y y y y G ,.<.,.{ ",
"d.<.<. .q y y y y y y y y y y y y y y y y y y 1 % y y y y y y y y y y y y y y y y y y y y G ,.<.&.-.",
"z.>.$.| q 1 y y y y y y y y y y y y y u y y u 1 % 1 y y y y y y y y y y y y y y y u y y y S &.#.-.p."
};
