/* XPM */
static char *mouse_left[] = {
/* columns rows colors chars-per-pixel */
"50 50 124 2 ",
"   c #000000",
".  c #040708",
"X  c #070C0D",
"o  c #090C0C",
"O  c #0D1416",
"+  c #0E1718",
"@  c #121D1F",
"#  c #1A1B1C",
"$  c #131F21",
"%  c #142023",
"&  c #18272A",
"*  c #1A2A2D",
"=  c #1C2E31",
"-  c #1E3134",
";  c #1F3438",
":  c #203236",
">  c #21363A",
",  c #243A3E",
"<  c #293B3D",
"1  c #273C40",
"2  c #2A3E41",
"3  c #323F41",
"4  c #2D4044",
"5  c #324346",
"6  c #3B4444",
"7  c #354649",
"8  c #39474A",
"9  c #374A4D",
"0  c #3B494C",
"q  c #394C51",
"w  c #404647",
"e  c #484A45",
"r  c #434C4D",
"t  c #4A4C4D",
"y  c #43514D",
"u  c #4E504F",
"i  c #444E51",
"p  c #4D4F50",
"a  c #445452",
"s  c #4D5253",
"d  c #4D5955",
"f  c #45555C",
"g  c #4F5658",
"h  c #4B5B5C",
"j  c #535554",
"k  c #565855",
"l  c #5B5C54",
"z  c #545758",
"x  c #55595B",
"c  c #5A5D5E",
"v  c #5E605B",
"b  c #62635C",
"n  c #6B6A5D",
"m  c #4A5A61",
"M  c #5D5F60",
"N  c #5E6061",
"B  c #5A6861",
"V  c #55636B",
"C  c #59666E",
"Z  c #656766",
"A  c #6D6D61",
"S  c #6C6D69",
"D  c #667269",
"F  c #6B756B",
"G  c #6D786E",
"H  c #727264",
"J  c #73746C",
"K  c #72796D",
"L  c #7E7C6B",
"P  c #6A757E",
"I  c #737D72",
"U  c #807E6C",
"Y  c #7C8376",
"T  c #83816F",
"R  c #878572",
"E  c #888671",
"W  c #8D8A75",
"Q  c #85857B",
"!  c #868C7C",
"~  c #8E8C79",
"^  c #95927D",
"/  c #6F7982",
"(  c #8D8C80",
")  c #8C9383",
"_  c #919582",
"`  c #999681",
"'  c #969B87",
"]  c #9C9B85",
"[  c #989788",
"{  c #959B8A",
"}  c #9C9B8C",
"|  c #A19D86",
" . c #9DA18F",
".. c #A5A38B",
"X. c #A7A593",
"o. c #A6A891",
"O. c #ABAB94",
"+. c #B1AE95",
"@. c #B6B297",
"#. c #B6B49A",
"$. c #BAB69C",
"%. c #BDB99E",
"&. c #BFBBA1",
"*. c #C1BC9F",
"=. c #C2BEA2",
"-. c #C6C2A5",
";. c #C9C5A6",
":. c #CDC8A7",
">. c #C6C3A8",
",. c #CAC6A9",
"<. c #CEC9AC",
"1. c #D1CDAE",
"2. c #D5D0AF",
"3. c #CFCBB0",
"4. c #D3CEB1",
"5. c #D6D1B3",
"6. c #D9D5B5",
"7. c #DDD8B7",
"8. c #DAD6B8",
"9. c #DED9BA",
"0. c #E1DDBD",
"q. c #E2DEC2",
"w. c #E5E1C2",
"e. c #E9E5C5",
/* pixels */
"5.9.6.7.0.6.1.-.,.4.6.4.4.6.1.,.4.6.<.,.<.5.<.>.=.<.4.5.9.6.1.>.,.5.8.5.8.8.7.,.<.8.q.0.0.q.0.5.6.5.",
"4.1.5.6.7.1.<.;.,.4.7.4.1.1.1.4.4.6.1.1.<.4.4.4.4.4.:.4.6.4.=.:.4.4.3.8.6.5.,.,.8.9.0.7.7.5.5.5.5.4.",
"<.<.6.9.5.5.5.1.0.q.6.6.4.5.0.9.6.5.6.4.5.6.6.4.6.1.5.6.6.4.4.8.5.6.8.7.8.4.6.5.6.5.8.9.5.7.2.5.4.5.",
",.5.7.7.1.5.4.5.9.4.<.4.6.0.0.2.4.5.4.<.2.1.,.:.1.,.6.0.<.-.5.5.4.8.4.<.<.5.4.4.1.<.<.4.<.5.<.;.,.<.",
"6.4.4.<.<.7.1.;.4.<.>.4.9.0.5.6.1.<.1.4.5.1.,.1.1.0.<.<.=.<.8.4.1.5.;.=.5.0.6.1.1.;.,.4.1.1.1.;.<.<.",
"5.,.<.1.5.1.<.<.<.6.,.1.0.5.1.1.:.1.<.1.6.5.4.5.0.0.,.,.:.4.<.=.1.1.-.;.0.w.<.;.<.,.1.1.1.1.<.<.4.4.",
"4.,.,.1.4.;.,.<.4.1.=.1.6.6.5.:.-.,.-.,.5.1.,.6.5.4.<.,.<.<.1.4.5.<.-.6.e.0.4.<.1.,.4.4.6.6.,.-.4.5.",
"-.=.1.4.5.4.1.-.>.=.-.>.<.1.1.,.,.-.=.=.=.*.:.:.:.=.=.,.1.0.9.0.1.1.5.0.7.2.<.<.<.5.9.6.5.5.,.1.4.,.",
"7.6.0.7.6.2.2.-.1.-.*.=.1.4.1.,.&.@.*.;.<.1.<.<.=.<.5.6.5.7.0.8.4.5.<.5.<.<.,.1.5.5.4.5.7.9.q.5.5.<.",
"1.1.1.:.5.1.:.;.:.1.<.6.5.6.1.=.-.,.1.<.>.5.5.<.$.X.' O.%.6.6.<.<.1.1.6.5.5.6.6.<.;.5.5.8.5.4.,.,.<.",
"-.:.1.6.6.1.=.=.-.4.1.6.0.0.1.-.<.5.<.-.<.7.>.! d 0 7 9 B O.4.>.-.,.4.1.1.5.1.4.4.5.<.<.<.5.<.4.6.1.",
"5.6.6.1.,.-.-.=.=.1.<.4.7.4.,.-.<.3.-.>.8.<.I 7 s x M z 0 8 ) <.-.-.<.-.;.<.<.4.4.<.<.>.<.<.,.<.4.<.",
"7.1.:.:.:.,.,.=.7.7.9.0.4.1.=.=.;.-.>.2.6. .0 x N M M M c 0 a $.,.5.9.5.1.<.4.,.,.,.,.,.<.<.<.<.5.8.",
"<.-.-.-.;.-.-.4.q.6.1.1.-.=.=.-.5.5.5.5.<.F r v M M M M N x 4 ! 5.7.5.5.1.<.5.1.5.6.8.4.1.1.<.<.<.,.",
"-.*.-.*.*.:.4.5.7.6.4.-.-.$.,.7.9.8.7.5.=.a a N M M M M N N 5 G 4.6.6.6.4.4.<.5.7.6.<.3.1.1.5.6.<.5.",
";.-.<.1.1.5.1.7.9.4.=.$.$.=.4.0.9.6.>.! h 2 4 x M M M M N c 5 D 6.8.8.4.4.<.;.4.5.<.4.4.<.6.q.1.1.,.",
"2.6.6.6.6.5.6.5.<.>.%.@.=.<.6.8.5.' a , , , , 5 s M N M N x 2 a  .5.5.1.<.<.<.5.<.4.<.;.<.6.5.,.>.,.",
"9.6.6.6.6.2.<.:.>.&.-.>.9.0.9.4.I 4 , , , , , , 1 0 g c x 0 1 ; 4 Y >.6.<.5.6.5.5.>.-.,.<.<.,.-.<.4.",
"7.6.6.2.<.-.%.%.*.>.5.>.8.5.>.D , , , , , , , , , , 1 4 4 , 1 ; , , D -.,.6.1.<.<.,.4.1.,.4.1.<.4.0.",
"2.3.<.%.@.$.%.-.*.1.4.4.<.>.G , , , , , , , , , , , , , , , 1 1 , , , G ,.:.<.1.5.5.7.5.5.6.5.1.4.5.",
">.$.%.%.>.;.-.-.<.5.<.5.9. .4 1 4 4 , , , , , , , , , , , , , , , , , 2 _ 8.8.5.5.9.6.1.<.1.1.<.=.=.",
"*.-.-.:.:.,.<.6.6.6.2.q.,.a ; q x x 5 , , , , , , , , , , , , , , , , ; y ,.4.5.1.<.-.=.;.6.1.;.,.:.",
"<.,.<.1.2.,.<.<.2.q.9.6.Y , 5 x a g g 2 , , , , , , , , , 1 , , , , , , > ! 8.4.1.<.<.1.6.5.5.6.6.1.",
",.;.2.<.:.*.>.6.w.9.:.#.a , q 8 , 2 i 4 , , , , , , , , , ; 1 , , , , , - d ,.>.<.1.1.<.5.5.7.1.,.=.",
";.<.<.;.<.<.6.0.5.,.,.o.4 1 5 , * ; 4 5 , , , , , , , , , , , , , , , 1 > > O.8.4.0.6.1.1.,.<.=.3.<.",
"<.5.5.7.8.6.5.1.1.1.5.) , 1 4 * . % 1 1 , , , , , 1 , , , , , , , , , , > : _ <.<.5.5.4.<.<.5.<.:.,.",
"<.1.6.9.1.-.2.<.4.5.8.G ; 1 1 $   O , 1 , , , , , , , , , , , , , , , , , = J 4.8.0.6.4.1.,.<.=.:.=.",
"2.5.7.8.,.5.6.2.9.0.8.D ; 1 ; +   X ; , , , , , , , , , , , , , , , , , , = k } X.=.5.8.<.<.1.<.,.1.",
"6.0.6.<.>.5.5.6.9.5.4.F > , , +   X > , , , , , , , , , , 1 , , , , , , , = 3 M M J $.<.:.<.,.=.=.1.",
"w.5.,.%.<.9.5.<.5.<.5.I , , , $   + , , , , , , , , , , , , , , , , 1 , > = r J Z c U ,.,.1.1.4.0.0.",
"5.-.=.<.8.<.>.-.5.1.6.) , , , = X & 1 , , , , , , , , , , , , , , , , 1 : : / 3.&.Q S =.1.5.5.1.6.5.",
",.=.>.1.,.=.-.<.6.6.8.{ , , , , - > , , , 1 , , , , , , , , , , , , , < : w O.q.q.&.S &.1.4.<.=.1.1.",
"$.&.3.4.4.<.1.1.,.o.I 8 , , , , > , 1 q q , , , , , , , , , , , , , , 1 w b =.4.3.=.Q U &.=.&.=.,.=.",
"6.7.0.8.1.=.T l 6 4 , , , , , 4 q m m f 2 , , , , , , , 1 1 , , , 1 8 r t ~ =.,.=.$.@.[ ( O.3.3.3.,.",
"9.5.<.,.4.n     . - , , ; 1 V / / V m f m q , , , , , , 1 ; 1 1 7 p p t v $.<.,.$.&.4.4.,.=.3.3.5.5.",
"w.8.5.<.7.^ o   # r 7 < 1 1 9 f V C M f q 2 , , , , , , 1 1 5 p x u t t H +.5.1.4.9.4.,.=.,.5.4.:.8.",
"<.,.,.;.6.1.R e e p t e 7 4 < , , 2 7 f q , , , , , 2 5 i g c z p t u n U ~ =.,.6.6.3.=.=.4.4.,.4.6.",
"3.<.4.7.7.6.6.-.O.[ H b k s y t i i 0 0 8 8 0 r i f x M x z u t t z J U W W =.-.>.=.&.3.q.q.9.6.0.5.",
"4.,.<.5.6.1.-.-.<.4.%.W U U H A c u p j j z k z x z p p p t t u v U ~ W E | :.-.<.4.6.9.8.8.5.4.5.<.",
">.,.,.,.-.=.-.%.,.5.1.=.| E E ~ U H b k j u p t p t p p j b H L U ^ ` ] +.-.:.,.0.q.9.0.4.4.5.5.<.<.",
"=.<.4.1.<.,.=.=.5.8.5.1.-.$.+.] E R U U U U H H n H H U R R W W | $.=.:.=.,.,.6.q.0.6.1.=.1.8.,.3.=.",
",.6.5.4.1.4.9.6.5.5.5.,.-.1.1.:.=.@.X.....| ^ ^ ^ | | ..X.@.$.4.0.0.4.=.=.=.5.0.q.6.,.=.=.4.<.=.=.=.",
"0.5.6.5.6.6.9.1.4.5.5.,.1.1.1.1.<.=.<.4.1.,.,.1.5.0.1.5.0.9.9.0.4.,.=.=.=.5.q.0.0.<.=.=.=.=.=.>.<.4.",
"0.1.4.5.4.1.;.,.4.1.<.,.4.,.,.:.,.1.4.4.6.6.1.1.7.6.1.5.6.6.9.1.=.$.$.,.4.0.8.<.,.=.=.>.:.4.6.8.6.8.",
"5.:.,.-.-.-.-.1.1.1.1.1.<.,.4.5.5.6.6.6.5.1.1.5.5.6.4.5.-.-.-.=.=.=.3.8.8.5.<.,.4.,.4.5.6.0.6.0.0.0.",
":.=.-.,.,.-.,.-.1.5.1.,.1.4.5.6.q.0.4.<.5.5.:.,.:.1.=.=.=.=.=.=.=.5.q.0.5.4.=.,.,.5.6.0.5.6.6.=.=.=.",
"<.<.7.4.:.;.,.5.7.1.;.:.4.<.4.5.4.=.>.:.0.5.1.1.1.-.-.:.*.$.-.<.0.e.8.,.<.,.=.=.>.<.,.=.<.8.:.=.=.=.",
"8.6.5.5.5.1.7.5.4.<.1.,.>.<.4.4.<.:.1.5.5.5.5.0.5.1.,.=.,.4.6.0.0.4.4.,.3.=.=.4.5.3.4.5.8.,.=.<.6.6.",
"4.<.5.4.4.3.<.1.7.1.-.,.1.-.,.,.,.4.;.4.1.1.:.=.-.:.=.1.0.9.9.1.:.3.<.=.=.<.<.5.4.:.4.,.3.=.5.1.4.4.",
":.<.1.,.1.4.4.1.-.-.4.7.4.1.4.4.6.5.1.4.,.=.*.-.-.=.-.1.4.6.1.4.,.=.=.=.6.8.6.8.1.1.5.6.8.6.8.4.8.2."
};
