/* XPM */
static char *mouse_right[] = {
/* columns rows colors chars-per-pixel */
"50 50 135 2 ",
"   c #000000",
".  c #070C0D",
"X  c #0A0D0E",
"o  c #090F10",
"O  c #0C1314",
"+  c #0E1718",
"@  c #1A1916",
"#  c #111B1D",
"$  c #1A1B1B",
"%  c #131F21",
"&  c #162326",
"*  c #19282B",
"=  c #1B2E31",
"-  c #1E3235",
";  c #203336",
":  c #22363A",
">  c #243A3E",
",  c #2B3A3D",
"<  c #323334",
"1  c #303C3F",
"2  c #41413A",
"3  c #273C40",
"4  c #293E41",
"5  c #373F41",
"6  c #2D4144",
"7  c #324346",
"8  c #344549",
"9  c #35494B",
"0  c #3C4A4C",
"q  c #3F514F",
"w  c #3B4D53",
"e  c #404547",
"r  c #444B4D",
"t  c #4B4D4E",
"y  c #434E51",
"u  c #494E50",
"i  c #455252",
"p  c #4C5355",
"a  c #4B5B57",
"s  c #45555C",
"d  c #4F5658",
"f  c #4D5C59",
"g  c #525453",
"h  c #575855",
"j  c #5B5C56",
"k  c #545658",
"l  c #55595A",
"z  c #5A5D5E",
"x  c #54625D",
"c  c #5E635C",
"v  c #5F685F",
"b  c #63645C",
"n  c #696759",
"m  c #4A5A61",
"M  c #505F66",
"N  c #5D5F60",
"B  c #5D6161",
"V  c #5D6A63",
"C  c #536269",
"Z  c #5D6A72",
"A  c #626464",
"S  c #616C63",
"D  c #6A6B62",
"F  c #6B6C6A",
"G  c #677064",
"H  c #6B776C",
"J  c #6F786E",
"K  c #737365",
"L  c #71726B",
"P  c #70786B",
"I  c #7D7B6A",
"U  c #67727B",
"Y  c #69747D",
"T  c #767E71",
"R  c #7D7E73",
"E  c #807F6E",
"W  c #768075",
"Q  c #7B8375",
"!  c #7F8078",
"~  c #85826F",
"^  c #868370",
"/  c #898673",
"(  c #8D8A75",
")  c #848C7E",
"_  c #8F8C78",
"`  c #928F79",
"'  c #93917C",
"]  c #99957F",
"[  c #868E80",
"{  c #8F8F82",
"}  c #969586",
"|  c #989680",
" . c #949986",
".. c #9D9A83",
"X. c #969689",
"o. c #939988",
"O. c #999B8A",
"+. c #A29E87",
"@. c #A09E89",
"#. c #9EA08C",
"$. c #9EA390",
"%. c #A1A18C",
"&. c #A8A58E",
"*. c #A6A894",
"=. c #ADAB95",
"-. c #ADAA98",
";. c #B0AF96",
":. c #B0AE98",
">. c #B5B196",
",. c #B5B399",
"<. c #BAB69C",
"1. c #BDBA9E",
"2. c #B9B7A0",
"3. c #BDBBA2",
"4. c #C1BC9F",
"5. c #C2BEA2",
"6. c #C6C1A5",
"7. c #C9C5A6",
"8. c #CCC8A7",
"9. c #C7C3A9",
"0. c #CAC6A9",
"q. c #CECAAC",
"w. c #D1CDAE",
"e. c #D5D0AF",
"r. c #CFCBB0",
"t. c #D3CEB1",
"y. c #D6D1B3",
"u. c #D9D5B5",
"i. c #DDD8B7",
"p. c #DAD6B8",
"a. c #DED9BA",
"s. c #E1DDBC",
"d. c #E2DEC1",
"f. c #E5E1C2",
"g. c #E9E5C5",
/* pixels */
"y.a.u.i.s.u.w.6.9.t.u.t.y.u.q.8.t.u.q.q.8.u.0.9.5.t.w.t.a.u.w.9.0.y.p.y.p.i.a.0.q.p.d.a.s.s.s.u.y.y.",
"t.w.y.u.u.y.8.7.q.t.a.w.q.w.w.t.t.u.w.q.w.t.t.t.q.t.w.t.u.t.5.8.r.t.r.p.u.y.0.8.p.i.d.a.p.u.y.y.y.w.",
"q.q.u.a.y.u.y.w.s.d.u.u.y.y.s.s.u.t.u.t.y.u.y.y.a.w.y.u.u.t.t.a.t.p.p.i.p.t.u.y.u.u.u.a.u.p.y.y.y.y.",
"0.y.i.i.w.w.y.y.a.t.q.t.u.a.s.e.y.y.t.q.w.w.q.8.8.q.u.a.8.7.t.y.y.u.t.q.q.y.y.r.8.8.q.t.8.y.q.6.0.q.",
"u.t.t.q.8.u.t.0.w.q.0.t.s.a.y.p.w.q.w.t.t.w.q.8.t.a.q.q.5.q.p.t.y.y.7.3.y.s.u.w.y.0.0.y.q.t.w.7.q.q.",
"t.8.0.t.y.t.8.q.q.u.9.w.a.y.w.w.q.w.w.q.u.u.t.y.s.s.8.9.9.y.0.7.w.w.6.0.s.f.q.0.q.0.q.w.w.w.w.8.t.t.",
"t.q.q.t.t.0.q.q.t.t.5.w.u.u.t.8.5.9.7.0.t.w.0.u.y.t.8.q.q.q.q.t.y.8.6.u.g.s.w.8.q.0.t.y.u.y.0.9.r.y.",
"6.5.8.t.y.t.q.6.9.5.5.9.w.w.w.q.8.7.4.5.5.5.7.q.9.5.5.q.w.s.a.s.w.w.y.s.i.y.q.q.q.y.a.p.y.y.0.w.y.8.",
"u.i.s.i.y.e.e.7.8.6.5.5.w.t.q.0.3.,.5.0.q.t.w.q.5.q.w.u.y.i.s.i.w.y.q.y.w.8.0.w.y.y.t.p.p.a.a.p.y.8.",
"w.w.w.8.u.w.8.7.8.t.q.u.u.u.w.5.5.0.w.q.0.t.t.9.5.8.7.0.6.y.y.q.r.q.w.u.y.y.u.y.q.9.y.y.p.y.y.0.0.q.",
"5.8.w.u.u.w.5.5.7.t.t.t.s.s.w.7.w.t.q.7.5.o.S a B [ 3.w.w.w.t.9.9.0.t.t.t.y.w.t.y.y.8.8.r.y.q.r.u.t.",
"y.i.u.w.8.5.7.5.5.w.w.t.u.t.7.9.q.t.5.=.V 7 w p i 0 i O.6.5.6.q.6.6.8.6.7.q.q.y.q.q.q.9.q.q.q.q.r.q.",
"p.w.8.7.8.0.9.5.u.a.i.s.t.w.5.5.9.6.5.V 6 l N N N N y i >.e.8.8.9.y.i.y.y.0.r.0.0.q.0.0.q.q.q.q.y.p.",
"8.6.7.6.0.6.7.w.d.u.w.w.7.5.5.5.y.y.%.6 d N N N N N N 0 Q y.t.0.y.a.y.y.q.w.y.t.y.u.p.r.q.w.8.r.q.0.",
"6.4.5.5.5.8.t.u.a.y.t.7.5.<.q.i.a.p.Q 7 z N N N N N N i f r.t.t.t.u.u.u.y.w.8.y.i.u.q.r.e.q.y.u.w.y.",
"0.7.q.w.w.y.w.u.a.t.5.<.<.5.t.s.a.p.H 8 N N N N N N N 9 8 [ 3.y.y.u.p.y.w.q.7.y.y.q.w.t.0.p.f.w.w.0.",
"t.u.u.u.y.y.y.e.q.9.1.,.5.q.u.p.y.3.x 6 z z B N N z y 3 > > q ) 9.y.y.w.q.8.q.y.q.w.8.0.q.p.y.0.9.0.",
"s.u.u.u.p.e.w.8.6.4.5.9.a.d.a.a.%.i > > i B B z p 7 > > > > - > f *.y.y.q.y.u.y.y.9.9.0.8.0.0.6.q.t.",
"a.e.e.t.q.6.1.3.4.9.e.0.p.e.r.o.9 > > > 3 0 w 9 3 > > > > 3 3 3 > 9  .r.0.p.w.0.8.0.y.q.0.t.t.0.t.a.",
"w.t.w.1.,.1.3.6.4.q.t.r.q.r.o.9 - > > > > > > > > > > > > 3 - 3 > > 7 o.w.8.0.y.u.y.i.y.y.p.y.e.y.y.",
"8.<.1.1.9.7.6.6.t.p.q.w.a.2.q - 3 3 > > > > > > > > > > > > > > > 3 - q ;.p.u.y.y.a.y.w.8.y.e.7.5.5.",
"4.6.6.8.8.8.8.y.u.y.t.d.u.V - 6 > > > > > > > > > > > > > 3 > 3 r p 8 - S y.y.y.w.0.6.5.0.y.w.0.8.9.",
"8.8.q.t.t.q.w.w.t.s.s.u. .3 > > > - 6 > > > > > > > > > - 3 3 q z z l 6 > #.p.y.w.8.q.y.u.y.y.u.u.w.",
"0.8.t.q.6.4.9.y.g.a.8.4.C > > > > 3 > > > > > > > > > 3 3 3 6 p 8 4 i 0 - S q.7.q.w.t.q.y.y.i.r.8.5.",
"9.q.q.7.8.w.u.s.y.9.0.,.9 > > > > > > > > > > > > > > > > > 7 8 > : 3 0 : 7 2.y.t.s.y.w.w.0.0.7.t.q.",
"q.y.y.i.i.y.y.w.w.q.u.O.3 > > > > > > > > > > > > > > > > > 6 3 * o - 6 : ; #.q.q.u.y.t.q.q.t.7.0.9.",
"q.t.u.a.t.9.t.q.r.u.s.T > 3 3 3 > > > > > > > > > > > > > > 3 > +   & > > - Q e.p.p.u.t.q.q.q.7.0.5.",
"t.y.i.p.q.y.y.y.s.t.9.S - 3 - 3 > > > > 3 > > > 3 > > > > > 3 - X   + > > * D w.t.t.y.p.q.q.q.q.8.t.",
"p.i.a.8.6.y.y.r.X.L F 9 > > > > > > > > > > > > > > > > > > > - .   O > : = c 9.0.8.w.q.7.w.8.5.7.w.",
"f.y.0.3.8.a.y.o.N N B w > > > > > > 3 > > > > > > > > > > > > 3 O   # > : = A 9.y.t.w.t.0.w.w.t.s.s.",
"u.6.5.8.p.q.3.H F o.:.J > > > > > > > > 3 > > > > > > > > > > 3 &   * > > = T u.u.d.t.t.w.y.y.w.y.y.",
"0.3.9.t.0.5.=.F -.y.d.*.w > > > > > > > > > > > > > > > > > > > ; & : > > > #.s.s.w.q.t.q.t.q.5.q.w.",
"<.3.w.t.t.0.X.R r.a.s.5.A y 3 3 > > > > > > > > > > > > 3 4 3 : : > > > > > B *.6.6.5.5.0.6.4.6.0.5.",
"p.i.a.u.,.{ E 2.p.a.t.0.R N p 4 > > > > > > > > > > > > 3 w m m 9 4 > > > > > 4 a J ` >.7.w.t.0.r.q.",
"i.y.r.9.5.2.0.i.d.s.a.t.-.A N l 0 3 > > > > > > > > > > 4 9 w m C Z C w > > > > - X X @ I q.r.t.t.t.",
"f.p.t.w.p.s.u.u.a.a.t.8.,.F N N z p 8 3 > > > > > > > > 7 s m M Z Y U M 3 > > 4 1 X     n q.y.t.8.u.",
"t.9.7.8.u.y.y.y.w.8.6.<.` ~ D z N N z k 0 4 > > > > 3 3 > w m s w 6 : : : , 5 r r < $ 2 =.u.t.0.t.u.",
"w.q.t.a.s.u.y.w.w.w.7.<.^ ^ ~ A k z N N N z p u 0 7 4 4 4 4 5 3 3 3 , 5 e t g h D R } 3.a.i.i.p.s.u.",
"t.8.t.y.t.w.5.6.7.w.w.6.' ~ ~ ~ K h t k z z N N z z k g k u t r r u h D D K E @.9.y.p.d.i.p.y.t.t.q.",
"6.9.9.9.7.5.5.5.0.t.w.w.4.] / ( / I K j g u t u t u t t u t t g z E ` ` ^ ( +.0.i.f.a.a.y.t.t.y.q.q.",
"6.q.w.w.q.0.5.5.y.u.t.w.8.0.<.+./ ^ E E E K n j j j c b n K K E ` | ] ] @.,.8.y.d.i.p.q.9.q.p.0.t.5.",
"0.u.y.t.q.t.a.u.y.u.y.0.6.8.t.8.4.:.+.+.] ` / / / ( ( ( ` ' | @.<.<.4.<.<.9.y.s.f.p.0.5.5.w.q.5.5.5.",
"s.y.u.y.u.p.a.t.t.u.t.8.w.t.w.t.q.5.q.t.w.5.5.5.7.q.5.7.t.t.u.a.t.q.5.5.4.u.f.s.s.q.3.5.5.5.5.0.q.t.",
"s.w.t.y.t.w.7.9.t.w.w.6.t.0.0.0.9.w.t.t.y.u.w.t.i.u.w.y.a.a.a.w.5.<.<.7.t.s.u.w.8.6.5.6.7.t.u.u.y.s.",
"e.8.8.6.7.5.6.t.t.8.t.t.q.q.r.t.u.u.u.y.t.w.w.t.y.u.t.t.7.6.5.5.3.5.t.u.a.t.r.9.r.0.t.y.a.i.i.i.a.p.",
"0.5.7.0.8.6.0.6.q.u.q.8.w.t.y.u.s.s.t.q.y.y.w.8.q.w.5.5.5.5.5.5.5.y.d.a.t.t.9.7.0.u.p.u.y.y.p.8.5.5.",
"r.q.u.t.8.7.0.y.i.w.7.7.t.q.t.y.t.5.5.q.a.u.w.w.q.7.7.7.1.<.5.w.s.g.a.q.0.0.5.5.9.q.0.7.w.y.9.5.5.0.",
"p.y.y.y.y.t.u.u.t.w.w.8.9.q.t.t.q.q.t.u.t.y.y.s.y.w.8.5.0.y.p.s.s.t.t.9.q.5.9.t.t.t.t.t.p.q.5.q.u.y.",
"t.q.y.t.t.r.q.w.i.w.6.0.q.0.0.0.8.t.0.t.w.w.7.5.6.7.5.w.a.a.p.w.7.t.0.5.5.q.r.t.t.8.t.q.r.5.t.t.t.t.",
"8.8.t.q.q.t.t.w.7.6.t.i.t.q.t.t.u.t.w.t.8.5.5.7.7.5.7.q.t.u.t.t.0.5.5.7.y.a.i.u.w.w.y.y.p.y.a.t.a.t."
};
