/* XPM */
static char *mouse_down[] = {
/* columns rows colors chars-per-pixel */
"50 50 127 2 ",
"   c #010101",
".  c #070B0C",
"X  c #0C1315",
"o  c #0E1618",
"O  c #0F181A",
"+  c #141718",
"@  c #101A1C",
"#  c #162427",
"$  c #172628",
"%  c #1A2A2D",
"&  c #1B2E31",
"*  c #1F3439",
"=  c #233336",
"-  c #22363A",
";  c #243A3E",
":  c #283A3D",
">  c #263C40",
",  c #293E41",
"<  c #2E4244",
"1  c #2F4348",
"2  c #324346",
"3  c #3E4446",
"4  c #344549",
"5  c #39474B",
"6  c #364849",
"7  c #3C4A4C",
"8  c #3F5055",
"9  c #444949",
"0  c #4A4C4D",
"q  c #4E514F",
"w  c #434E50",
"e  c #484E50",
"r  c #455353",
"t  c #4C5254",
"y  c #475856",
"u  c #485855",
"i  c #44555B",
"p  c #4A565B",
"a  c #4C5B5B",
"s  c #535554",
"d  c #565854",
"f  c #525758",
"g  c #55595B",
"h  c #5A5D5E",
"j  c #54625D",
"k  c #5E645D",
"l  c #62635B",
"z  c #63695F",
"x  c #4B5A61",
"c  c #5D5F60",
"v  c #576560",
"b  c #5E6061",
"n  c #5F6C65",
"m  c #546269",
"M  c #5D656A",
"N  c #5B6870",
"B  c #626364",
"V  c #626C62",
"C  c #6D6C60",
"Z  c #62666A",
"A  c #67696D",
"S  c #67736A",
"D  c #6C736B",
"F  c #737365",
"G  c #72736D",
"H  c #727B6E",
"J  c #7C7B6B",
"K  c #626E77",
"L  c #6A6C70",
"P  c #636F78",
"I  c #737574",
"U  c #737E72",
"Y  c #7D7E76",
"T  c #817F6E",
"R  c #778075",
"E  c #7E8476",
"W  c #7C857A",
"Q  c #83816E",
"!  c #858370",
"~  c #898673",
"^  c #8D8A75",
"/  c #828479",
"(  c #848B7C",
")  c #8B8C7B",
"_  c #908D78",
"`  c #95927C",
"'  c #98957F",
"]  c #908F83",
"[  c #8B9283",
"{  c #919183",
"}  c #999680",
"|  c #969C8A",
" . c #9B9D8B",
".. c #A09D86",
"X. c #A3A38C",
"o. c #A9A58C",
"O. c #A4A691",
"+. c #A6A892",
"@. c #ABAB95",
"#. c #AEAC99",
"$. c #B2AE94",
"%. c #B5B196",
"&. c #B6B49D",
"*. c #BAB69B",
"=. c #BEBA9E",
"-. c #BDBBA1",
";. c #C1BC9F",
":. c #C2BEA2",
">. c #C6C1A5",
",. c #C9C5A6",
"<. c #CDC8A7",
"1. c #C6C3A8",
"2. c #CAC6A9",
"3. c #CEC9AC",
"4. c #D1CDAE",
"5. c #D4D0AF",
"6. c #CFCBB0",
"7. c #D3CEB1",
"8. c #D6D1B3",
"9. c #D9D5B5",
"0. c #DDD8B7",
"q. c #DAD6B8",
"w. c #DED9BA",
"e. c #E1DDBC",
"r. c #E2DEC1",
"t. c #E5E1C2",
"y. c #E9E5C5",
/* pixels */
"8.w.0.0.e.9.4.>.2.4.9.8.8.9.3.3.8.8.3.3.3.8.2.2.>.3.4.8.9.9.3.2.2.9.q.8.q.q.w.,.3.9.r.w.w.r.r.9.9.5.",
"7.4.8.9.9.4.4.,.3.7.9.7.3.3.3.9.8.8.3.3.3.7.7.6.3.7.3.8.9.8.>.3.7.6.3.q.9.8.2.2.q.w.r.w.q.9.8.8.9.4.",
"3.3.9.w.8.9.4.4.r.r.9.8.8.9.e.w.8.8.q.8.8.9.8.5.q.5.8.9.9.3.3.q.8.9.9.q.q.7.8.9.9.8.9.w.8.q.8.8.7.8.",
"2.8.0.0.4.7.7.9.q.8.3.7.9.0.0.8.8.8.8.3.5.4.3.<.3.3.9.w.3.,.8.8.8.9.8.3.3.9.8.6.3.3.3.5.3.8.3.,.,.3.",
"9.7.7.3.<.9.7.2.7.3.2.8.w.0.8.9.3.3.5.8.5.4.<.3.7.w.3.3.>.3.9.8.5.8.,.:.8.w.9.3.5.,.2.7.4.4.4.,.3.3.",
"8.2.<.4.8.7.<.3.3.8.2.3.e.8.3.4.3.3.3.3.8.9.8.8.w.w.2.,.,.8.2.>.5.3.>.,.w.y.3.,.3.3.4.4.3.4.3.3.4.7.",
"7.3.3.4.7.2.3.3.7.3.>.7.9.9.8.3.,.,.>.,.8.3.2.9.9.8.3.3.3.7.3.8.8.3.>.9.y.r.4.3.3.,.7.7.9.9.3.,.7.8.",
">.:.3.7.8.7.3.>.>.>.>.2.3.4.3.3.3.>.=.>.>.=.2.3.>.>.=.3.8.0.0.q.5.3.8.r.0.8.3.3.3.9.w.q.8.8.,.3.4.3.",
"9.0.0.0.9.5.5.>.4.>.:.:.6.8.6.2.-.%.-.2.3.7.3.3.>.3.4.9.8.0.e.0.6.9.5.9.3.3.<.5.8.8.6.9.q.q.w.9.8.3.",
"4.4.4.3.8.4.<.>.<.4.4.q.6.-.O.O.&.3.4.3.2.7.8.3.1.,.>.2.>.8.9.3.-.@.O.:.6.9.8.8.3.,.8.8.q.9.8.3.3.3.",
":.<.4.9.9.4.:.:.>.7.4.@.n 7 2 7 a [ 1.>.3.w.2.>.3.0.8.4.3.8.,.W r 6 6 7 S &.8.8.7.8.3.2.3.9.3.6.8.4.",
"8.0.9.4.<.>.>.:.:.4.| 6 5 f c g u 6 H >.9.4.>.4.9.3.>.>.>.*.V 2 t h h a 6 r @.8.7.3.3.,.3.3.3.6.7.3.",
"q.4.4.>.<.2.2.:.w.2.y 7 c c c c b f 6 X.8.5.3.q.3.,.3.3.3.) 2 g b c b b b 6 v :.2.3.2.,.3.3.3.3.8.q.",
"4.>.>.>.,.>.>.7.r.| , f c c c c b b r S 4.4.7.8.,.8.8.5.3.a r b c c h b b g 4 O.8.9.q.6.3.4.3.3.3.,.",
":.;.>.;.;.<.4.8.w.U 2 c c c c c c c r u -.&.O.( H R (  . .4 r k c c c c b c 4 [ e.9.3.6.4.3.9.9.4.7.",
",.,.3.4.4.9.4.0.0.U 2 c c c c c c g 2 < a 4 > > * ; ; , < > 2 g b c c c b h 2 ) 9.3.7.7.3.9.r.6.4.2.",
"8.8.9.9.8.8.9.9.3.( , f c c c c t 2 ; ; ; ; ; ; ; ; ; ; ; ; ; 2 a k c b B f 4 O.3.6.3.,.3.9.9.,.:.3.",
"e.9.9.9.9.8.3.<.,.@.8 5 g c p 6 , ; ; ; ; ; ; ; ; ; ; ; ; ; ; ; : 7 f g g 4 j ,.8.,.>.3.3.3.,.>.6.8.",
"0.8.8.5.3.>.=.=.:.,.| 6 , 2 > ; ; ; ; ; ; ; ; ; ; ; ; ; ; ; ; ; ; ; ; 2 , 8 X.3.3.,.4.4.3.3.3.3.8.e.",
"4.8.6.-.%.*.*.>.:.3.7. .a < > ; ; ; ; ; ; ; ; ; ; ; ; ; ; ; ; ; ; ; ; ; j o.3.7.9.9.q.8.8.9.9.5.8.7.",
">.*.=.=.,.,.,.>.3.q.3.8.8.W > ; ; ; ; ; > > ; ; ; > > > > > ; ; ; ; ; : ( q.q.8.8.q.9.3.3.5.8.,.:.:.",
":.>.>.<.,.3.3.8.9.8.7.t.3.y * > ; ; > , r f 5 > ; ; > w f 5 > ; ; ; ; - 7 >.8.8.3.3.:.>.3.9.3.3.2.:.",
"3.<.3.5.3.3.3.3.5.r.w.9./ ; ; ; ; ; ; w g g g 2 * > w c f g 2 ; ; ; ; ; - E q.6.5.3.3.5.8.8.8.9.e.5.",
",.<.4.3.>.>.,.9.y.q.<.*.u ; ; ; ; ; < r 2 , 7 w > , t 2 , 7 w ; ; ; ; ; * u >.,.3.3.4.3.8.8.0.3.:.:.",
",.3.3.2.3.3.9.e.8.1.<.+., > ; ; ; ; 2 4 ; - ; 5 > < 4 ; * ; 7 > ; > ; ; * - +.9.4.e.9.4.8.<.2.:.7.4.",
"3.8.8.0.9.9.8.8.4.4.2.[ ; ; ; ; ; ; , , % . % < > , , & . % , > ; ; ; ; ; & ) 3.6.8.9.6.2.6.9.2.<.:.",
"3.3.9.w.4.,.4.3.3. .G w ; ; ; ; ; ; ; ; O   @ ; > ; > O   O > ; ; ; ; ; ; & D 8.9.e.9.4.3.2.<.:.<.:.",
"8.8.0.q.3.8.8.8.#.B g 5 ; ; ; ; ; ; ; ; X   o ; ; ; * o   X ; ; ; ; ; ; ; & z 3.7.4.9.9.3.4.4.4.2.8.",
"9.e.q.<.>.8.8.9./ B { j ; ; ; ; ; ; ; ; X   X ; ; ; ; o   X ; ; ; ; ; ; ; & B 2.:.2.4.3.:.8.<.:.:.4.",
"t.8.2.=.3.q.8.>.G { 8.U * ; ; ; ; ; ; ; O   O ; ; ; ; O   o ; ; ; ; ; ; - & Z :.9.8.4.4.2.4.4.4.r.e.",
"8.>.:.3.q.3.>. .I >.9.{ 4 ; ; ; ; ; ; ; #   $ ; ; ; ; $   # ; ; > ; ; ; = = T q.9.r.8.4.4.8.8.4.9.9.",
"2.:.1.4.2.#.{ Y #.8.w.&.h 4 ; 1 2 ; ; ; - % - ; ; ; ; - % - ; ; > 2 2 ; - 9 #.e.e.4.6.7.3.7.<.:.4.4.",
"*.-.3.7.7.:.&.:.9.w.e.2.L g 2 4 x x 8 1 > ; > ; ; ; ; ; : > , i x x , > 3 b :.7.3.:.:.:.:.:.:.:.2.:.",
"9.w.r.q.7.9.7.7.w.0.7.3.{ c c y 8 x x K K x > * * * * > x K P c i 8 i e 0 / :.<.:.;.&.3.4.4.7.2.4.:.",
"w.8.3.2.3.8.8.9.e.e.q.8.-.I M L Z c A P N x > X .   o > x N K N m c c t b ;.2.3.*.-.4.7.3.3.6.7.8.8.",
"t.q.7.4.w.0.9.9.0.e.4.<.:._ h Z I L x , > ; * X     X * > , , p Z Z c e ^ 6.9.4.4.e.7.3.:.2.9.7.3.q.",
"3.2.2.,.9.8.9.7.4.3.>.:.;._ J c c c h d p 9 3 = + + = 3 w e g f t e s l ^ 2.7.2.7.e.6.:.:.7.4.3.7.9.",
"7.3.7.w.e.9.8.4.3.4.2.3.:.^ ! F h d h c c c c h f f g c g g q 0 0 f F T ` <.7.:.2.:.:.:.r.e.q.9.e.q.",
"7.<.6.7.8.4.>.>.2.4.4.<.2.o.T ~ T z s q t f d g f f t q e 0 0 q c T ^ ^ o.<.2.:.6.7.9.r.e.q.8.7.8.2.",
">.1.2.2.>.:.:.;.2.7.4.4.3.>.$.} ~ T T C h d q 0 0 0 0 q d l F J T ` ..*.2.2.3.3.e.r.q.e.7.6.7.9.2.4.",
":.3.4.4.3.2.:.:.8.0.7.4.<.<.7.1.o.` ^ T ~ ~ F F C C F T T ! ^ _ ..:.7.4.:.:.<.9.r.e.e.3.:.4.9.3.6.:.",
"<.9.8.7.3.7.w.9.9.8.7.2.>.4.4.4.2.:.*.%.%...' ' ' ......$.$.:.7.r.e.7.:.:.:.9.e.r.q.2.:.:.7.3.:.:.:.",
"e.9.9.8.9.q.w.4.4.8.7.<.4.4.4.7.3.:.3.7.8.2.2.4.5.e.4.8.e.q.e.q.e.:.:.:.:.9.r.e.e.3.:.:.:.:.:.:.2.8.",
"e.4.4.9.7.4.2.1.7.4.4.1.7.3.1.<.2.4.7.8.8.q.4.7.q.9.4.8.q.q.e.7.:.:.:.:.7.r.q.8.<.:.:.:.2.7.q.q.7.e.",
"7.2.<.:.>.>.>.7.7.3.4.7.3.<.7.7.8.q.9.8.8.4.4.7.8.9.8.8.,.:.:.:.:.:.4.q.r.6.2.:.4.2.7.7.e.e.e.9.e.e.",
"<.:.1.3.3.:.<.>.4.9.3.2.7.7.8.8.e.e.7.3.8.8.3.<.3.3.:.:.:.;.:.:.:.8.r.e.8.7.:.3.3.8.q.e.8.8.e.:.:.:.",
"3.3.q.7.<.1.<.8.0.4.>.2.7.3.7.7.4.:.:.3.e.8.4.5.4.:.:.,.;.*.:.4.r.y.q.3.3.2.:.:.:.4.:.2.6.9.:.;.:.:.",
"q.9.8.8.8.7.9.9.7.<.7.<.1.7.7.7.3.3.5.8.8.8.9.e.5.4.,.,.2.8.q.e.e.7.8.:.6.:.:.4.8.6.7.8.9.<.:.4.9.7.",
"7.3.7.7.7.6.3.4.e.3.:.,.4.>.2.2.2.7.2.8.4.5.,.;.,.,.:.4.e.q.q.4.:.7.3.:.:.3.3.7.7.2.4.3.3.:.7.7.7.4.",
"<.3.7.<.6.7.8.4.,.:.8.0.7.4.7.7.8.8.4.7.,.:.:.:.,.:.,.4.7.8.4.8.3.:.:.2.7.e.q.q.4.4.9.9.q.8.q.7.e.8."
};
