/* XPM */
static char *mouse_up[] = {
/* columns rows colors chars-per-pixel */
"50 50 102 2 ",
"   c #1C2E31",
".  c #1E3134",
"X  c #213437",
"o  c #21363A",
"O  c #243A3E",
"+  c #293A3D",
"@  c #273C40",
"#  c #2A3E42",
"$  c #2F4245",
"%  c #324246",
"&  c #3E4446",
"*  c #354649",
"=  c #344849",
"-  c #3D4B4D",
";  c #434849",
":  c #4A4C4D",
">  c #4E504F",
",  c #444E51",
"<  c #4D4F50",
"1  c #405153",
"2  c #4D5253",
"3  c #535554",
"4  c #565854",
"5  c #555758",
"6  c #545A5B",
"7  c #5A5D5D",
"8  c #54625D",
"9  c #5E625E",
"0  c #62635B",
"q  c #63695F",
"w  c #5D5F60",
"e  c #5D6261",
"r  c #5D6A62",
"t  c #626463",
"y  c #636B63",
"u  c #6C6C61",
"i  c #6A6B69",
"p  c #677269",
"a  c #6B736B",
"s  c #6D796F",
"d  c #737366",
"f  c #74756C",
"g  c #727C6E",
"h  c #7C7B6B",
"j  c #747570",
"k  c #747E72",
"l  c #817F6E",
"z  c #778075",
"x  c #7D857C",
"c  c #83816E",
"v  c #858370",
"b  c #898673",
"n  c #8D8A75",
"m  c #84867A",
"M  c #828A7D",
"N  c #8B8C7C",
"B  c #908E7B",
"V  c #95927C",
"C  c #828A86",
"Z  c #8D8C81",
"A  c #8E9383",
"S  c #939384",
"D  c #9A9887",
"F  c #959A89",
"G  c #9B9D8A",
"H  c #A09D86",
"J  c #A4A28B",
"K  c #A9A58C",
"L  c #A4A691",
"P  c #A9A793",
"I  c #ACAA92",
"U  c #A0A298",
"Y  c #B2AE94",
"T  c #B5B196",
"R  c #B4B39C",
"E  c #BAB69B",
"W  c #BEBA9E",
"Q  c #B1B1A5",
"!  c #BEBBA1",
"~  c #C1BC9F",
"^  c #C2BEA2",
"/  c #C6C1A5",
"(  c #C9C5A6",
")  c #CDC8A7",
"_  c #C7C3A9",
"`  c #CAC6A9",
"'  c #CEC9AC",
"]  c #D1CDAE",
"[  c #D5D0AF",
"{  c #C6C4B2",
"}  c #CECBB1",
"|  c #CDCBB8",
" . c #D3CEB1",
".. c #D6D1B3",
"X. c #D9D5B5",
"o. c #DDD8B7",
"O. c #DAD6B8",
"+. c #DED9BA",
"@. c #E1DDBD",
"#. c #E2DEC1",
"$. c #E5E1C2",
"%. c #E9E5C5",
/* pixels */
"..+.X.o.@.X.] / `  .X... .X.' '  .X.' ` ' X.` ` / ' ] ..O...] ` ` X.O...O.o.+.( ` O.@.@.+.@.#...O.[ ",
" .] ..X.o.] ' ( ` ..O. .' ' ] ...... .' '  . .} '  .' ..X.../ ( }  .} O.O...` ` +.+.@.+.O.X.X. .O.' ",
"' ' X.+.......] +.$.X.....X.@.+.....X. .......[ o.] ..X.o.'  .O. .X.O.+.O.] X.O.....O.+.X.O.[ X. ...",
"` ..o.o.] .. ...+. .' ] X.o.o.X.......' [ ] ' ) ' ' X.+.' / ......X. .' ' .. .' ] ' ' ] ' ..' / ` ` ",
".. . .' ' o.] (  .' ` ..@.o...X.' ' ] [ ..] ) ' ..+.' ' / ' X...[ [ ( ^ ..+.O.] [ ( `  .]  .] ( ' ' ",
"..' ` ] ..] ' ' ' ..` } +...' ] ' ] ' ' ..X.....+.+.` ( / ..` / ] ] / ( +.$.' ( ' ` ' ] ' [ ] '  . .",
" .' ' ]  .( ` '  .' / ] O.X...' / ( / ` ..' ( X.X...' ` }  .' ....' ( o.%.@.] '  ./  . .O.X.` /  ...",
"/ ^ '  ... .] / / / / ` ' ] ' ' ' / W / / ~ ` ' / / ^ ' ] o.o.o.] ' ..@.o...' ' ' X.@.X...[ ` ' [ ' ",
"X.o.@.o.X.[ [ ( ] / ~ /  . .' ` W R ~ ( '  .' ' / ` ..X.[ o.@.o.] ..] ..] ' ( ......] O.O.+.@.O...' ",
"] ] ] ) ..] ) / ) ' ] ..X.O.] / ^ ` ] ' (  ...' ( ` / ` / ....' ' ] ] ........X.' (  ...O... .` ` ' ",
"/ ) ] X.X.] ^ ^ /  .] ..o.+.] ( ] ..' / ' +.` / ' o. .' '  . ./ ^ `  .} ] ..] ]  ...' ` } ..'  .X.[ ",
"..X.X.] ` / / ^ ^ ] ' ..X. .( _ '  ./ / O.] _ ' X.' ( / ^ / / ' _ _ ` / ( ' ' .. .' ' ( ' ' ` ' } ` ",
"X.] ] ( ) ` ` ^ X.@.+.o...] ! ^ _ _ _ ] ..[ ' O. .( ' ` ' ] ] ) _ ..O...] `  .` ` ` ` ` ' ' ' ' ..o.",
"] / / / ( / (  .#...[ ] ( ^ ! _  . .....] ' ....( ..........] ( ..O.....] ] ..] ..O.O. .] ] ) ' ' / ",
"~ ~ ^ ~ ~ ) ] ..@.X. ./ / E (  .| { }  ._ R L M s z x G R _ } _ { { ' O.....' ..+...`  .] ] ....]  .",
") ( ' ] ] X.] X.X. .^ T A p e s F Q Q x 8 = @ O O o O @ = 6 C U M r r z L ` ( [ ..] ] } ' o.$.] [ ` ",
"....X.X.........' _ L 8 $ . O O $ - - $ O O O O O O O O O O @ $ O . @ . $ z _ ..' ] ' ( ' O.X./ ` _ ",
"@.X.X...o.[ ] ( _ ! r O O O O O . O O @ O O O O O O O O O O O O O O @ O O O x  ...( _ ` ' ` _ _ ]  .",
"o.....[ ' _ W W ^ G $ O O O O O O O O O O O O O O O O O O O O O @ O O O O O = Q ' ( [ ] ' ] ] '  .+.",
"] ..] ~ T E ~ / ^ z O O O O O O O O O O O O O O O O O O O O O O O O O O O O $ F O...+... .O...[  .X.",
"( E W W ( ( / / ' z . O O O O O O O O O O O @ O O O O O O O O O O @ O O O O O M ..+.O.] ' ] [ ` ^ ^ ",
"^ ^ / ) ( ` ' ..o.x O O O O O O O O O O O O O O O O O O O O O O O O O O O O + F ] ) ^ ^ ' ..] ) ` / ",
"' ` ] ] ] ' ] }  .R $ O O O O O O O O O O @ O O O O O O O O @ O O O O O O O - ! [ ' ' [ ........o.] ",
"` ) ] ' _ ^ _ ..%.X.r O O O O O O @ O O . . O O O O O O O O O O O O O O O @ z / ] ' ] ' ....+.] ` ^ ",
"( ' ' ( ' ] X.@.X.( R r O O O O O O O O   . O O O O O O O .   . O O O O O + L .. .+.X.] ] ` ` ^ ] ] ",
"' ....o.o.....] ] ' O.A O O O O O O . .     . . . O O .     . . O O O O .   N ] ] X. .} ) ` X.` ` ^ ",
"' ] X.+. .( ] ' } X.+.z O . $ O O . .           . .       .   . O O O O @   p  .X.O.X.]  .` ] / ` ^ ",
"....o.X.' .... .#.+.O.p . $ O O O @ O . O .   . . .     . . . O O O O O O   r '  . .X.X.]  .) ] )  .",
"X.+.X.) / ....X.+... .p O O O O O @ O O @ O .   O .   . O O O O O O O @ O   e ( ` ` ] ` / ] ` ^ ( ] ",
"$...' ! ' +.X.} ..' ..k O O O @ O O O O O O . .   .   O O O O O O O O O X   y _ X. .]  .` ] ]  .@.@.",
"X./ ^ ' O.' / ^  .] X.F = O O O O O O O O O O .     . O O O O O O O O + . X m ..X.@.X.] ] ....] ....",
"` ! _ ] ` ^ / ' O...o.Q 8 $ O O O O O O O O O O     . O O O O O O O O O + ; R +.O.] ] ] ]  .) ^ ] ] ",
"E ! ' .. .` ' ] ..+.+.` s 6 $ O O O O O O O @ O     . O O O O O O O O + ; 7 ^  .] ^ ^ ^ ` / ^ ^ _ ^ ",
"X.+.@.O.] X...] X.+.[ ' A 8 6 * @ O O O O O @ .     . . O O O @ O O # ; : N ^ ` / E E ` )  . .`  .( ",
"+...' ` ] ....X.@.@.o...! f w 7 , # + + @ @ @ . . .   . O O O + # - < : w E ] ` E !  . .` (  . . ...",
"$.O...' O.+.X.X.@.o.] ' ^ N e w w 5 - # @ . O . . O . O O O # - 2 < : : n ] ..]  .+. ._ ^ ( X. .) +.",
"' ` ( ( X.......] ' / ^ ^ B f 7 7 w w 7 2 ; * % $ $ $ * - 2 5 5 < : > q b `  .` ..X. .^ (  . ._  .O.",
"} '  .+.+.X...] ' ] ( ' ^ n b d 7 4 7 w e w w w w w w w w 5 > : : 4 d c V `  .^ ` ^ ! _ #.+.+.X.@...",
" .` ' ....] / / ( ] ] ' ) K c b c q 3 3 3 5 5 5 w w 2 < , : : > 0 l B n K ` ) ^ ` ..X.#.+.X.X. . .` ",
"/ ` ` ` ( ^ ^ ~ ` ] ] ] ' ( Y V b l h u 7 5 < 3 w w , < 3 w u l l B H E ) ` ` ] +.%.+.@. . . ...` ] ",
"/ ' ] ] ` ` ^ / ..o. .] ) )  ./ K V n v b n d w 7 u d h v n n B J ^ X.] ( ^ ` ..#.@.X. .^  .X._ ] ^ ",
"` X... .]  .+.........` / ] ] ] ` ^ E T T H m t t B H J I Y E  .#.@.] ^ ! ( ..#.#...( ^ ^  .` ^ / ^ ",
"@...X.....+.+.]  .....` ] ] ]  .` ^ }  . .] T t i ` ] ..+.+.+.+...` ^ ^ ^ ..#.@.@.` ^ ^ ^ ^ ^ ` `  .",
"@.] ] ....] ( ` ..] ] /  .` ` ) ( ]  ...X...` Z t P ] ....+.+.] ^ E E (  .@.X. .] ^ ^ ( /  .X.O.X.+.",
"[ ) ' / / / / ] ] ] ] ] ' `  . .X.X.X... . . .( Z j ^ ../ / / ^ ^ ^  .X.#. .` `  .`  .X.@.@.o.o.+.+.",
"` ^ / ( ' / ` / ] ..] ` ]  ...X.@.@. .` X. .] ` ( m D ^ ^ ^ ^ ^ ^ ..#.+... .( ^ ` ....+.....X./ ^ ^ ",
"} ' o. .) / ` X.o.] ( )  .`  ... .^ ^ ` X.X.]  .} D D ^ W E / ' @.%.+.` ` ` ^ ^ ( } ` /  ...` ^ ^ _ ",
"O.........] o... .` ] ` ` }  . .` ]  .X. .X.X.@. .J R _ ` ..X.@.@. . .` _ ^ (  . .]  . .X.` ^ ] ..X.",
" .' ..] ]  .` ] o.] / ` ] ( ` ` `  .`  .] ] ( ~ ^ E / ] o.+.+.] `  .` ^ ^ `  . . .` ] `  .^  .]  . .",
") ] ] ` ]  . . ./ /  .o. .'  . .....]  .` / ~ / / / / ]  ... ...` ^ ^ / ..+.X.+.] ] ..X.+...+. .+. ."
};
