/* XPM */
static char *rabit_right[] = {
/* columns rows colors chars-per-pixel */
"50 50 146 2 ",
"   c black",
".  c #090909",
"X  c #201D1E",
"o  c #353033",
"O  c #655C61",
"+  c #7F7D6B",
"@  c #827F6B",
"#  c #B5637A",
"$  c #84816F",
"%  c #878371",
"&  c #8A8773",
"*  c #8C8975",
"=  c #928C7B",
"-  c #94917C",
";  c #B66D82",
":  c #CB7189",
">  c #978882",
",  c #998C83",
"<  c #9F8B88",
"1  c #989580",
"2  c #9E9B84",
"3  c #998B93",
"4  c #B98188",
"5  c #A09D86",
"6  c #A6968E",
"7  c #A89E8E",
"8  c #A98F93",
"9  c #AB9293",
"0  c #B5939C",
"q  c #B8949E",
"w  c #A6A38B",
"e  c #A9A68E",
"r  c #ADAA92",
"t  c #B1AD93",
"y  c #B7A39D",
"u  c #B7B397",
"i  c #B6B398",
"p  c #BAB69B",
"a  c #BEBA9E",
"s  c #AC9DA5",
"d  c #BB96A1",
"f  c #BE99A4",
"g  c #BCA1A3",
"h  c #B4A4AD",
"j  c #BCAEAD",
"k  c #BFBBA0",
"l  c #C89F9B",
"z  c #C5B09F",
"x  c #C1BC9F",
"c  c #C19BA7",
"v  c #C99EA1",
"b  c #E79FB4",
"n  c #C8A6A2",
"m  c #C7A2AE",
"M  c #CAA2AE",
"N  c #C4ADA8",
"B  c #C1B7A5",
"V  c #C2BEA2",
"C  c #CFA8B3",
"Z  c #D4A9B6",
"A  c #D6ACB9",
"S  c #DAAEBC",
"D  c #C8BCB7",
"F  c #C3B4B9",
"G  c #C6B8B8",
"H  c #C9BABD",
"J  c #D0BFB2",
"K  c #D7B0BD",
"L  c #DCB0BD",
"P  c #E7A1B6",
"I  c #E9ACBF",
"U  c #C6C2A5",
"Y  c #C9C5A6",
"T  c #CDC8A7",
"R  c #C7C2A8",
"E  c #CAC6A9",
"W  c #CECAAC",
"Q  c #D1CDAE",
"!  c #D4D0AF",
"~  c #CDC6B4",
"^  c #CFCBB0",
"/  c #CFC4BC",
"(  c #D3CEB1",
")  c #D4CBBA",
"_  c #D8CEBE",
"`  c #D6D1B3",
"'  c #D9D5B5",
"]  c #DDD8B7",
"[  c #D6D2BA",
"{  c #DBD6B9",
"}  c #DED9BA",
"|  c #E1DDBD",
" . c #C9B7C1",
".. c #CEBCC6",
"X. c #DFB2C0",
"o. c #D0BEC9",
"O. c #DABEC8",
"+. c #E3B6C4",
"@. c #E4B9C7",
"#. c #E6BCCA",
"$. c #ECBCCD",
"%. c #ECBFD0",
"&. c #CAC9C2",
"*. c #D4C4C7",
"=. c #D8CCC2",
"-. c #D5C2CD",
";. c #DDC0CC",
":. c #DCD2C4",
">. c #DCD9C3",
",. c #DED1C9",
"<. c #DAD8CC",
"1. c #D8C5D1",
"2. c #DECCD4",
"3. c #E7C1CE",
"4. c #E0D7C5",
"5. c #E2DCC2",
"6. c #E2D4CD",
"7. c #E3DDCC",
"8. c #EBC5D3",
"9. c #E5CAD6",
"0. c #EACAD6",
"q. c #E1CDD8",
"w. c #EDCDDB",
"e. c #E5D5D3",
"r. c #E8D6D5",
"t. c #E5DCD3",
"y. c #E9DAD5",
"u. c #E4D3DC",
"i. c #ECD2DD",
"p. c #E3D8DE",
"a. c #EAD9DB",
"s. c #F0D1DF",
"d. c #E5E1C2",
"f. c #E9E5C5",
"g. c #E5E4DC",
"h. c #EDD5E1",
"j. c #EEDBE3",
"k. c #F0D5E2",
"l. c #F1DAE6",
"z. c #F2DDE9",
"x. c #E6E3E4",
"c. c #E9E6E7",
"v. c #E9E9E6",
"b. c #EEE1E8",
"n. c #EBEBEB",
"m. c #F5E1ED",
/* pixels */
"` { ] ] | ] Q U E Q ' ` ` ' W W Q ' W E W ` E E V W Q ` ' ` Q W ) :.y.} [ { } E E ' | | | | | ' ` ` ",
"( Q ` ` ` ! W Y W ` ' ( Q W Q ' ` ` W Q W ( ( ( Q ( W ` ' :.6.a.z.z.a.} ' ` E E } } | } { ` ' ` ' W ",
"Q Q ` } ` ' ! Q } 5.' ` ` ` | } ` ` ' ` ` ' ' ! ' ( ' } y.l.z.z.z.l.y.} ] Q ' ` ` ' ' } ` } ` ` ` ` ",
"Y ` } } Q ( Q ' } ( ^ ( ' } } ! ` ` ` W Q Q W T W W 6.l.z.z.z.z.h.i.:.E W ` ` ( Q W W ( W ` W Y E E ",
"' ( Q W W ' Q E ( E E ( } ] ` ' W W Q ! ` Q W T ( a.z.z.z.z.l.8.@.0.^ V ` | ' Q Q Y E ` W Q Q Y W E ",
"` E W Q ` Q W W W ' E Q | ' W Q W Q Q W ' ` ` ' y.z.z.z.z.i.#.+.@.9.R E | d.W Y W E Q Q W ! W E ( ` ",
"( W W Q Q Y W W ( Q U Q ' ' ` W U U U Y ` W E 6.z.z.z.z.i.#.+.+.8.6.Y ` f.| Q W ( E ( ( ' ' E Y Q ` ",
"U V W ( ' ( W U U V U R W Q W W W U x U U a ) j.z.z.z.l.3.+.@.+.0.[ ` | ] ` W W W ` } ' ` ` E Q Q W ",
"' ] ] ] ! ! Q Y W U x U ( Q Q E k i V E W ` y.z.z.z.z.0.+.+.+.#.a.' W ` W W Y ( ` ` ` ' { { } { ' W ",
"Q Q Q W ' Q T Y T Q W ` ' ' W U V E Q W Y :.j.z.z.z.k.#.+.+.+.8.,.^ ( ' ` ` ' ' E Y ` ' { ' ` E E W ",
"V T Q ` ' Q V V U ( Q ' | } Q Y ^ ` W U W y.z.z.z.z.0.+.+.+.+.0.^ E ` W ( ` Q ( ( ` E E W ' W ( ' Q ",
"` ] ] Q W U U V V Q W ( ' ( E U W ( V Y ' j.z.z.z.l.#.+.+.+.#.r.U Y E U Y W W ( ( W W Y E W E W ( E ",
"' Q Q Y T Y E V { | ] } ` Q V V Y U R ` :.l.z.z.z.i.+.+.+.+.w._ R ` { ` ! E ^ E R E W E W W W W ` { ",
"Q U U U Y U Y Q 5.' ! W U U V U ` ( ` ` 6.z.z.z.z.8.+.+.+.#.e.E ` } ' ` Q W ' Q ` ' { ^ Q W W W W Y ",
"U x V x x T ` ` } ` ' Y V a E ' } ' { ` r.z.z.z.l.#.+.+.+.0.:.Q ( ' ' ' ` ! E ` } ' E ( ` Q ' ' Q ` ",
"Y Y W Q Q ` Q ' ' Q x p p V ( | } ' ( E a.z.z.l.l.#.+.+.#.e.` ( ` ' { ` W W Y ! ` W ` Q E ' | ! Q E ",
"( ' ' ' ` ` ' ' W U a i V W ' } ` E a E j.z.z.z.h.#.+.+.w.e.` ' ` ` ` W ^ W ( ( W W W E W ' ' R R R ",
"} ' ' ' ' ! W Y U k U Y } | } } E U ~ e.z.z.z.z.l.0.#.0.z.z.j.6.[ W ` ` W ` ' ` ` E U E W E R U W ` ",
"] ' ` ( W Y a a k Y ` R { ` ( ^ U =.j.l.z.z.z.z.z.z.l.z.z.z.z.z.a.:.^ ^ E ' Q E W Y ` Q E ` Q W ` { ",
"! ^ W a u a a U V W ` ^ W W Q [ e.z.z.z.z.z.z.z.z.z.z.z.z.z.z.z.m.j.=.W W T W Q ' ` { ` ` ' ` Q ` ' ",
"Y p p a Y Y Y U W ' W ( } ' W r.z.z.z.z.z.z.z.z.z.z.z.z.z.z.z.z.z.z.j.*.W { { ` ! } ' W W ! ! E U a ",
"x U Y Y R E E ' ' ` ` d.} E ,.z.z.z.z.z.z.z.z.z.z.z.z.z.z.z.z.z.z.z.z.2.) } Q ` Q E V U E ' Q Y Y Y ",
"W E W ! ! W W W ! | } ' E _ j.z.z.z.z.z.z.z.z.z.z.z.z.z.z.z.z.z.z.z.z.z.*.^ { ( ! W W ! ' ` ` ' ' W ",
"E R ! W Y k Y ' f.{ Y U ( a.m.z.z.z.z.z.j.z.z.z.z.z.z.z.z.z.z.z.z.z.z.z.2.) ( R W W Q W ` ` } W Y U ",
"Y W E Y E W ' | ' Y Y ' 7.l.z.z.z.z.z.z.z.z.z.z.z.z.z.z.z.z.z.z.z.z.z.z.h. .^ ` ` { ' W ` E Y Y W W ",
"W ` ' ] ] ' ` ` W Q ` ' y.z.z.z.z.z.z.z.z.z.z.z.z.z.z.z.z.z.z.z.z.z.z.z.z...) W W ` ' ` E E ` Y Y E ",
"W W ' } ! Y Q E Q ` } { j.z.z.z.z.z.z.z.z.z.z.z.z.l.z.z.z.z.z.z.z.z.z.z.z.-.D ( { ' ' W W W W Y E Y ",
"` ' ] ' E ` ' ` 5.5.' d.l.z.z.z.z.z.z.z.z.z.z.z.z.z.z.z.z.z.z.z.1.h.m.z.z.-.F ^ ` ' ' { W W W E W ! ",
"' } ' E U ` ` ' } ` ` :.l.z.z.z.z.z.z.z.z.z.z.z.z.z.z.z.z.z.m. .o O h.z.m.1.F R Y E W W Y W W Y Y ! ",
"d.' W k W } ' ^ ! W Q 7.z.z.z.z.z.z.z.z.z.z.z.z.z.z.z.z.z.z.m.3   X 1.m.z.1.j R ` ( ! W E Q Q Q } ' ",
"' U U E { W U k ` ! ' 4.z.z.z.z.l.z.z.z.z.z.z.z.z.z.z.z.z.z.m.s . o 2.z.z.o.F [ { } ` W W ' ! ! ' ` ",
"E a R W R U Y E ' g.g.g.b.z.z.z.z.z.z.z.z.z.z.z.z.z.z.z.z.z.z.u.3 h z.z.z.1.H { } ! W ` W ^ W U W W ",
"a k W ` ` E W [ g.n.n.n.n.n.j.z.z.z.z.z.z.z.z.z.z.z.z.z.z.z.z.z.z.z.z.z.z.l.2.( W U x x W U x V W k ",
"' { } { Q ` ' g.n.n.n.n.n.n.p.z.z.z.z.l.z.z.z.z.z.z.z.z.z.k.8.w.k.z.z.z.z.z.l.:.R p p T T Q ( W W Y ",
"} ' W E Q ` [ v.n.n.n.n.n.n.x.h.z.z.z.z.z.z.z.z.z.z.z.z.z.l.s.8.$.$.8.k.l.z.z.z.u.~ ( ` E E W ( ` ` ",
"d.{ ` W { } >.v.n.n.n.n.n.n.x...s.z.z.l.z.z.z.z.z.z.z.z.l.8.%.%.$.+.b b 0.z.z.z.k.+.v N R E ' ( W { ",
"W R Y Y ' ` } n.n.n.n.n.n.n.p.K @.8.h.l.z.z.z.z.z.z.z.z.z.h.8.%.$.$.8.s.l.m.z.m.%.: # 4 V ` ( W ! ' ",
"( W ` { } ' ' g.n.n.n.n.n.v.j A +.+.#.8.i.j.l.z.z.z.z.l.z.l.w.s.k.z.l.k.k.s.9.;.M ; # l } } } [ } ' ",
"( E W ` ' W U Y <.n.n.n.n.&.* 6 C +.+.+.+.#.3.8.0.0.0.8.0.8.8.8.%.%.@.X.m f d q 0 q n } } ' ` ( ` E ",
"U E E E Y x U a ^ d.<.<.[ r % * 1 0 M Z S +.X.+.+.X.+.+.X.X.X.A S M c q 0 d f j J _ ' } ` ( ` ` E E ",
"U W Q Q E Y U U ` { ` W E Y w & @ % > 8 0 f c c c c c f f f d d 0 0 0 0 y B R ' | | ' Q V ( [ W E U ",
"E ' ` Q W ` ' { ` ` ` E Y Y E u - $ + $ = , < 8 9 9 9 9 9 9 9 6 6 6 7 t p U ` | 5.' E V V Q W V U U ",
"| ` ' ' ' ' { Q ( ` ` E W ! W ' U t e 2 - * & * = - & * 1 1 5 e r p a V V ' d.| | W x V V V V R W ` ",
"| Q ( ` ` Q Y E ` Q W R ` E Y Y E Q ( ( W E p i k a i k U W ` W a a a U ( | ' Q W U V U Y ( ' ' ' } ",
"! Y W U Y U U W ` W Q Q E E ^ ` ' ' ' ' ` Q Q ` ` ' { ` Y U U a k V ( ' } ( W E ( W ( ' | | ] ] ' } ",
"E V Y Y Y U Y U W ' W E ! ( ` ' } } ( W ` ` W E W W V U U V V V V ` d.} ( ( R U R ` ' ] Q ' ] U k U ",
"W W ' ` Y Y Y ` ] W Y Y ( W ` ` ( U U W ] ' ! ! W Y U U a p U W } f.{ W W E V V R W W V Q ' U V V R ",
"{ ` ` ` ' ! ' ' ' W Q W R W ( W W W Q ` ` ` ` } ` W Y U E ` ' | } ` ^ E E U R ( ( Q ( ( [ W V W { ' ",
"` W ` Q ( ( W Q } W Y E W Y U E E ` E ` Q ! Y x U Y U Q } { { Q W Q E k U W Q ` ( W Q W W U ` Q ` W ",
"T W W W W ( ` Q U U ( ' ` Q ` Q ` ` W ( Y U x U U U U W ! ' Q ` E V V Y ` { ' ' Q Q ' ` { ` ' ( { ` "
};
