/* XPM */
static char *rabit_down[] = {
/* columns rows colors chars-per-pixel */
"50 50 146 2 ",
"   c #000000",
".  c #262325",
"X  c #534C50",
"o  c #5A5256",
"O  c #6C6368",
"+  c #72686E",
"@  c #7F7D6B",
"#  c #786D73",
"$  c #817E6C",
"%  c #82806C",
"&  c #878371",
"*  c #8A8674",
"=  c #8D8A76",
"-  c #918C7A",
";  c #95927D",
":  c #98957F",
">  c #DF7D98",
",  c #E17A96",
"<  c #978C80",
"1  c #9C8A86",
"2  c #9F8E88",
"3  c #979380",
"4  c #999581",
"5  c #9C9982",
"6  c #978A91",
"7  c #9B8D95",
"8  c #A28D8C",
"9  c #A3918C",
"0  c #A29F88",
"q  c #BE8F9D",
"w  c #A79190",
"e  c #AB9194",
"r  c #A99892",
"t  c #B6939D",
"y  c #BA929E",
"u  c #B89D9F",
"i  c #A6A18A",
"p  c #ABA68E",
"a  c #B1AE95",
"s  c #B7B397",
"d  c #B7B398",
"f  c #BAB69B",
"g  c #BEBA9E",
"h  c #BB95A1",
"j  c #BC9AA4",
"k  c #BEA4A3",
"l  c #BFA1AC",
"z  c #BEBBA0",
"x  c #C1BD9F",
"c  c #C993A3",
"v  c #C19AA6",
"b  c #C29BA8",
"n  c #D89EAF",
"m  c #E492A9",
"M  c #E79DB3",
"N  c #C0A2A6",
"B  c #C0AAA5",
"V  c #CBA1AE",
"C  c #C2B5A5",
"Z  c #C2BEA2",
"A  c #CDBEAE",
"S  c #CDA4B1",
"D  c #C0ABB6",
"F  c #CCABB7",
"G  c #DCA1B3",
"H  c #D3A9B6",
"J  c #D6ACB9",
"K  c #DBAFBD",
"L  c #C3B6B3",
"P  c #C7BAB5",
"I  c #CABCB4",
"U  c #C8B8BD",
"Y  c #DBB0BE",
"T  c #DBBDBC",
"R  c #E3A6B8",
"E  c #E8A5BA",
"W  c #E4ACBD",
"Q  c #C6C1A5",
"!  c #C9C5A6",
"~  c #CDC8A7",
"^  c #C7C3A8",
"/  c #CAC6A9",
"(  c #CEC9AC",
")  c #D1CDAE",
"_  c #D5D0AF",
"`  c #C9C1B0",
"'  c #CFCBB0",
"]  c #CFC3BC",
"[  c #D3C7B3",
"{  c #D3CEB1",
"}  c #D5CCBA",
"|  c #DDC9BD",
" . c #D6D1B3",
".. c #D9D5B5",
"X. c #DDD8B7",
"o. c #D7D0B8",
"O. c #DBD6B9",
"+. c #DDD9BA",
"@. c #E1DDBC",
"#. c #C7B5C0",
"$. c #C8B7C0",
"%. c #CAB8C3",
"&. c #CFBDC8",
"*. c #DFB3C1",
"=. c #D2BFC9",
"-. c #E9ADC1",
";. c #E3B6C4",
":. c #E9B2C4",
">. c #E4B8C6",
",. c #EAB6C8",
"<. c #E6BDCA",
"1. c #ECBCCD",
"2. c #ECBFD0",
"3. c #D6C9C2",
"4. c #D4C2CB",
"5. c #DBCBCD",
"6. c #DDD3C3",
"7. c #DFD2CC",
"8. c #D9C6D1",
"9. c #DFCBD7",
"0. c #E7C0CE",
"q. c #E5CDC8",
"w. c #E0D6C5",
"e. c #E3DDC3",
"r. c #E1D5CB",
"t. c #E4D9CA",
"y. c #EBC3D2",
"u. c #EAC9D6",
"i. c #E2CFDA",
"p. c #EDCDDB",
"a. c #F0CEDD",
"s. c #E5D6D4",
"d. c #E7D9D3",
"f. c #E9DAD6",
"g. c #E7D4DB",
"h. c #EDD2DE",
"j. c #EBDADD",
"k. c #F0D0DE",
"l. c #E5E1C3",
"z. c #E9E5C5",
"x. c #EAE2CD",
"c. c #EED5E2",
"v. c #EEDBE3",
"b. c #F0D7E3",
"n. c #F1DBE6",
"m. c #F2DDE9",
/* pixels */
" .O...X.@...) Q / ' .. .) t.6.~  .o.( / (  .( ~ Z ' _ _ O. .( / / ..O.d.w...O.~ / O.e.@.+.@.l. ..._ ",
"{ )  ....._ ~ ! ~  .O. .( g.m.d. . .( ) ( { { ' ( { /  ... .Q / { } s.m.f. .~ / O.+.@.+.O... . ...( ",
"( )  .+. . . .) +.l... .O.v.m.m.j.o.X. . ... . .O. . .X.X.( _ o.O.j.m.m.j.{ .. .......+...O. . . ...",
"~  .+.+.)  .) ..+.{ ( { 6.v.m.v.m.v.O.(  .) ~ ~ ( ~ ..O.( Q  .6.j.m.m.m.j...{ { ) ( ~ { (  .( Q ^ / ",
" .{ { ( ~ ..) ~ ' ( ~ { t.m.v.u.v.m.v.6._ ) ~ ~ { O.) ( Q ( t.v.m.b.u.m.m.e...' ) ! ~ { '  .) ~ ( / ",
" ./ ~ {  . ./ ( ( ..~ ' t.m.c.;.0.c.m.v.6. . . .@.+.~ ^ Q 6.v.m.h.<.>.b.m.x.( ~ ( ~ ( ) ~ ) ) ~ '  .",
"{ ( ~ { { ~ / ( ) ~ ^ ) t.m.p.;.;.<.c.m.j.{ / ....{ ( /  .j.m.v.>.;.>.h.m.t.) ~ ' ~ { { ..../ ^  . .",
"^ Z ( {  .{ ( ^ ^ Q Q Q 7.m.u.;.;.;.<.b.v.} / ( ^ ^ Z ( r.m.h.<.;.;.>.h.m.6.( ~ (  .+.O...{ / ( _ / ",
"..X.X.X._ _ _ ! ~ ~ z ^ 7.m.u.;.;.;.;.y.n.f.' ( Z ~ ) O.j.n.<.;.;.;.;.p.v.6.!  ... .) ..O.+.+.o...~ ",
") ) ) ~ ..) ~ ! ~ ( (  .t.m.y.;.;.;.;.>.c.v.o.( ^ ~ Q [ v.p.;.>.;.;.;.p.m.6... .( Q  ...o... .~ / ( ",
"Q ~  . ...) Z Z ! { (  .t.m.y.;.;.;.;.;.u.v.[ Q ( O.) 6.m.y.;.;.;.;.;.p.m.6.) { {  .( / ) ..(  .O.( ",
" .X...) ! Q ^ z Z ) (  .6.m.u.;.;.;.;.*.y.m.} ( ..{ ^ 6.m.0.;.;.;.;.;.p.v.{ (  .) ( ( ^ / ( / ( ' ( ",
"..) ~ ~ ~ ~ ^ Q ..+.+.X.O.m.p.;.;.;.;.;.<.m.r.O.{ ~ ~ s.n.<.;.;.;.;.;.h.v.' ' / / ( / / ( ~ ( ( ..X.",
"~ Q ! Q ^ ^ ^ { e... .~ / v.c.;.;.;.;.;.<.n.f.{ Q { { j.c.<.;.;.;.;.<.v.s.( ..)  ...O.' ( ) ( ' ( Q ",
"^ x Q Z Z ~  . .+..._ Q ^ s.c.<.;.;.;.;.<.b.j.{ ( ( { j.c.;.;.;.;.;.0.v.d.) (  .X...( ' ) )  ...(  .",
"! ! / ( ~ ..{ ..X.{ Z f f 3.m.0.;.;.;.;.>.c.j.o. .( } v.p.;.;.;.;.;.u.m.6.( ! _  .( { ) / X.l.) _ / ",
" ..... . . ... .~ ^ g d Z } m.p.;.;.;.;.>.c.n.v.g.v.j.m.p.;.;.;.;.;.c.v.{ / ' { ) ) ~ ~ ( O...^ ^ ^ ",
"+.....X.X._ ( / ^ z Q ^ +.e.j.n.<.;.;.;.>.v.m.m.m.m.m.m.c.;.;.;.;.0.m.f.'  .O.{  .^ ^ / ~ / ^ ^ (  .",
"X. . ._ ( Q g x Z Q  .^ O. .r.m.p.;.;.>.p.m.m.m.m.m.m.m.m.u.;.;.=.p.m.6.~ ..{ / ( ~ { ( ~ { { /  .+.",
")  .' g s f g ^ Q ( { { ( ~  .v.n.p.u.c.n.m.m.m.m.m.m.m.m.m.h.u.c.m.g.' ( ~ ~ {  . .+. . .O. .{  . .",
"Q f g g Q / Q Q ( ..( { +. .} v.m.m.m.m.m.m.m.m.v.m.m.m.m.m.m.m.m.m.g.' ' ..+. . .+...) ~  .{ ~ Z Z ",
"Q Z Q / / / ~  ... .{ l.+.{ j.m.m.m.m.m.m.m.m.m.m.m.m.m.m.m.m.m.m.m.m.5...+.{ { ( ~ Z Z ~  .( ~ / ! ",
"~ / ) ) _ ( ( ( _ @.+.../ 7.m.m.m.m.m.m.m.m.m.m.m.m.m.m.m.m.m.m.m.m.m.g.] { ..{ { ~ (  ... . .....' ",
"/ ! _ ( Q Q Q  .z.+.! Q } v.m.m.m.m.m.m.m.m.m.m.m.m.m.m.m.m.m.m.m.m.m.v.4.o.{ ^ ' ( { (  . .+.' ~ Z ",
"! ( / Q ~ ( X.+...! Q ..f.m.m.m.m.m.m.m.m.m.m.m.m.m.m.m.m.n.m.m.m.m.m.m.i.U {  . .+...) ) / ! ^ ' ( ",
"(  . .X.+... . .( ) ..+.v.m.m.m.m.m.m.m.m.m.m.m.m.m.m.m.m.m.m.m.m.m.m.m.g.#.o.' ( .. .) ( /  ./ ~ ! ",
"( ) ..+. .Q ) / )  .+.6.m.m.m.m.m.m.m.m.m.m.m.m.m.m.m.m.m.m.m.m.m.m.m.m.v.#.P { ..+...) ' / / ~ ~ ^ ",
" . .+.X./  . . .@.@.X.d.m.m.m.m.m.m.m.m.n.8.m.m.m.m.m.v.8.n.m.m.m.m.m.m.v.%.P ' {  .....( ' ( / / ) ",
"O.+.X./ Q .. ...@.{ { f.m.m.m.m.m.m.m.m.6 . 7 m.m.m.m.7 . 6 m.m.m.m.m.m.m.%.P ^ ! / ( ( ~ ' ~ ! ! ) ",
"l. ./ z ( +...(  .~  .j.m.m.m.m.m.m.m.m.X   o m.m.m.m.o   X m.m.m.m.m.m.n.%.z ^  .{ ) ) ~ ) ) ) @.X.",
"..Q Q / O.( Q Q  .)  .g.m.m.m.m.m.m.m.m.+   # m.m.m.m.#   O m.m.m.m.m.m.c.#.P ..O.@. .) (  ._ )  . .",
"/ g ^ ' / Z Q / .. .+.q.c.m.m.m.m.m.m.m.4.6 4.m.m.m.m.4.7 &.m.m.m.m.m.m.i.l ` O.+.) (  .' ) ( Q ' ( ",
"f g (  . ./ ( ( ..X.+.| <.v.m.m.m.m.m.m.m.m.m.m.m.m.m.m.m.m.m.m.m.m.m.m.4.j C { ( Z g Z / Q x ^ / Z ",
"O.+.+.+.( .. .) O.X.{ { ;.0.b.p.y.a.m.m.m.m.m.m.m.m.m.m.m.m.m.n.a.y.a.c.l y z ^ ^ g f ~ ~ { { ~ ( ! ",
"X...( / ( .. ...@.@.X. .T ;.<.h.p.y.1.y.a.b.m.m.m.m.m.m.b.p.2.1.2.p.a.F t k ( / d z { } / / ( {  . .",
"l.O. .( O.X.....+.+. ./ A ;.W W ,.1.:.E M -.b.2.,.-.y.b.-.M E :.2.,.n y t I  .( { O.{ / ^ ~  .{ ( +.",
"( ^ / ! .. ..._ ~ ( Q Q / T >.W R W :.1.a.c.c.m , , m m.b.p.2.:.-.n y t k { { ~ ....' Z Q  .' ( ) ..",
"' ' { X.+.....( ( { Q ( ! 0 k W W ;.>.y.p.c.c.G , , G c.b.p.y.;.V y q w p { { Z / Q z ( +.+.+.o.@. .",
" ./ (  . .( Q Q / ) ~ ( g = * j J *.;.;.>.>.<.*.c c J <.<.;.H v t h w - - Z ( ^ (  ...+.O.....'  ./ ",
"Q / / / Q Q Q g ~  ._ _ Q - & - 8 j S J *.*.;.*.*.*.*.H S j t t t w 3 = ; Z / ( O.l.+.+. .'  ...( / ",
"Q (  .( / Q Q Q  .O. .) / f : * % * 1 e h v b b b j j h t t e 2 3 5 - - a Q /  .@.+...( Q ( O.( / ^ ",
"/ .. .) (  .O.O... . .! Q ~ Q i = @ @ & - 1 8 w e e e 9 2 < - = 3 5 i d g Q ..@.l.O./ Z Q ( ( Z Z Q ",
"+. .....X.X.X.( '  . ./ ( _ ) _ Q p i 4 - & * = = - * = ; 3 i a f z z Q z ..l.@.@./ z Z Z Q Q ^ / ..",
"+._ ( .. .( ! /  .) ( ^  ./ / ! ^ ( _ ' ( ~ f d g g s Q Q ' ..' z g g ! { @...' ( Q Q Q ! ) ..o. .+.",
" ./ / Q Q Q Q ) _ ( (  ./ ^ '  ......... ._ )  ...O... .Q Q Q f z Z ' X.O. .( / ' ( { ..X.X.X.X.+.X.",
"/ Q Q / ~ Q / Q ( ..) / _  . ...+.O. .(  . .( / ~ ' Z Q Q Q z Q Z ..l.+. .{ Q Q /  ..... . .../ z Q ",
"( / .._ / ! /  .X.) Q /  .(  . .{ ^ Q ( ....) _ ) Q ^ Q g s Q ( @.l.+./ / / Z Q / ( ! Q ( O.! Z Q ^ ",
"O. ... . ._ .. . .( ) / Q ( { ( ( ~ _  . . ...+._ ~ ! ^ /  .X.@.+. .{ ^ / Q ^ '  .( {  .O./ Q ( ....",
" .(  ._ ) ( ( _ X.( Q / ( ! Q Q /  ./  .( _ Q Z Q ! Q _ X.O.O.) /  .( z Q / '  .) ( ) / ' !  .' ) ' ",
"/ ( ( ( (  . ._ Q Q  ... .(  . . . .(  ./ Q x Q Q Z Q (  ...)  ./ z Z !  .+. .X.) ' ...... .+.) X._ "
};
