/* XPM */
static char *rabit_left[] = {
/* columns rows colors chars-per-pixel */
"50 50 152 2 ",
"   c #030303",
".  c #2D292C",
"X  c #4A4347",
"o  c #73696E",
"O  c #7A6F75",
"+  c #8A8774",
"@  c #8D8A76",
"#  c #8E8979",
"$  c #928E7A",
"%  c #94927D",
"&  c #98957F",
"*  c #D87893",
"=  c #E17A96",
"-  c #9A8A84",
";  c #999481",
":  c #9C9983",
">  c #978A91",
",  c #988B93",
"<  c #A28E8B",
"1  c #A29F87",
"2  c #A3968A",
"3  c #A39F88",
"4  c #A88E91",
"5  c #AB9294",
"6  c #BA9097",
"7  c #B5939C",
"8  c #B8939F",
"9  c #A4A189",
"0  c #ABA88E",
"q  c #A7A597",
"w  c #ADAA91",
"e  c #B2AA94",
"r  c #B6B296",
"t  c #B6B298",
"y  c #BAB69B",
"u  c #BEBA9E",
"i  c #BB96A1",
"p  c #BD98A4",
"a  c #BAA1A0",
"s  c #BFBBA0",
"d  c #BBABB4",
"f  c #D48696",
"g  c #E1829A",
"h  c #C1AC9C",
"j  c #C1BD9F",
"k  c #C19BA7",
"l  c #C39CA8",
"z  c #DF99AD",
"x  c #E594AC",
"c  c #E69DB3",
"v  c #C1A2A6",
"b  c #C2A9A7",
"n  c #C7A0AC",
"m  c #C3B2A6",
"M  c #C2BEA2",
"N  c #CEBFAF",
"B  c #DAB0AB",
"V  c #CEA4B1",
"C  c #C0AFB9",
"Z  c #D0A7B4",
"A  c #D6ABB9",
"S  c #D9AEBB",
"D  c #C3B5B5",
"F  c #C6B9B7",
"G  c #C9BEB3",
"H  c #C9B2B9",
"J  c #C8BABC",
"K  c #DBB1BE",
"L  c #E7A3B8",
"P  c #E8B1BD",
"I  c #C6C1A5",
"U  c #C9C5A6",
"Y  c #CDC8A7",
"T  c #C7C3A9",
"R  c #CAC6A9",
"E  c #CEC9AC",
"W  c #DAC0AD",
"Q  c #D1CDAE",
"!  c #D5D0AF",
"~  c #CFCBB0",
"^  c #CDC2B8",
"/  c #D3CEB1",
"(  c #D9C9B1",
")  c #D0C2BF",
"_  c #D4CCB8",
"`  c #D8CEBD",
"'  c #D6D1B3",
"]  c #D9D5B5",
"[  c #DDD8B7",
"{  c #D6D3BF",
"}  c #DAD6B9",
"|  c #DED9BA",
" . c #E1DDBD",
".. c #C9B7C2",
"X. c #CCBAC5",
"o. c #CFBDC8",
"O. c #DEB2C0",
"+. c #DABAC6",
"@. c #E3B6C4",
"#. c #EAB2C4",
"$. c #E4B8C6",
"%. c #E6BDCB",
"&. c #ECBBCC",
"*. c #EDBFD0",
"=. c #CFC2CA",
"-. c #D7CDC0",
";. c #DACFC3",
":. c #D6C4CD",
">. c #DBCFC8",
",. c #D6D4C5",
"<. c #DCD4C2",
"1. c #DCD9C5",
"2. c #D4D1CD",
"3. c #DFD1CD",
"4. c #DCDACA",
"5. c #DAC7D2",
"6. c #DCCCD2",
"7. c #D9D0D0",
"8. c #DDDCD2",
"9. c #E7C0CE",
"0. c #E8C1CF",
"q. c #E0D6C7",
"w. c #E2DDC3",
"e. c #E2D5CC",
"r. c #E4D9CB",
"t. c #E8DDCE",
"y. c #EAC4D2",
"u. c #EACAD6",
"i. c #E1CED9",
"p. c #EDCDDA",
"a. c #E5D5D3",
"s. c #E8D6D5",
"d. c #E5DCD1",
"f. c #E9DCD4",
"g. c #EAD3DB",
"h. c #EBDADD",
"j. c #F0D1DF",
"k. c #E6E2C3",
"l. c #E9E5C5",
"z. c #E5E2CB",
"x. c #E6E5DD",
"c. c #ECD5E1",
"v. c #EEDBE3",
"b. c #F0D7E3",
"n. c #F1DBE6",
"m. c #F2DDE9",
"M. c #E7E7E4",
"N. c #EBE0E6",
"B. c #EAE9E6",
"V. c #EAE6E8",
"C. c #EBEBEB",
"Z. c #F5E0EC",
/* pixels */
"' } [ [  .] Q I R ' ] ' / ] Y -.e.q.` Y Y ] R T M E / ' } ] E U R ] } ] ] } | R R ]  . . . .k.' ] / ",
"/ Q ' ] ] / Y R U ' } / E E Q 4.m.m.v.s.,./ / / / / Y ' ] ' I U ~ ~ E } ] ' U R | |  .| ] ' ' ' ] Q ",
"Q E ] [ ' ' ' Q | k.' ' ' ]  .w.m.m.m.m.v.v.r.` ] / ' ] ] / / } ' ] } } } Q ] ] ] ' } | ' | ! ' / ' ",
"R ' [ [ Q ' / ' } ' E / ] [ [ ] s.p.n.m.m.m.m.h.` Y ] | Y I ' ' ' ] ' E E ] ' ~ E E E / E ' ~ I U E ",
"' ' / E Y ] / U Q E R ' 1.[ ' } a.0.%.p.m.m.m.m.v.r.E R I E } ' ' ! U s '  .] E Q U R / Q Q Q U ~ E ",
"' U E E ' / E E E ] U /  .] Y Q <.u.@.$.u.m.m.m.m.v.<.U I ' U I ! E I U | l.R Y E E Q ! Q Q Q E Q / ",
"/ E E / Q R E E Q E I E ] ] ' Y R u.$.@.@.u.n.m.m.m.v.` E / E ' ' R U ] l. .' R Q U / Q ] ] R I Q ' ",
"I M Y ' ' / E I I I I R Q Q E E E a.%.@.@.@.p.n.m.m.m.a./ | [ [ ' E '  .[ ' E R E ' | } ' / R Q Q E ",
"] [  .[ ] ! ! I Q R u I / / E U u ^ y.@.$.@.$.b.m.m.m.m.<.[ w.[ Q ' E ' E E U ! ' ' ! ] } } | } ' E ",
"Q Q Y Y ' Q Y I Y Y E ' ] } Q I s _ p.$.@.$.$.u.m.m.m.m.e.' ] E E E ! ] ' ' ] ' R U ' ] } ] ' R E E ",
"I Y ' ] ] Q I M R / Q ] [ [ Q R ~ ' e.%.@.@.@.$.v.m.m.m.n.} / I I R ' E E ' ! ' ' ' E R E ] E / ] Q ",
"' ] ] Q R I I u M E E ' ] / R I R / _ u.$.@.@.$.u.m.m.m.m.-.M R U I R U R E R ' / R E T R E R ~ ~ E ",
"} Q Y U Y R T I ] [ [ [ ' ~ M M U I R s.%.@.$.@.%.n.m.m.m.s.E Y T ' ] ' ! R ' R R R R R E E E E ' ] ",
"Y I U I U T R Q w.] ' Y I I M I ' ' ' 1.p.$.@.@.$.c.m.m.m.n.` U ' } ] ' E E ' E ' ] } ~ E Q E E E U ",
"I j I M M Y / ' [ ] ' I I u U } [ } } ' e.%.@.$.$.p.m.m.m.m.{ Q ' ] ] ] ' ' E ' | ' E / ' E ' ] Q / ",
"U R Y E Q ' / ] [ / M y y M /  .| ] / T ` u.$.@.@.u.m.m.m.m.q.' ' ] } ' E E U ! ' E ' ~ Y }  .! Q E ",
"' ] ] ] ' ' ' ' Y I u t M Q ] [ ' U M T <.h.0.@.@.u.m.m.m.m.e.} } ' ' Q Q Y E / E / R U E } ] T I R ",
"| ' ] ] ] ! Q R T M I T }  .}  .Y T _ a.m.m.c.0.*.g.m.m.m.m.v.q./ E / ' Y _ } ' ' U I E Y R T I ~ / ",
"[ ] ' ' Q I u j M I / U } / / / N 7.v.m.m.m.m.n.n.m.m.m.m.m.m.m.h.{ E ~ R ] Q R Y R ' E U ' Q R / [ ",
"Q / E j r y u I M E / / E Q Q { s.m.m.n.m.m.m.m.m.n.m.m.m.m.m.m.N.c._ R Q R Y ' ] ' } ] ' ] ] ! ' ' ",
"R y y u R R I I Q } E / | ] _ v.m.m.m.m.m.m.m.m.m.m.m.m.n.m.m.m.m.m.g._ E ] } ' ' | ] E Y ' ' R I M ",
"j I I Y U R R ' ] ' Q w.[ ~ a.n.m.m.m.m.m.m.m.m.m.m.m.m.m.m.m.m.m.m.m.6.' | / ' Q U M M R ] E U Y I ",
"Y R Q Q Q E Q E Q  . .] R <.m.m.m.m.m.m.m.m.m.m.m.n.m.m.m.m.m.m.m.m.m.c.=.' ] / / Y E ' ] ' ' ] ] / ",
"R Y Q E U M U ' l.[ R I _ v.m.m.m.m.m.m.m.m.m.m.m.m.m.m.m.m.m.m.m.m.m.m.:.~ / T E E ' E ' ' [ ~ Y M ",
"U E R U E E }  .] I U ' f.m.m.m.m.m.m.m.m.m.m.m.m.m.m.m.m.m.m.m.m.m.m.m.6.J ' ' ' | ] E / R Y I ~ ~ ",
"E ' ' [ [ ] ' / Q E ' | v.m.m.m.m.m.m.m.m.m.m.m.m.m.m.m.m.m.m.m.m.m.m.m.c.X.' E Q ' ' / R E / Y Y I ",
"E E ] [ / U Q E E ] [ <.m.m.m.m.m.m.m.m.m.m.m.m.m.m.m.m.m.m.m.m.m.m.m.m.v...^ Q ] ] ] / ~ E E I Y I ",
"' ] [ } R ' ' ' w. .[ d.m.m.m.m.v.5.c.m.m.m.m.m.m.m.m.m.m.m.m.m.m.m.m.m.m.X.F E / ' ' ] E ~ E Y R ~ ",
"} | ] R U ' ' } 1.! ! r.m.m.m.Z.d . o v.m.m.m.m.m.m.m.m.m.m.m.m.m.m.m.m.v.=.F T Y R ~ E Y ~ Y I Y / ",
"k.] Y s R | ] E ' Y ' f.m.m.m.Z.O   . 5.m.m.m.m.m.m.m.m.m.m.m.m.m.m.m.m.v.=.d U ' / Q / Y / ~ ~ | ] ",
"] I s E } E I I ' Q ] d.m.m.m.Z.,   X c.m.m.m.m.m.m.m.m.m.m.n.m.m.m.m.m.v...F ] ]  .' Q E ' ! / ' ' ",
"T s T / R M I R ] ' [ f.m.m.m.Z.i., d m.m.m.m.m.m.m.m.m.m.m.m.m.m.m.m.m.c.=.8.x.x.1.E / E / E M / Q ",
"u s E ' ' R E E ' | [ q.m.m.m.m.m.m.m.m.m.m.m.m.m.m.m.m.m.m.m.n.m.m.m.m.v.M.C.C.C.M.,.T R I s I R M ",
"] } | } E ] ' ! ] | } h.m.m.m.m.m.m.j.y.p.m.m.m.m.m.m.m.m.m.m.m.m.m.m.m.C.C.C.C.C.C.C.8.R Q / R ~ R ",
"| ' E R E ] ' | k.f.v.m.m.m.n.j.y.&.*.p.b.m.m.m.m.m.m.m.m.m.m.m.m.m.n.c.C.C.C.C.C.C.C.8.R R ~ / ' ' ",
"k.} ] E } [ ' B P y.m.m.m.b.#.c L #.&.*.*.j.m.m.m.m.m.m.m.m.m.m.m.n.+.7.C.C.C.C.C.C.C.8.I R ' / E ] ",
"E T Y U ] ] B g = x n.m.m.m.b.j.y.&.&.*.p.m.m.m.m.m.m.m.m.m.n.n.p.O.i C C.C.C.C.C.C.C.8.I ' / R / ] ",
"/ E ' ] | ] ( f * z y.p.p.c.b.n.n.n.b.p.c.m.m.m.m.m.m.n.b.b.p.%.V i i 5 2.C.C.C.C.C.B.4. .| | ] | ] ",
"' R E ' ' E U y 6 i l Z @.$.$.%.%.0.0.y.y.y.y.y.y.y.u.y.%.@.A l i i 4 - q x.C.C.C.B.z. .| } ' / / E ",
"I T R R U j I u N R b b v l Z S S O.O.O.@.O.@.@.@.@.S A V k i 7 5 5 ; @ $ T ,.4.x.z.| | / ~ / ] R E ",
"I E / E R U I I ' ] ' Q T m 8 7 7 p p k k k k l l l i i 7 7 5 , ; & % @ 0 I Y ' k.| ] ~ I ~ ] R R I ",
"R ] ' / E ' } ] ] ' ' U I Q Y e 2 - - 4 4 5 4 4 5 5 5 2 < - $ $ ; & 9 r y I ]  .k.] R M M Q E M I I ",
" .' ] ] ] ] } / Q ] ' U E ! E ! I 0 9 : % @ + @ @ $ + @ % & 9 w t y s I s ] k. . .R s s s I I U R ' ",
" .Q Q ' ' Q U R / Q E U ' R R Y U / / ~ R U y t u u r j R E ' E s y y U /  .] ~ Y I I I U / ] ] ] | ",
"! Y E I U I I E ! E Q Q R R ~ ' } ] } ] ' ' Q ' ] } _ ' U I I u s M ~ } | / E R ~ R / ] ] [ [ [ } } ",
"U M U U R I U I E ] Q R ! / ' ' | | / Y ' ' Y Y Y / M I I j M M M ] k.| ] ~ I I R ] ] ] ' ] ] R s I ",
"~ E ] / Y U E ' [ E U U / E ' ' / I I E ] ] Q Q Y I I I u y I Q  .l.} E R R I M U E Y I ~ } Y s I U ",
"} ' ' ' ' ! ] ' ' E Q R R E / ~ E Y Q ] ' ' ]  .! Q R I R ' ]  .| / ~ R R I I ~ ' ~ / / } R M ~ ] ] ",
"' E ] Q Q ~ E Q [ E U R E U U U R ' R ' Q ! I M I I I Q | [ } Q E Q E u I R / ' / E Q E E I ' Q / / ",
"Y E E R Q / ' Q U I / ] ' E ' / ' ' E / U I j I I I I Q / ] Q ' R M M U ' } ] ] Q Q ] ' ] ' } / } / "
};
