/* XPM */
static char *rabit_up[] = {
/* columns rows colors chars-per-pixel */
"50 50 124 2 ",
"   c #817F6A",
".  c #83806D",
"X  c #878471",
"o  c #8A8674",
"O  c #8D8A75",
"+  c #8D8579",
"@  c #8F8D78",
"#  c #928C7C",
"$  c #96937E",
"%  c #9D8B86",
"&  c #9C9981",
"*  c #9F9388",
"=  c #A08D88",
"-  c #A19E85",
";  c #A3928C",
":  c #A89191",
">  c #B5929C",
",  c #B9949F",
"<  c #B1999B",
"1  c #B8999F",
"2  c #A4A18B",
"3  c #AAA78F",
"4  c #ADAA93",
"5  c #B1AE94",
"6  c #B7A99B",
"7  c #B7B397",
"8  c #B6B298",
"9  c #BAB69B",
"0  c #BEBA9E",
"q  c #B796A0",
"w  c #B997A2",
"e  c #BB9BA2",
"r  c #AFACA2",
"t  c #BBA5AB",
"y  c #BFBBA0",
"u  c #C1BC9F",
"i  c #C09AA5",
"p  c #C49EAA",
"a  c #C2ADA7",
"s  c #C5A0AA",
"d  c #C9A0AD",
"f  c #C2BEA2",
"g  c #C6B8A8",
"h  c #CAB8AC",
"j  c #C4A7B0",
"k  c #D7ADBA",
"l  c #C4B7B2",
"z  c #C6BAB5",
"x  c #CBBCB3",
"c  c #C4B2BD",
"v  c #CAB5BF",
"b  c #C7B9B9",
"n  c #D5B4BF",
"m  c #C6C1A5",
"M  c #C9C5A7",
"N  c #CDC8A7",
"B  c #C7C3A8",
"V  c #CAC6A9",
"C  c #CEC9AC",
"Z  c #D1CDAE",
"A  c #D5D0AF",
"S  c #CCC4B1",
"D  c #CFCAB0",
"F  c #D3CEB1",
"G  c #D1C1B8",
"H  c #DCC1BD",
"J  c #D4CCB9",
"K  c #DBCCBB",
"L  c #D6D1B3",
"P  c #D9D5B5",
"I  c #DDD8B7",
"U  c #DAD6B9",
"Y  c #DDD9BA",
"T  c #E1DDBC",
"R  c #C9B7C2",
"E  c #CAB8C3",
"W  c #DEB4C1",
"Q  c #DFB9C1",
"!  c #E3B6C4",
"~  c #E3B9C6",
"^  c #E6BECB",
"/  c #CFC0C1",
"(  c #CECDC7",
")  c #D9CEC0",
"_  c #D1D0C7",
"`  c #DCD2C3",
"'  c #DDD8C1",
"]  c #DFD2CC",
"[  c #DFDCCC",
"{  c #DBC5D0",
"}  c #DECBD4",
"|  c #D9D8D0",
" . c #DDD7D8",
".. c #E3CCC4",
"X. c #E6C1CD",
"o. c #E0D6C5",
"O. c #E2DCC3",
"+. c #E2D5CB",
"@. c #E4D9CB",
"#. c #E8DFCB",
"$. c #E6C3D0",
"%. c #E8C4D1",
"&. c #E7CCD6",
"*. c #EACAD6",
"=. c #E3CFDB",
"-. c #ECCDDA",
";. c #E6D6D4",
":. c #E6D9D2",
">. c #E8D9D6",
",. c #E7D4DC",
"<. c #EBD3DD",
"1. c #EBDADC",
"2. c #E5E1C3",
"3. c #E9E5C5",
"4. c #EAE2CC",
"5. c #E6E4D8",
"6. c #EED6E2",
"7. c #EDDBE3",
"8. c #F0D7E4",
"9. c #F1DCE6",
"0. c #F2DDE9",
"q. c #E9E4E6",
"w. c #EAE7E8",
"e. c #EBEBEB",
/* pixels */
"L Y I I T P Z m V A P L L @.` N F P C V N L C B f D Z L Y P Z V N L I +.+.I Y V V U O.T Y T T P P L ",
"F Z L P P Z C M V L P D C >.0.+.J L C Z Z F F F Z F C F L L m M Z J ;.9.@.L V N U Y O.I U L P L P C ",
"C C P Y L P L Z Y 2.P L P 7.0.0.;.L I L L P L Z I Z L I I C Z U J >.0.0.1.F P L L L I I P Y A L L L ",
"V L I I Z Z L L Y L V L ' 7.0.0.0.1.L C Z Z C N C C L Y C m L ` 1.0.0.0.1.U F F Z C C F V P C m V V ",
"L F F C N P F M Z C V L @.0.0.0.0.0.1.P L Z C Z F I D V f C ' 9.0.0.0.0.9.O.P C Z M V L C A A M C V ",
"L V C C L F C C C P V C @.0.0.0.0.0.0.,.U L F L Y Y C V M U 1.0.0.0.0.0.0.4.C M C V C Z C Z Z V D L ",
"F C N F F M N C C C m C @.0.0.0.0.0.0.0.:.C V L P L N V F >.0.0.0.0.0.0.9.#.Z C Z V Z L P L V M F L ",
"M f C L L F C B M m m M ] 0.0.0.0.0.0.0.7.D V C B B f N ` 0.0.0.0.0.0.0.0.' C C C P Y U L L V Z L V ",
"P I I I P A A m C M 0 B +.0.0.0.0.0.0.0.0.+.Z C f N A P ,.0.0.0.0.0.0.0.0.` M A L L L P Y Y ' P L C ",
"Z Z Z C L Z N M N Z C L @.0.0.0.0.0.0.0.0.1.J C B V m D 1.0.0.0.0.0.0.0.0.] P P V M L L P P L V V C ",
"f N Z P P Z f f M Z Z L @.0.0.0.0.0.0.0.0.9.D f C U Z K 0.0.0.0.0.0.0.0.7.' Z Z L L V C C L C F P A ",
"P I P Z M m B 0 m C C A o.0.0.0.0.0.0.0.0.9.J C P Z B K 0.0.0.0.0.0.0.0.0.J C L F V C V V C V C C C ",
"P Z C M N M B B P I P I ' 0.0.0.0.0.0.0.0.0.` Y Z V C ] 0.0.0.0.0.0.0.0.7.D D V V V V V C C C C L Y ",
"C m M m M B M A O.P A C D 9.0.0.0.0.0.0.0.0.+.F m L C :.0.0.0.0.0.0.0.0.1.L P C L P Y D Z C C C V M ",
"m u f u u N F L I P L B B ,.0.0.0.0.0.0.0.0.>.F C C F ,.0.0.0.0.0.0.0.0.1.L C L Y I V D F Z P P Z F ",
"M M C Z Z L Z P I F f 9 9 &.0.0.0.0.0.0.0.0.1.K K K ' 7.0.0.0.0.0.0.0.0.+.C M A L C C L V Y T C A V ",
"L P P P L L P L C B 0 8 f ` 0.0.0.0.0.0.0.0.6.~ ~ <.9.0.0.0.0.0.0.0.0.0.` N Z F C F V V C I L V V B ",
"T L P P I L C M B f f B Y #.0.0.0.0.0.0.0.0.6.~ ^ 0.0.0.0.0.0.0.0.0.0.7.F L U F L M B V C V V m Z F ",
"I L L L C B 0 u u B F V Y J 1.0.0.0.9.0.0.0.8.^ 8.0.0.0.0.0.0.0.0.0.0.;.V P Z C C V Z Z V F Z C F U ",
"A Z C 0 7 9 0 m u C F F C C +.0.0.0.0.0.0.0.9.-.0.0.0.0.0.0.0.0.0.0.0._ C M C Z P L I L L P L A F P ",
"M 9 9 0 M M B m Z P C F U L +.0.0.0.0.0.0.0.0.9.0.0.0.0.0.0.0.0.0.0.6.b Z U P P L I P Z C Z L M m m ",
"u m m N V V V L P L F T T K 7.0.0.0.0.0.0.0.0.0.0.0.0.0.0.0.0.0.0.9.6.} L Y Z L Z V f f C P C V M M ",
"V N C F Z C C Z F T T P C ,.0.0.0.0.0.0.0.0.0.0.0.0.0.0.0.0.0.0.0.0.0.7./ D U D Z C C A L L L P P C ",
"V V A C M f M L 3.I M m U 0.0.0.0.0.0.0.0.0.0.0.0.0.0.0.0.0.0.0.0.0.0.0.{ J F m Z C Z C L L I Z V f ",
"V C C V V C P T L M M L 1.0.0.0.0.0.0.0.0.0.0.0.0.0.0.0.0.0.0.0.0.0.0.0.=.R L L F U P Z F V M M Z Z ",
"C L L I I P L F C Z L o.9.0.0.0.0.0.0.0.0.0.0.9.0.0.0.0.0.0.0.0.0.0.0.0.6.R J C Z P L D V V L V M M ",
"C Z P I F M Z C Z L T @.0.0.0.0.0.0.0.0.0.0.0.0.0.0.0.0.0.0.0.9.0.0.0.0.7.c b F U U P Z Z C V M M M ",
"L L I P V L L L T T I >.0.0.0.0.0.0.0.0.0.0.0.0.0.0.0.0.0.0.0.0.0.0.0.0.7.R b D F F P P C Z C V V Z ",
"P Y I C M L L U O.F Z >.0.0.0.0.0.0.0.0.0.0.0.0.0.0.0.0.0.0.0.0.0.0.0.0.0.E b B V V Z C M Z V M M Z ",
"2.L V y V Y P C A C F 1.0.0.0.0.0.0.0.0.0.0.0.0.0.0.0.0.0.0.0.0.0.0.0.0.9.E y V P F Z Z V Z Z Z Y I ",
"P m y V Y C m m A Z L ;.8.0.0.0.0.0.0.0.0.0.0.0.0.0.0.0.0.0.0.0.0.0.0.0.=.c y K U T F Z Z L Z Z P L ",
"V y V D V f m V U Z T ..*.0.0.0.0.0.0.0.0.0.0.0.0.0.0.0.0.0.0.0.0.0.0.0.=.t S Y Y Z Z Z C F C m Z Z ",
"9 y C L L V V C P Y Y K ~ ,.9.0.0.0.0.0.0.0.0.0.0.0.0.0.0.0.0.0.0.0.0.9.v q g F V m 0 f V M 0 m C y ",
"P Y Y U C P L A I Y A D ~ ~ -.0.0.0.0.0.0.0.0.0.0.0.0.0.0.0.0.0.0.0.0.{ w e g M B 9 9 V C D L V Z V ",
"I L D V C L L P Y T I L H ! ~ -.9.0.0.0.0.0.0.8.8.8.9.0.0.0.0.0.0.0.&.p > a C V 7 y L L V V V L F F ",
"2.Y L C Y Y P P Y Y L V B ~ ! ! %.8.0.0.0.8.-.<.7.,.<.*.8.0.0.9.8.%.p > q C P Z C Y F V m V P F C I ",
"C V V N P L L L Z C m f M h W ! ! ~ *.8.,.&.7.e.e.e.w.7.&.9.6.-.~ p > > 6 L C V L P D f m L D V Z P ",
"D C D Y Y P P C C Z M C f $ : k ! ~ ~ ~ ^ q.e.e.e.e.e.e.&.^ ~ k i > > % & C Z B V M y V Y Y Y P T P ",
"L V C L L C M m M Z Z C u O . = s k W ! X.w.e.e.e.e.e.e.7.n p > , > * O O f V B C L P Y Y U P D L V ",
"m V V V M u m 0 V A Z Z N - X O # : e s n w.e.e.e.e.e.e.w.j > > : * $ O 2 M V V Y 2.Y Y L D L P V V ",
"m C F C V V m m L P F Z N m 3 O   . + % t w.e.e.e.e.e.e. .< % + @ $ $ 2 y B V L 2.Y P C V C U C V m ",
"V P L Z C L P P P L L V m C Z 9 - O .   # ( e.e.e.e.e.w.r o o $ 2 5 0 f 9 m P T 2.P V f f C V f m m ",
"T L P P P U U Z Z L L N Z Z Z L V 0 9 5 2 2 _ e.e.e.e.| 4 4 y V C V f f y P 2.T Y V y y y m m V C L ",
"Y A F L L C M V L Z C B F N V M V C L L L L D [ 5.[ ' P L Y I D y 0 9 V F T P C V M m m M F P P P Y ",
"A N V m M m m C A C Z Z C N F F P P P P L A C L P I L L M m f 9 y f D P Y L V V D V L L Y I I Y U U ",
"V f M V N m M B C P Z V Z F L P Y Y D C L L C V V C y m m m y m f P 2.Y L F B B V L P U L L P M f m ",
"V V P L M M N L I Z M M F C J L L m M V I P C A C M M m 0 7 V C T 3.Y V V V f m V C V m C P M y f B ",
"Y P L L L L P L L C C C V C Z Z C C C L L L I Y A C M m V L P T Y F F V V f V D L C F L Y V m C U L ",
"L V P L C L C Z Y C M N C V V V V L V L A Z m f m m m Z I Y Y C V F V y m C Z F F C Z C D m L Z F Z ",
"N C C C C D L Z M m F P L C L C L L C C V m u m m m M C L P C L V f f M L Y P P Z Z P L U L U Z I L "
};
