/* XPM */
static char *sand[] = {
/* columns rows colors chars-per-pixel */
"50 50 23 1 ",
"  c #BAB69B",
". c #BEBA9E",
"X c #BFBBA0",
"o c #C0BC9F",
"O c #C2BEA1",
"+ c #C6C2A5",
"@ c #C9C4A7",
"# c #CCC8A7",
"$ c #C7C3A8",
"% c #CBC6A9",
"& c #CEC9AB",
"* c #D1CDAE",
"= c #D4D0AF",
"- c #D3CEB0",
"; c #D6D1B3",
": c #D9D5B5",
"> c #DDD8B7",
", c #DBD6B8",
"< c #DDD9BA",
"1 c #E1DDBD",
"2 c #E2DEC1",
"3 c #E5E1C2",
"4 c #E9E5C3",
/* pixels */
":,>><:*+%-:;-:&&-:&&&;&&O&-->;-%O<<,:,<O->2<111::-",
"**;::=&@&-:-&&-;;;*&---**-&-:-+%:O-,:--O<<2<,::=;*",
"&&:<;;=*12,;::1>,;;-;;;-:-;,:*-,;,<3,;:;:::<><:<=;",
"%:<:&-;:,-&-:>>;;;;&;*&#&&:,&$;;;,-OO<;-*=O-O:*OO*",
";;;&&:-%-&&-<>;:&&*;=*&&-,&&+&:-;:OO=1,=*OO:--*O*&",
";&%&;=%&&;%*<:&*&#&&:;;;><&$$;#+==O*<3*O=O**&--&*;",
"*&%-*@&&-&+&,:;&$%+%=&#;:;&%&-*--OO:41;*=O:-:;OO*;",
"++&;:;&++++%-*&&%+X++O#&$++&-<>,-*=1<:=O-;1,;---;O",
"::>:=:=+#%O+--&%X X$&-&&+$*:=>1,-=-=-OO::,;,><2<:*",
"**=&:=@@#&%::,-+X%*&%;-&$&@%+=:&-;-;:>;:OO-::,=OO;",
"+#=::&+O$-&:>>*@&;&+&,#+&:-&&=-%O;---<::,:O;O<:;;*",
"=::&%++O+&&;:;@+&*+%:-+&:*$$+OO&OOOOOOO::O;O;OO;-*",
">=@@@@+$:>>,:&OO$+%--*&,-$&&&*&#O,,;;;;OOO-O;-OO;:",
"&+++@@+=<:;&$O+@-;;;-*--$***=;*@;>,;-O,-,,>,O-=--O",
"+O+++@=:<:=++.%,<,,;*;,-****&-;*-::,;-;;11O:;-:<;;",
"+@%&&:=:>;+  X-<1;-$-,*-&%&%&&;;;,,;;OO-=O-;O:3<*O",
";::::;;-&$  +&,,-&X+=#$%%===&&=;:;;O;OO>--OO=>;O-O",
"<::::;&%$OO+,2<<&O+$&@@=,1;;==;:--;;O21>:OO:=OOOO:",
">:;-#@.OX$-&:;--O$&&&=-,<,==;,,-O:;:;1-O*O:-O:,O>1",
"=*&. .X+O&--&&*-&-*&;,,:;&$+@&&&:OOO-OO:::>:;,::;:",
"@ .o+@++*,&-,;&;<-+#;:&X.. .+=%&O:::O::;:>>=O::OOO",
"O++@%&#;:;;11#*-&  *=%O$@%*=&%%%<2;O1<;;-OOOO::OOO",
"#&&**#&&-1,:&&-&+O&=&&,1<3>;;::,,O;<:;:;--=><:;<>>",
"&#&*%O%:4,%$&*$++&=>>43:;;=:>;;:;:;OO;;O*O-O::>OOO",
"%&&%&*,<,$$;,;-==><3>1>,:*&=;;*,1O*=>-:;-<1O-==O;O",
"&-;>>;;-&&::,,=;<11>>1::=**&::;-OO:1:->OO::-OO:OO-",
"&-:>*@*&*:>::;=,11,:==**@%@+*&@$OO:2-O-=2<:-;*O==O",
"-;>:#;:;11,21,,;=>1**-&+++@#*@#%O-3<;*---;:>;O:OO:",
",<,&+;;,1--,>;+%#&*%&%OoOO%*&+&&;1,;-=-OOO;*O:OOO-",
"2;%X#<,&;&;>1&O+##&&&&+$%*&&+&>:>1O--,OO,;-*-O>-31",
":+X&,&+O;*:>>%X@&***;*@&;=&&&:>;>>-*;;;;,1;-::::>:",
"%X$*&++&:;,1,%+&%*&;;&+*;****;::<1O*:<<<,***O:OO-O",
" X---%&&;<<::&$%-;-=OO--:O=:-1>:O-O-O:;:OOOOOOOOOO",
":,<,&:;;:<;%%$%&---::1->-:>>:::;--OOO*OOOOOO;->O-O",
"<:&&&:;,11>;&+++O;-:*OOO::OOO=-OOOOO;O-OOO-;-O-;>:",
"2:;&,,::<<*&+O%&:-OOO==::OO:-OOOOO::OO:;;<;OOO;-O>",
"&%%%:::=&&+++*,:-OO-:OOOOOOOOOO-O*OOO:-O:<;OO:;O-:",
"-&;,,::&&*@&%&&-:O-;O-O-=OOOO=O*O-;O:::OOOOO22<<22",
"-&&;:@++%*&%%&%-:-->:=O:OO=*:-OOO=>;O-OO-;;2<::;:O",
"$$$%+++.&=;*&%&::=OOO;::=OO:=-:O;33>;O-*<2<<---;O-",
"O&**&OOO;:-*@%;*-O-=:>-OOOO*;***143-OOO:3<3-O-:OO-",
"&:;---1;::;%+***OOOO:OOO:::=;;;143OOOO:12:OOO;-OOO",
"1;::::1-*;;%*-***O-O-OO-:1;;<>1<;OOOO<321;OOOOOOO<",
"1*----&O**&%-%%%O=::::>;::-;::<;OOOO-2,;OOOOO->2:<",
";&&OO%O-*&**&%*;>::<;**:::;;OOOOOO-:2-O;;O;>1><>2<",
"OOO&#@##*:*%**;:11-O;;*OO;OOOOOOO;3<,,OOO;:1::>OOO",
"*&1=#O#;,*%%-&-;:OOO>:**;OOOOoO*24,O;OOOO:OO-2OOOO",
",;;;;=:;;&&&%&*-O*:;;;:<:*=OO;:1<,,OOOO-;;-;:OO-::",
";&;-****1-OO-OO*O:O:;:OOOO#=<>:-O;-OOO;:;O:O;O;-;O",
"#&*&**-*OO;>-;;;:;*-OOOO*OO:;:=-OOOO2<:>:O::,<:;<:"
};
