/* XPM */
static char *silver_door[] = {
/* columns rows colors chars-per-pixel */
"50 50 173 2 ",
"   c #020202",
".  c #060708",
"X  c #0D0F10",
"o  c #111314",
"O  c #2D3538",
"+  c #493223",
"@  c #4B372A",
"#  c #523827",
"$  c #553A2A",
"%  c #5B3E2C",
"&  c #573F30",
"*  c #5F412E",
"=  c #5D4232",
"-  c #5F493C",
";  c #61422F",
":  c #644532",
">  c #654837",
",  c #674B39",
"<  c #694D3C",
"1  c #69503F",
"2  c #3C4549",
"3  c #584B42",
"4  c #544D47",
"5  c #57504A",
"6  c #485459",
"7  c #675041",
"8  c #6C5242",
"9  c #6E5749",
"0  c #6E5A4D",
"q  c #65544A",
"w  c #715747",
"e  c #715748",
"r  c #725B4D",
"t  c #645D57",
"y  c #695E55",
"u  c #655F58",
"i  c #735E51",
"p  c #776356",
"a  c #786356",
"s  c #72655D",
"d  c #7C695D",
"f  c #536065",
"g  c #6D6A66",
"h  c #676561",
"j  c #766C65",
"k  c #7D6D62",
"l  c #677175",
"z  c #777877",
"x  c #7C7976",
"c  c #757877",
"v  c #806E63",
"b  c #85766C",
"n  c #88796F",
"m  c #827065",
"M  c #857C76",
"N  c #8C7E74",
"B  c #8E8073",
"V  c #8B837D",
"C  c #91867D",
"Z  c #727E83",
"A  c #79878D",
"S  c #77858B",
"D  c #778A92",
"F  c #7E929A",
"G  c #838584",
"H  c #8F8780",
"J  c #888A89",
"K  c #938E8A",
"L  c #99918A",
"P  c #8A999E",
"I  c #889498",
"U  c #9F9994",
"Y  c #929798",
"T  c #9B9B9A",
"R  c #A4A09B",
"E  c #8C9EA5",
"W  c #8AA3AF",
"Q  c #9AA5A8",
"!  c #8EA7B2",
"~  c #90A7B0",
"^  c #95ABB4",
"/  c #99B1BC",
"(  c #A1A4A4",
")  c #A7ADAF",
"_  c #AAAEAD",
"`  c #A3B2B7",
"'  c #ABB3B5",
"]  c #A6B4B9",
"[  c #A9B6BA",
"{  c #B6BABA",
"}  c #B8BBB7",
"|  c #C2BEA2",
" . c #C6C2A5",
".. c #C9C4A7",
"X. c #C5C4AC",
"o. c #CAC6A9",
"O. c #CEC9AB",
"+. c #D1CDAE",
"@. c #C7C8B4",
"#. c #CCCBB4",
"$. c #CBCEBD",
"%. c #C3C6B8",
"&. c #D2CEB1",
"*. c #CFD1BF",
"=. c #D6D1B3",
"-. c #D9D5B5",
";. c #DDD8B7",
":. c #D4D3BB",
">. c #DAD6B9",
",. c #DED9BA",
"<. c #E1DDBE",
"1. c #9AB5C2",
"2. c #9DBCCB",
"3. c #A2BECB",
"4. c #B3BEC1",
"5. c #B9BFC0",
"6. c #9FC0D1",
"7. c #B7C3C7",
"8. c #BBC5C4",
"9. c #BFC9CD",
"0. c #B7C5CA",
"q. c #AFC7D1",
"w. c #ACC8D4",
"e. c #A1C4D5",
"r. c #BECDD5",
"t. c #B1CEDB",
"y. c #B1CCD7",
"u. c #B9D2DC",
"i. c #B2D0DD",
"p. c #B6D5E2",
"a. c #B8D6E3",
"s. c #B7D8E7",
"d. c #BAD9E6",
"f. c #BEDEEB",
"g. c #CBCFC0",
"h. c #C1CBCD",
"j. c #CCD1C2",
"k. c #C5D0CD",
"l. c #D3D5C4",
"z. c #D1D7C9",
"x. c #D5DACB",
"c. c #DADCC9",
"v. c #C3CFD4",
"b. c #C5D1D4",
"n. c #C8D3D4",
"m. c #C3D3DA",
"M. c #CBD9DE",
"N. c #D3DBD2",
"B. c #D9DFD1",
"V. c #D2DDDA",
"C. c #E1DFC4",
"Z. c #DCE2D5",
"A. c #DBE4DC",
"S. c #D3E0DD",
"D. c #E4E0C2",
"F. c #CDDDE4",
"G. c #D0DEE3",
"H. c #CEE0E7",
"J. c #C1E1EF",
"K. c #CFE1E9",
"L. c #D3E2E5",
"P. c #D8E6E6",
"I. c #DBE8E7",
"U. c #D4E5EC",
"Y. c #D9E7E8",
"T. c #D9E9ED",
"R. c #C5E6F4",
"E. c #C6E8F6",
"W. c #D5E7F0",
"Q. c #D7E9F1",
"!. c #DBEDF6",
"~. c #DCEFF8",
"^. c #DDF0F9",
/* pixels */
"-.>.-.<.;.-.+.....+.-.=.=.-.O.O.=.-.O.o.O.-.X.o. .O.+.+.;.-.O.o.| -.<.-.-.>.<.| O.-.C.<.<.<.<.-.-.&.",
"+.+.=.-.-.+.+...o.=.-.&.O.O.+.=.=.&.O.+.O.&.&.+.+.+.O.=.-.=...o.&.&.O.>.-.=.O.| <.<.<.>.-.-.=.&.-.&.",
"O.O.=.,.=.=.+.+.,.D.-.=.-.-.<.,.=.=.-.=.=.-.=.=.-.+.=.-.-.O.+.>.=.-.<.C.-.&.=.-.=.=.-.<.=.>.-.;.&.-.",
"O.-.,.>.+.=.=.=.>.-.O.&.-.;.;.=.=.=.=.#.:.l.z.x.B.z.Z.Z.l.#.:.=.=.-.O.| &.=.=.&.+.O.O.+.+.=.+.| | +.",
"=.+.+.O.+.-.+.o.#.O.O.=.,.,.=.>.=.z.A.P.T.Q.!.!.!.~.~.!.Q.T.I.A.c.>.| | -.<.-.&.+.| | =.&.&.+.| | +.",
"=.o.O.+.=.+.O.O.O.=...+.,.>.:.A.Y.Q.~.~.^.!.^.!.~.!.~.~.!.^.~.~.~.G.N.l.<.C.&.| +.+.+.&.+.+.+.+.=.&.",
"+.+.O.+.+.O.O.O.&.O. .&.c.A.T.!.~.~.~.!.!.!.!.^.~.!.~.~.!.~.~.~.^.^.^.Q.A.C.&.O.+.| &.&.-.-.| | &.=.",
" . .+.+.=.+.O. .X. .X.N.T.^.~.!.!.!.~.~.^.^.^.^.^.~.^.^.~.~.~.!.!.!.!.!.!.T.x.#.+.=.<.>.-.+.+.&.&.O.",
"-.-.;.;.-.=.=. .O.*.S.!.~.!.~.~.~.Q.~.Q.G.m.9.8.4.8.9.v.F.W.~.~.^.!.!.^.!.!.Q.V.*.&.&.-.<.>.<.:.=.+.",
"+.+.+.+.=.=.....l.Y.!.!.~.!.~.!.Q.F.4.T M d r 8 - 7 8 i v C _ v.Q.^.^.!.^.!.^.!.G.$.&.-.-.-.&.O.| &.",
" .O.+.=.-.O. .j.!.^.!.!.~.!.U.b.( n e > : : : % # ; : ; ; : , r H { G.^.^.!.!.!.!.G.g.O.O.&.O.&.-.+.",
"=.;.-.+.O. .j.T.!.!.!.!.!.m.Q k < : : : : : : : $ : : : : : : : : 8 N 5.Q.!.^.!.~.^.G.%.O.O.O.O.+.+.",
"-.+.O.....:.T.!.!.!.^.W.7.V 1 : : : : : : : : % $ ; : : : : : : : : : w R F.^.^.!.!.!.G.#.O.O.O.&.-.",
"O... .| #.P.^.!.!.!.K.' k > : > : : : : : : : : $ : : : : : : : : : : ; > N b.!.~.!.!.!.n.#.O.O.&.| ",
"| | |  .V.!.!.^.!.K.) p : : : : : : : : : : : ; $ : : : : : : : : : : : : ; b h.~.~.!.!.T.k.:.>.&.-.",
"....O.c.!.!.!.!.U.' p : : : : : : : : : : : : % $ : : : : : : : : : : : : : > m n.^.~.!.^.G.l.#.&.| ",
"=.=.:.T.~.~.~.W.4.k : : : : : : : : : : : : : * $ : : : : : : : : : : : : : : > N V.^.^.~.Q.b.| ....",
"<.-.A.!.!.~.!.r.M > : : : > : : : : : : : : : % $ : : : : : : : : : : : : : : : > U T.^.~.~.F.g.O.&.",
"-.>.T.~.~.!.F.T 8 : : : : : : : : : : : : : : : $ : : : : : : : : : : : : : : : ; w } ^.~.~.Q.v.#.,.",
"+.c.!.~.~.W.4.d : : : : : : : : : : : : : : : % $ : : : : : : : : : : : : : : : : : n G.~.~.~.F.$.-.",
"o.M.~.~.~.F.K > : : : : : : : : : : : : : : : = $ : : : : : : : : : : : : : : : : : < _ ^.~.!.W.8.| ",
"#.Y.!.~.Q.4.p : : : : : : : : : : : : : : : : : $ : : : : : : : : : : : : : : : : : ; b G.~.!.!.k.X.",
"l.!.!.!.F.T < : : : : : : : : : : : : : : : : * $ : : : : : : : : : : : : > : : : : : 8 | ~.!.~.M.X.",
"S.!.!.!.m.b : : : : : : : : : : : : : : : : : * # % : : : : : : : : : : : : : : : : : : U !.!.~.L.} ",
"P.!.!.!.4.r ; : : : : : : : : : : : : : : > p c z x j 7 : : : : : : : : : : : : : : : ; v G.~.~.U.9.",
"T.!.^.W.Q , : : : : : : : : : : : : : : 0 I 1.2.2.2.2.E s : : : : : : : : : : : : : : : w h.^.~.U.9.",
"!.!.!.L.K : : : : : : : : : > : : : : y W 2.! Z l S ~ 2.^ s : : : : : : : : > : : : : : , ' ^.~.W.r.",
"!.!.!.F.x ; : : : : : : : : : : : : , I 2.I 5 + + & q I 3.E 7 : : : : : : : : : : : : : : R !.~.!.r.",
"~.!.^.m.j ; : : : : : : : : : : : : p 1.! 5 $ % $ : : 0 ^ 2.g % : : : : : : : : : : : : : L !.^.Q.r.",
"!.^.^.m.j ; : : : : : : : : : : : : x e.A @ = = # * : : J 2.c = : : : : : : : : : : : : : C W.^.!.r.",
"~.!.^.m.s * : : : : : : : : : : : : G e.A = , > & > , , G 2.Z & : : : : : : : : : : : : ; N Q.^.W.r.",
"!.~.^.m.s * : : : : : : : : : : : > Y s.t.` ] ] ` [ ] [ q.p.E - : : : : : : : : > : : : : N Q.^.Q.r.",
"~.~.^.m.s = : : : : : : : : : : : 9 0.E.E.E.E.E.E.E.E.E.E.R.t.y ; : : : : : : : : : : : : N T.^.Q.r.",
"!.~.!.m.s * : : : : : : : : : : : i u.R.R.R.R.R.R.R.R.E.R.R.a.t ; : : : : : : : : : : : ; N Q.^.!.r.",
"!.~.~.m.s = : : : : : : : : : : : r u.E.R.R.R.R.R.R.R.R.R.E.a.t ; : ; : : : : : : : : : : N Q.^.!.r.",
"~.!.~.m.s * : : : : : : : : : : : r u.E.R.R.R.p.t.p.R.R.E.E.a.t % : : : : : : : : : : : ; N T.^.Q.r.",
"!.~.~.m.s * : : : : : : : : : : : r u.E.R.E.w.6 O 2 / E.R.R.a.t % : : : : : : : : : : : ; N Q.^.!.r.",
"~.!.^.m.s * : : : : : : : : : : : r u.E.R.E.! o   . D E.R.E.a.y ; : : : : > : : : : : : ; N T.^.W.r.",
"!.~.~.m.s * : : : : : : : : : : ; i u.E.R.E.^ o   . D R.R.R.p.t % : : : : : : : : : : : : N T.~.!.r.",
"~.!.^.m.s * : : : : : : : : : > : r u.E.R.R.t.f X 2 3.E.R.R.p.t % : : : : : : : : : : : : N Q.~.!.r.",
"~.!.~.m.s * : : : : : : : : : : : r u.E.E.R.E.w.f / E.R.R.E.p.t * : : : : : : : : : : : : N T.~.!.r.",
"!.~.~.m.s * : : : : : : : : : : : i u.E.R.R.R.R.p.J.R.R.R.E.u.t * : : : : : : : : : : : : N Q.~.!.r.",
"~.!.~.m.s % : : : : : : : : : : : < Q f.f.f.f.f.f.f.f.f.f.s.^ 3 * : : : : : : : : : : : : N Q.~.!.r.",
"!.~.~.m.s : : : : : : : : : : > : : r j g g g g h g g g g g 3 $ ; : : : : : : : : : : : ; N Q.~.Q.r.",
"~.~.~.m.s ; : : : : : : : : : : : : : ; % % % $ + $ % % % % % : : : : : : : : : : : : : ; N Q.^.Q.m.",
"!.~.~.m.s * : : : : : : : : : : : : : : : : : * $ : : : : : : : : : : : : : : : : : : : ; N Q.^.Q.r.",
"~.!.~.m.s : : : : : : : : : : > : : : : : : : : # ; : : : : : : : : : : : : : : : : : : : N Q.^.Q.m.",
"~.~.~.m.s ; : : : : : : : : : : : : ; : : : : = $ : : : : : : : : : : : > : : : : : : : ; N T.^.Q.r.",
"Y.!.~.m.g ; : : : : : : : : : : : : : : : : : ; # : : : : : : : : : : : : : : : : : : : : N T.!.F.8.",
"l.F.F.9.s * : : : : : : : : : : : : : ; : : : : # : : : : : : : : : : : : : : : : : : : : n F.F.h.%."
};
