/* XPM */
static char *water[] = {
/* columns rows colors chars-per-pixel */
"50 50 241 2 ",
"   c #175C64",
".  c #215C64",
"X  c #136D78",
"o  c #1A717C",
"O  c #14737E",
"+  c #136A74",
"@  c #2B6B73",
"#  c #27737C",
"$  c #29656C",
"%  c #157E8B",
"&  c #1D7E8A",
"*  c #177783",
"=  c #167F90",
"-  c #0D7B87",
";  c #227681",
":  c #2A7C87",
">  c #367D87",
",  c #1C808E",
"<  c #14818F",
"1  c #148593",
"2  c #1D8594",
"3  c #1D8997",
"4  c #138D9C",
"5  c #1A8C9B",
"6  c #168896",
"7  c #1B909E",
"8  c #15909F",
"9  c #0E8795",
"0  c #23828E",
"q  c #2C848F",
"w  c #37838D",
"e  c #238692",
"r  c #248996",
"t  c #2A8994",
"y  c #248C9A",
"u  c #2C8D9A",
"i  c #2B8693",
"p  c #328994",
"a  c #3B8D98",
"s  c #388A95",
"d  c #29919E",
"f  c #33929E",
"g  c #3B929D",
"h  c #168FA1",
"j  c #1B94A4",
"k  c #1B96A9",
"l  c #1D9AAB",
"z  c #1699AB",
"x  c #1B9EB2",
"c  c #0E90A0",
"v  c #2394A4",
"b  c #2C94A2",
"n  c #2C99A7",
"m  c #2296A9",
"M  c #239BAC",
"N  c #2B9CAB",
"B  c #2A97A9",
"V  c #3395A3",
"C  c #3C95A2",
"Z  c #3299A6",
"A  c #349CAB",
"S  c #3C9DAB",
"D  c #3A9AA7",
"F  c #239EB1",
"G  c #2A9EB1",
"H  c #329EB1",
"J  c #1BA2B6",
"K  c #1DA4B9",
"L  c #1CA8BD",
"P  c #16A4B9",
"I  c #2CA1AE",
"U  c #36A1AE",
"Y  c #3BA1AE",
"T  c #24A2B4",
"R  c #2BA3B4",
"E  c #24A5BA",
"W  c #2CA5B9",
"Q  c #25AABD",
"!  c #2BAABD",
"~  c #33A3B3",
"^  c #3BA5B3",
"/  c #3CA9B6",
"(  c #33A7B9",
")  c #3BA7B8",
"_  c #33ABBC",
"`  c #3CACBC",
"'  c #35A9B7",
"]  c #3BB1BF",
"[  c #438E99",
"{  c #45949F",
"}  c #439DAC",
"|  c #489AA7",
" . c #569BA8",
".. c #49A2AE",
"X. c #43A4B3",
"o. c #43A9B7",
"O. c #43ACBA",
"+. c #4AAEBC",
"@. c #4CA7B4",
"#. c #52ADBA",
"$. c #58ADBB",
"%. c #44B0BE",
"&. c #4CB0BE",
"*. c #52B1BE",
"=. c #58A0AC",
"-. c #1DB1C9",
";. c #1CADC3",
":. c #25ACC2",
">. c #2CAEC2",
",. c #34AEC1",
"<. c #3AAEC1",
"1. c #25B1C6",
"2. c #2CB1C6",
"3. c #26B4CB",
"4. c #2CB5CB",
"5. c #2CB9CD",
"6. c #27B9CF",
"7. c #34B2C4",
"8. c #3CB3C4",
"9. c #33B5CA",
"0. c #3BB6C9",
"q. c #35BACD",
"w. c #3CBBCC",
"e. c #38B8C6",
"r. c #2DBBD3",
"t. c #24BBD4",
"y. c #33BCD3",
"u. c #3ABED4",
"i. c #33BFD9",
"p. c #46AEC0",
"a. c #44B4C4",
"s. c #4BB4C3",
"d. c #45B9C7",
"f. c #44B7C9",
"g. c #44BCCC",
"h. c #4BBCCC",
"j. c #4CB8C7",
"k. c #53B5C3",
"l. c #54B9C6",
"z. c #53BBCA",
"x. c #5CBDCC",
"c. c #5AB7C5",
"v. c #44BED1",
"b. c #4BBFD1",
"n. c #56BFD1",
"m. c #61BECE",
"M. c #29C4DC",
"N. c #33C1D6",
"B. c #3CC2D5",
"V. c #33C4DB",
"C. c #3BC5DB",
"Z. c #3CCADD",
"A. c #35C9DE",
"S. c #2CCBE6",
"D. c #32C6E1",
"F. c #34CCE4",
"G. c #3CCCE2",
"H. c #33CEE8",
"J. c #3BCEE8",
"K. c #2CD2EB",
"L. c #3BD1E6",
"P. c #34D3EB",
"I. c #3BD3EA",
"U. c #39D6EB",
"Y. c #3CDCF1",
"T. c #35D9F1",
"R. c #2FDAF4",
"E. c #3BE3F6",
"W. c #4CC1CF",
"Q. c #44C1CE",
"!. c #52C0CD",
"~. c #5BC2CF",
"^. c #44C3D4",
"/. c #4BC2D3",
"(. c #43C5DA",
"). c #4BC6D9",
"_. c #44CADC",
"`. c #4BCBDC",
"'. c #4DCAD7",
"]. c #52C3D4",
"[. c #5AC4D4",
"{. c #53C7D9",
"}. c #53CBDC",
"|. c #5ACBDC",
" X c #57C8D7",
".X c #5BD0DE",
"XX c #57D2DF",
"oX c #62CBDB",
"OX c #44CDE2",
"+X c #4CCEE2",
"@X c #42CFE8",
"#X c #54CEE0",
"$X c #58CEE1",
"%X c #44D3E6",
"&X c #4CD3E5",
"*X c #4BD9E6",
"=X c #44D5E9",
"-X c #4BD5EA",
";X c #44DAEC",
":X c #4BDAEB",
">X c #45D9E6",
",X c #53D3E4",
"<X c #5BD4E4",
"1X c #53D6E9",
"2X c #5DD7E9",
"3X c #53DBEC",
"4X c #5BDCEB",
"5X c #54DBE7",
"6X c #45DDF2",
"7X c #4CDDF2",
"8X c #55DDF0",
"9X c #5DDFF1",
"0X c #62D4E5",
"qX c #63DBEA",
"wX c #60D7EA",
"eX c #55E2EE",
"rX c #5BE2ED",
"tX c #45E2F4",
"yX c #4BE2F3",
"uX c #4AEBF9",
"iX c #54E4F3",
"pX c #5BE4F3",
"aX c #56EAF5",
"sX c #5CE9F5",
"dX c #54ECFA",
"fX c #5BEEF9",
"gX c #4DF2FC",
"hX c #54F3FD",
"jX c #5DF2FB",
"kX c #59F8FE",
"lX c #45E2EF",
"zX c #62E2EE",
"xX c #63E4F3",
"cX c #63EAF6",
"vX c #63EDF9",
"bX c #69EEF8",
"nX c #63F2FB",
"mX c #6AF3FB",
"MX c #6BFAFE",
"NX c #65F9FE",
"BX c #71F7FD",
/* pixels */
"a.q b b q : a d.rXMXmX2.j J l z c 1 I R e.y - 9 4 y O.~ ~ R n V _ v./.+.9.=XNXMXrX|.<XqXrX`.:X*X%XiX",
"s.D Z j V w # 0 I Q.^.2.M K L P J R ] ] l.^ 7 j 8 2 %.W.q.! R d.g.( O. X_.J.jXmXqX0X|.!.4X,X*X_.v.1X",
"+Xr.:.T u : ; , 7 j _ y.>.2.:.Q O.!.] W.[.h.a.j.] b ~ |.Z.2._ I j 5 u.xXxXmXMXNX8X2X{.e.B.1Xg.( A <.",
"hXlXJ m y r N U ! y.aX;Xr.4.1.M U ] e.B.e.f.^.).d.f d 8.u.N.N.R 7 N >.1XxXvXcX/.z.}.`.e.( [./.T 4.@X",
">XZ.T r 0 3 ] eXiXaXeX%XF.9.5.5.n R M.M.I l 5.q.7.A n 4.9.7.! W G <.:.C.1XOXv.s q p.].h.] /.rX=XH.J.",
"' ' _ 3 2 j T '.iX*Xe.%XU.C.r._.%.q.K.P.] M :.! ( _ 4.B.v.7.5.q.<.) ,.#X).<.} | > S d._.L.%XcX*XQ l ",
"7 I e.x T J 6 ' 5.4.B.6XtX^.w.'.!.Q.Z.*XW.!.' U X.~ 8.{.'.N.N.>Xa.V ) f.,.X.| ..C ` ).;XB.`.5X'.I - ",
"z Q B.! -.J 3 ' 2.OXyX-Xf.V n / Y Y ] %.!.!.^ ' 0.8.a.|.&X%XG.&Xb ; @.p.{ } H | A F 0.0.] Q./.`.` v ",
"N.Q Q N.M.:.! d.h.zX1X<.^ g._.8.^ / d.W.#.+.Q.' v.).].2XxXpX*X4XU e C  .w s } } ' N.d.Q.Q.'.w.*XB.&X",
">XB._ ' 9.u.f./ !.cXu.m ( 0.w.f.B.Q.d.*...+.~.W.(.+X#X+XyX8X^.}.).) : C t f ( :.5.e.] B.*XiX*X_._.pX",
"Q.l.Y / 8.A C ` rX-XR _ _.0.W B.'.B.'.~.*.~.].XX#X).+XI.yXpX^.g.[.x.#.Y W F j F 0.%./ R A.uX>X] (.`.",
" XV f ^ f : b 0.OX9.v.sXaX^.u.@XB.e.XX#.!.~.!.!.j.a.g._.v.!.].^ x.oXoX[.f.a.<.j./.W.'.'.%X%XQ.n ,.^.",
"!.f %.O.t Z b B T >.q.i._ R >.G j I Z Y *.O.O.W.&.%.o.~ h ~ |.s.c..X0XrXb.j.b.a./.3XsX4X*X_.U d ) 7.",
"%.Y XXXXM I ( ! E 9.{.i.5.i.F 6 3 7 , 0 p q ^ ^ U Y t 3 9.OX<XO.Z _ W.zX].2X4X`.&X*XiX*X_.w.%.f u R ",
"Q.f '.5XW f.w.0.9.(.).).+X@XG v R l 7 e q 0 , # o X o I ;XL.B.Y n Q R p.X./.rX^._.B.G.tX*Xd.O.n _ ] ",
"D U w.&X8.|.0.W ^.v.g.{.$X+X,.B L ! I e q d d e & O , 2.5.S.r._.pXpX) a X.#XeXXX>XN.q.V.] V Q.e._ U ",
"q ^ h.&X9.8.>.9.h.+.].1Xi.N.2.! 1.8.` e e ' 7.v N ^ U T Q M.H.4X9XwX$. .) @XB.3XaX*Xg.e.~ d e.W.` g ",
"@.s.j.b.u.1.q.) A s.xXxX`.,X`.q.w.R I 0 # v R I ] ] I I E 3.N.{.0X0Xm.m.n.v.v.aXpX,X_._.N.R ^ W./.X.",
"=.@.<.+X3XC.<.u * ( +X:X3X3X*XN.5.! Q , o v j 2 5 ! 2.1.B.0.' O.x.oXm.oX$Xj.).OX`.+X=XtXtXj.h.v.^ @.",
"m.b.=X:XdX*Xa.A Z ,.L.K.F.aXyX_.^.w.W & o N.N.l 4 2.F.q.B.0.^ O.| s C +.s.s.4X*XG.-X;X=X(.~ 8.B ; [ ",
"].yXtX5X#X+X<Xs.s.B.7XY.F.6X&Xj.W. X+.w d P.U.q.R 9.=X<X2X+.> @ . . @ V `.5XvX:X;XY.6XB.m 1 = y S X.",
"u.&X3XwX}./.}.{.w.u.aXiX-XpXoX{.XXXX~...n M.N.W.|.<X#Xg.s.#.s @ $ > S ( w.^.4XfXkXyXG.>.h = 1 G ^.w.",
"! a.k.l./.&X$X X]./.3XnX+X0.].].`.}. X0XL.M.N.] {.{.,X(.>._ ) } | X.s.g.a.! y.tXhX>XW ) G h 2.i.(.^.",
"(.p.k.n.a.a.h.&.k.{.3X,X` ~ O./ I ^ l.'.5X*X'.Y {.^.j.1X! G ^ Z b y t a.{.`.r.R.tX>.Y c.s.<.9.F w.aX",
"nXzXzXfXzXzX4X{.{.,Xa.A ) s././.B.d.l.U ^ 8.].l. X$X<XeXf.H A } S A d ^.1XyXT.uX8XH C a.p.|.8X,.E I.",
":XfXdXiXMXMXjXpXcX/.b 8.5XaXjXjX5X}.&.e y ( ` [.2XwX4X|.8.m 2 e U {.^.Z._.;X6X;X7X,.h 1.:.>.F.4.:.F.",
"D.r.=XpXxXnXsX3XpX!.'.mXMXhXhXhXQ.g @   + , v ^.0XoX[.|.{.o.H v ! e.B.N.N.2.OXC.u.#XG t.H.OX+X^.9.i.",
"u.2.q.1X/.^.g.` 5XcXnXNXNXuXaX_.f   + o - < M m @.#.&.0Xv.D Y ,.Q Q 5.M.lXw.v.Q F #X{.F.F.v.2X X#X9.",
"%XR m f.X.^ S ^ rXMXpXMXNXhXZ.q.n e O 2 F m 5 * : | ..$Xj.H a.v.m 6.A.A.6X#X^.E ,.2XxX1Xb.(.fX3X4X#X",
"^.< < n g ../ 7.yXeX3XjXeXpXiX_.Y u X < 2.k * + ; > a b.v.8.f.f.a.9.B.:X8X3X-XF.D.=X3X$X<X8XiX).#XmX",
"N.z I n : a U 7.T.>XA.C._ ^.eXs.[ a u , G B = = : ; e 0.u.OXv.a.j.w.&XY.P.H.J.yXF.=X_.,XbXcX_.XX7XkX",
"M.1.5.v q S O._.Y.L.y.2.I 2.Z...# f D ..+.D r : * : v ,.1X1X+X+XB.&XiX;XH.T.-XyXI.iX&X'.mX4X<.7XfXgX",
"T E ! 6 r ~ d.`.U.A.@X,.` i.9.t = k b +.+.2 y y 3 k k j W.5X(.=X;XfX%Xi.C.(.).7X6X8X).b.qX{.d.dXuX>X",
"k z T m 1 8 R e.&X*X@Xv.0.C.f.Y >.:.3 f.v.E v y v E E M T _.3XyXtX*X9.~ M H #XsX=X+Xu.^.+Xf.f.fXkX:X",
"1.:.E F j P P k w.*X(.OXC.(.f.+X8X>.= ) f.A o & 1 k 5.f.M 2.sXnX8X4.E ,.W m (.mXsX8X).g.).|.].-XjXpX",
"C.;X>.x L Q P z Z.mX2XOX7X1X(.D.8X).M f.^ V u n T h E 9.:.M.fXiX9.,.3.y.u.:.1.3XvX4X1X).$XqXiXtXfXOX",
"6XaX4.F w.u.:.>.3XBXmX8X9XxX7XG.-X2X9.G b 0._ e.(.T L J P S.dX=X( 0.y.@XJ.1.;.3.-X(.#X(.[.xXdXgXaXD.",
"D.G.<.B ,.6XH.i.xXBXbX9X<Xv.-X1X#XwX9Xu.N N.! g.^.E 3.;.-.R.;Xu.q.u.q.i.K.F.5.1.G.#X(.A z.dXhXkXfXI.",
"v.v.u.4.t.K.Y.1X2X^.1X#Xs.B G 1X-XiXfX4XZ q.5.~ 0.B.B.r.M.L.iX(.D.D.y.C.T.F.r.3.:.i.u.F _.aXyXT.6X7X",
"h.OX6XY.R.T.7Xn.H W u.j.n.,.>.OXcXnXvX4X7.B._ R w._.B.:.t.6XpX3XC.q.F.H.H.=Xi.3.2.1.2.>.2.>.3.S.3.v.",
"*XdXhXgX6XpX,X) h.,.2.,.{.).8.>.,XmXbXv.` >._ w.^._.B.Q F.iXpX3X+XC.T.T.T.@XG.r.I.! M 3.:.4 z 3.:.p.",
"nXkXtX=X2XwX{.b./.R E >.#X0Xv.,.g.BX.Xb B E W ! 7.e._.L.U.tXjXpX+XJ.T.tXH.4.4.S.H.F 3.6.F h x -.6.N.",
"N.L.u.^. X[.|.n.,.m m 2.G.0X9X7X5XmXW.] `.y.OX*X! ! A.E.Y.tXjX3X#XuXH.r.i.y.D.R.r.m 4.F 6 h c z P P ",
"m T ,.h.z.j.a.k.p.t ^ }.0.b.OX=XzXxXd.}.pXw.A.C.N 5.%XI.U.:X3X5X8XiX>.:.i.i.D.r.:.k F 3 = h L L z k ",
"g.7.' &.$.X.Z q { X.+.z.o.H ,.<.e._.}.sX,X%.e.T 6 T 2.T w.`.{.{.}.$Xb.#X8Xv.4.G R R A b h F r.t.F ' ",
":X` 0 a #.w @ w &.zX` n f.v ( a.^ I _ Q.v ^ w.T k J P T w.Z.1X4X/.].1X-XxX0X$Xj.k.].+.o.Y p.).(.~ u.",
"6Xu.u o t @ > #.<XnX,X,.M % j <.^ 5 y e b s.T :.5.L J e.*XP.lXeX9.r.6XD.z.x.{.} @.c.k.+.o.8.j.o.( @X",
"Y.7Xz.S D @.c.s.].xXvX2X:.= = r v y p t ' ] T T Q l U h.L.E.gXeXi.;X).@.$.0XzX[.#.*.z.a.g.<.o.S g.7X",
"uX;Xa.j.5X<X X) !.mXMXrX8.3 , e 1 v Z ] `.5X5.5 5 3 U ` 3.M.lXeXf.#X#. .x.1XdX-Xh.{.XXh.h./.h.h.3X;X",
"OXG o.{.1Xk.g &.zXmXmXw.n A A d 1 7 w.rXjX*X7 6 7 , f n J L _ Y V s.c.| h.8XkX6XJ.1X X.X1X&X}.&X*Xr."
};
